<?xml version="1.0" encoding="UTF-8"?>
<svg id="Capa_1" data-name="Capa 1" xmlns="http://www.w3.org/2000/svg" viewBox="0 0 600 600">
  <defs>
    <style>
      .cls-1 {
        fill: #18201a;
      }
    </style>
  </defs>
  <path class="cls-1" d="M399.44,465.78c-7.24,27.25-14.66,60.74-30.19,84.62-3.66,5.62-7.32,8.02-5.97-.94,2.11-14.05,13.53-33.48,17.64-48.86,2.08-7.81,3.53-15.79,4.39-23.82-2.06-.36-3.37.99-4.91,1.98-2.55,1.65-13.08,10.17-14.77,12.2-2.96,3.56-3,10.12-4.81,14.65-7.37,18.51-43.77,38.1-62.89,40.01-25.44,2.54-40.97-9.13-63.83-16.18-35.09-10.82-61.61-13.33-93.91-34.09-26.24-16.87-34.91-24.96-33.56-58.16,1.7-41.7,20.48-81.19,29.02-121.49-12.56-5.11-20.96-14.8-25.43-27.51-7.59-21.55-.03-41.16,14.08-57.91,8.45-10.03,28.46-20.79,28.59-35.15.13-15.07-7.27-22.65-.37-40.77,13.08-34.38,52.35-26.13,69.42-49.79,8.49-11.77,11.7-24.81,23.24-36.36,22.45-22.47,66.22-30.08,95.29-17.72,9.07,3.85,12.7,11.13,19.84,16.55,8.59,6.52,15.59,7.38,23,17.15,8.62,11.36,15.42,36.56,14.37,50.54-1.16,15.5-8.06,28.43-5.78,45,3.65,26.55,29.69,36.21,32.29,68.09,1.2,14.73-5.17,24.99,8.15,34.51,20.66,14.78,38.77,13.73,46.45,43.89,2.25,8.86.76,15.22,2.19,22.9,2.71,14.56,15.23,23.61,11.95,42.65-4.96,28.85-67.79,63.74-93.51,74ZM241.73,204.03c7.53-8.55,19.22-29.94,16.57-41.29-1.05-4.49-5.96-10.31-6.03-16.54-.12-10.7,11.01-22.31,21.03-24.23,4.44-.85,7.15,1.1,11,1.12,10.37.03,13.63-10.63,20.38-12.35,6.27-1.6,15.15.65,21.99-.6,14.92-2.72,34.97-30.44,22.9-43.64-4.74-5.18-20.04-11.61-26.96-13.19-26.07-5.95-56.51,5.41-73.47,25.75-13.59,16.29-14.18,34.27-35.48,46.07-18.12,10.05-40.37,8.59-49.87,30.44-8,18.4,3.72,35.45-5.38,54.84-5.49,11.71-18.18,17.37-26.56,27.4-17.97,21.51-23.47,55.35,7.48,67.09,4.28-31.86,15.07-52.57,44.74-66.32,21.43-9.93,41.05-15.68,57.66-34.54ZM416.68,265.99c.58-10.87-1.49-22.51-5.66-32.59-6.92-16.73-23.11-27.33-27.87-46.16-5.74-22.71,6.79-41.97,4.53-64.74-1.38-13.89-8.43-30.1-19.92-38.42,5.45,13.64,9.38,26.93,7.41,41.92-.79,6.01-5.26,12.02-6.06,17.78-.97,7.01.56,14.85-.43,22.15-2.24,16.53-16.18,27.12-23.52,41.09,19.23,1.54,38.46,14.46,50.17,29.53,7.33,9.43,11.76,21.75,21.35,29.45ZM282.38,181.95c.16,1.48.82,2.71,1.83,3.78,9.29,9.83,25.16,27.17,39.91,24.8,11.76-1.89,31.24-33.6,34.22-44.92,2.3-8.73.51-13.95.92-21.62.65-12.17,13.6-26.6,6.35-40.84l-6.64-14.04c-2.2,12.42-14.35,24.47-25.89,28.7-8.34,3.06-17.61,1.78-24.65,4.21-4.36,1.51-9.68,9.78-18.2,10.76-8.2.95-11.33-5.47-21.01,1.48-12.15,8.72-6.62,26.24,7.57,26.5,3.48,7.08-5.72,6.11-7.56,8.64-1.21,1.67-1.97,8.91-3.1,11.95-11.12,29.82-31.43,44.37-59.02,58.31l8.75,8.17c10.44,13.31,14.63,29.45,24.61,43.15,20.57,28.22,54.77,37.78,77.71,62.83,2.27-10.42-8.78-19.69-5.64-30.1,8.04,6.06,12.16,17.77,14.75,27.27.68,2.52,0,5.53.6,8.18,4.53,20.05,17.75,9.62,29.29,2.17-3-10.34-6.14-19.86.23-29.78,3.19-4.97,5.95-9.92,9.08-14.76,3.5-5.42,12.39-9.45,18.83-9.4.11-3.87-4.8-4.44-7.56-6.86-10.78-9.46-17.12-20.04-18.78-34.53,2.35-.49,3.03,1.17,4.29,2.6,4.93,5.63,7.9,13.05,13.87,18.75,2.3,2.2,11.49,9.23,14.13,9.79,6.97,1.46,17.92-8.58,25.77-8.85,1.42-.68,2.2-.79,2.03-2.66-.17-1.86-10.03-12.44-12.18-15.47-11.64-16.47-17.12-32.82-35.47-43.58-4.52-2.65-29.48-13.12-33.16-12.78-1.54.14-5.8,4.42-9.32,5.24-4.77,1.11-9.54.11-14.32.74-4.16,1-8.34,24.98-13.37,19.87-.45-7.89,1.32-16.12,4.83-23.23-12.15-8.8-23.59-18.04-26.15-33.87l2.46-.59ZM207.93,251.37c-11.43-10.06-23.87-3.66-34.05,4.61-23.91,19.43-24.83,49.58-32.13,77.03-8.15,30.66-32.77,101.06-22.56,129.39,4.64,12.86,34.48,30.15,46.91,35.91,24.14,11.19,48.49,15.35,73.34,23.28,37.67,12.02,49.08,25.75,88.98,3.06,9.49-5.4,22.05-13.39,25.5-24.05-15.14,7.9-29.33,17.12-46.37,20.74-2.13.45-11.59,2.09-13.05,1.56-2.91-1.06-2.79-4.74-.83-6.64,4.47-4.32,24.32-5.31,31.71-9.7,2.12-1.26,5.01-3.09,4.71-5.95-8.3-1.18-16.5,1.95-24.48,2.49-13.37.89-32.45-2.29-46.4-3.77-26.74-2.84-57.85-31.86-82.37-44.36-4.42-2.25-26.33-10.42-27.45-12.71-2.21-4.51,12.12-.37,12.68-2.62l31.35-100.77,3.65-.1-3.14,32.62c21.03-20.91,34.36-56.11,29.16-85.59-1.74-9.88-7.59-27.75-15.15-34.4ZM327.58,376.39c2.48-2.1-9.03-7.49-9.95-8.23-7.29-5.85-11.19-14.28-18.32-20.58-13.16-11.63-32.27-19.52-46.36-31.44-8.17-6.91-14.71-15.99-23.24-22.54.92,6,.67,14.46-.03,20.68-1.56,13.87-6.13,27.72-12.78,39.92-2.79,5.13-19.22,26.35-19.49,28.03-1.07,6.62,10.62,22.74,13.18,30.2,5.18,15.09.14,26.61-.96,41.74l19.25-24.65c9.66-7.99,20.81-17.27,34.15-13.06,5.02,1.58,16.03,11,17.7,11.24,2.08.3,7.94-11.45,10.47-14.34,1.09-1.25,3.7-1.66,3.85-2.55.95-5.53-9.33-7.77-12.58-10.01-21.77-14.99-1.44-52.02,25.46-34.24,6.27,4.15,9.84,11.92,19.66,9.82ZM372.38,328.34c-3.37,4.13-8.36,5.27-10.31,12.89-5.35,20.87,10.63,15.05,23.86,16.37,23.79,2.38,44.19,33.72,68.34,16.84,20.5-14.34,22.29-38.1,9.89-58.66-10.85-17.98-37.87-24.61-56.74-15.77-9.16,4.29-10.96,14.62-14.58,16.79-3.26,1.96-9.37-.76-14.28,2.03-4.03,2.29-3.9,6.72-6.18,9.51ZM299.35,489.31c-5.89.83-14.97,0-21.33,0-.83,0-4.75,2.12-3.13,3.75,4.76,1.03,9.47,2.49,14.41,2.63,12.38.35,28.77-4.67,40.15-3.94,5.59.36,7.3,5.35,11.21,5.13,8.31-.47,22.66-17.23,29.01-22.58,33.69-28.41,75.67-35.17,107.3-73.4,11.79-14.25,7.02-21.94-.67-37.05-7.11,4.41-9.17,12.12-16.52,17.36-9.75,6.95-18.06,4.49-27.14,9.25-21.2,11.11-47.38,45.86-71.73,47.47-12.81.85-23.94-5.69-37.36-2.22-11,2.84-23.64,10.45-32.34,17.21,11.79,1.24,22.28-5.98,33.89-5,6.51,6.62-26.3,24.19-32.11,24.98-9.35,1.26-18.93-1.4-28.12,3.89-2.69,3.62,16.21,6.35,18.2,6.37,6.76.05,25.34-5.92,28.76-5.08,3.38.83.36,4.93-1.13,6.26-1.92,1.7-8.92,4.65-11.32,4.99ZM293.72,440.38c11.83-4.31,20.2-12.46,33.39-13.64,11.3-1.02,22.95,3.69,33.63,2.23,11.51-1.56,41.52-24.95,50.34-33.72,3-2.98,5.14-6.42,8.06-9.44-14.54-14.77-31.81-23.36-52.91-17.83-18.14,4.76-31.27,23.16-51.5,14.37-6.4-2.78-12.82-10.4-20.55-10.93-6.56-.45-12.28,5.1-11.7,11.72.74,8.37,4.72,6.28,9.32,9.59,8.55,6.15,16.97,15.95,27.04,19.39,18.7,6.38,41.45-6.56,60.2-8.11,2.3,1.96-8.08,7.19-9.17,7.76-20.17,10.44-44.25,15.89-64.98,4.09-9.26,7.59-18.07,11.21-11.17,24.53ZM198.31,456.68c2.66-11.26,6.1-22.64,4.92-34.39l-16.19-33.35-13.63,53.08c2.6,2.6,22.91,16.09,24.9,14.66ZM248.52,456.69v24.46c0,1.13-2.92,4.1-1.97,5.69l11.23,3.62,1.99-2.92c-5.75-14.16,1.28-20.58,15.05-22.76,7.01-1.11,14.18.85,20.15-3.71l-10.38-3.42c-6.75-3.65-6.65-10.83.33-14.15-28.87-36.39-57.6-8.22-70.18,24.34,7.45,4.61,14.92,9.48,23.69,11.41,3.63-7.16,4.83-16.55,10.1-22.56Z"/>
  <path class="cls-1" d="M429.25,327.47c10.83,2.74,8.74,17.88,1.19,23.15-3.13,2.19-17.27,5.24-20.56,4.38-1.45-.38-2.41-1.58-.7-3.04,7.75-6.65,25.94-8.61,20.06-24.49Z"/>
</svg>