<?xml version="1.0" encoding="UTF-8"?>
<svg id="Capa_1" data-name="Capa 1" xmlns="http://www.w3.org/2000/svg" viewBox="0 0 466.35 466.35">
  <defs>
    <style>
      .cls-1 {
        fill: #18201a;
      }
    </style>
  </defs>
  <path class="cls-1" d="M232.42,124.24c3.51-.69,5.5,2.13,7.59,4.59,24.53,28.86,59.4,97.56,61.95,135.23,4.06,60-52.76,96.94-104.94,68.23-72.71-39.99-7.01-155.48,28.53-201.2,1.85-2.38,3.85-6.27,6.87-6.86ZM225.54,239.65c-14.81,27.29,24.54,34.29,28.03,8.63,4.91-36.06-47.52-49.6-52.22-5.03-6.53,61.93,76.62,62.01,81.66,3,3.14-36.76-30.14-78.58-49.81-107.48-22.43,33.65-49.17,71.94-57.69,112.21-21.75,102.81,123.08,107.26,116.94,14.18l-2.08-8.92c-4.95,29.37-36.33,51.37-65.62,42-53.78-17.2-35.85-106.36,11.3-92.06,39.46,11.96,32.81,76.55-6.6,67.43-20.57-4.76-20.96-43.69-2.55-43.7,9.81,0,14.09,13.04,5.5,11.44-1.9-.35-4.55-3.06-6.88-1.72Z"/>
</svg>