<?xml version="1.0" encoding="UTF-8"?>
<svg id="Capa_1" data-name="Capa 1" xmlns="http://www.w3.org/2000/svg" viewBox="0 0 466.35 466.35">
  <defs>
    <style>
      .cls-1 {
        fill: #18201a;
      }
    </style>
  </defs>
  <path class="cls-1" d="M205.54,333.99c-1.21-.82-4.24-19.86-5.68-23.72-7.43-19.95-27.52-25.23-42.34-38.02-27.37-23.61-35.73-59.94-37.22-94.81-.11-2.67.28-5.17,1.39-7.59,3.2-2.01,19.61,7.1,23.45,9.24,32.67,18.13,54.75,40.18,58.85,79.09,1.81,17.19-1.91,34.98,3.32,51.83,4.92-9.38,6.84-19.95,11.19-29.58,5.27-11.67,12.16-17.28,13.39-30.99,1.95-21.8,1.59-36.27,13.45-56.11,19.33-32.32,49.99-28.19,76.92-46.63,5.31-3.64,13.16-12.43,17.98-14.5,7.2-3.1,5.84,10.27,5.49,13.98-4.68,50.36-28.67,89.46-76.34,108.38-10.34,4.1-26.82,6.72-34.53,14.65-10.5,10.8-18.52,39.18-22.79,53.97-.58,2.02-1.25,14.41-6.53,10.83ZM243.91,253.63c31.86-7.08,62.46-23.6,78.18-53.15,9.34-17.56,14.17-37.33,15.38-57.17-6.98,5.1-13.02,11.71-20.78,15.79-32.64,17.16-58.03,11.49-72.13,55.01-3.37,10.39-3.7,20.49-5.45,31.12,3.11.8,2.11-1.08,3.12-2.24,12.42-14.25,20.19-27.56,35.89-39.7,3.16-2.44,19.26-13.59,21.86-14.24,1.84-.46,4.69,1.25,4.83,2.81.3,3.47-18.22,14.52-21.88,17.44-15.84,12.61-27.48,27.89-39.02,44.33ZM197.12,280.03v-18.59c0-8.41-6.23-26.4-10.17-34.2-12.07-23.88-37.13-35.54-58.82-49.14-.36,34.43,9.85,68.59,37.23,91.1,2.42,1.99,24.53,16.84,25.75,15.62-8.4-19.11-18.34-38.18-30.69-55.06-2.41-3.29-16.98-17.24-13.69-20.48,1.69-.15,3.18-.13,4.76.62.96.45,12.7,13.55,14.39,15.6,4.53,5.49,8.44,11.63,12.53,17.45l18.7,37.08Z"/>
</svg>