<?xml version="1.0" encoding="UTF-8"?>
<svg id="Capa_1" data-name="Capa 1" xmlns="http://www.w3.org/2000/svg" viewBox="0 0 600 600">
  <defs>
    <style>
      .cls-1 {
        fill: #18201a;
      }
    </style>
  </defs>
  <path class="cls-1" d="M311.44,287.29c9.01-.68,8.92,15.15.95,17.02-11.98,2.81-16.87-15.07-8.7-23.04,13.68-13.35,28.93,5.05,23.88,19.43-4.59,13.07-18.34,22.97-31.19,13.12-17.12-13.12-8.05-44.45,14.31-46.81,41.34-4.36,37.55,63.04,2.78,69.01-31.28,5.37-49.61-26.22-40.03-53.87,11.33-32.71,65.18-42.25,79.18-6.3,7.97,20.45,1.5,61.67-16.88,75.53-25.37,19.14-58.36,11.42-76.18-13.6-19.46-27.33-7.01-72.98,19.72-91.3,38.25-26.21,96.14-4.65,98.81,43.92,1.83,33.24-6.1,63.58-34.46,83.21-22.25,15.41-66.7,17.5-87.64-1.14-5.71-5.08-18.08-22.94-20.84-30.07-4.32-11.18-4.99-39.57-4.38-52.01,2.34-47.8,43.92-71.64,87.75-74.36,19.77-1.23,33.73-2.3,50.11,10.17,32.29,24.58,40.84,78.95,27.73,115.62-23.13,64.7-83.91,89.34-146.62,60.13-10.32-4.81-21.26-18.88-28.31-28.03-30.2-39.18-17.96-109.57,12.35-145.77,21.4-25.56,59.69-33.6,91.64-34.88,48.84-1.96,81.2,25.49,94.41,71.19,5.45,18.84,4.78,33.31,3.21,52.63-5.24,64.22-39.79,118.13-107.98,125.3-42.3,4.44-71.67,2.21-104.03-26.93-34.36-30.94-39-93.8-30.97-136.76,13.47-72.07,63.98-115.46,137.99-115.09,42,.21,78.5,7.65,105.97,41.3,13.08,16.03,21.38,52.19,25.47,72.88,5,25.31,3.31,40.81-2.76,65.46-10.5,42.59-24.76,86.3-64.55,109.92-33.48,19.87-64.03,21.73-102.18,21.86-35.13.12-61.25-6.45-85.78-32.38-47.21-49.91-58.02-106.43-35.08-171.53,14.97-42.49,34.43-90.41,75.78-113.51,36.63-20.46,87.56-34.27,129.58-32.56,14.41.59,54.56,5.7,63.48,17.57.82,1.09,4.84,8.92,4.94,9.93.06.59.11,1.16-.23,1.69-1.51,2.51-7.42-2.65-9.3-3.56-52.7-25.49-119.67-11.73-170.68,11.37-48.12,21.8-63.92,61.91-81.08,108.7-20.03,54.63-17.42,98.67,17.26,146.09,20.17,27.57,40.17,43.4,75.77,45.31,44.06,2.36,92.41-1.15,127.48-30.65,26.39-22.2,38.41-67.06,45.48-99.82,6.83-31.63.31-58.18-8.3-88.58-6.06-21.39-10.38-30.54-27.3-45.35-29.19-25.54-92.52-28.49-128.12-17.44-69.36,21.52-88.83,87.47-85.63,154.11.88,18.42,10.14,53.05,22.77,66.69,29.62,32,60.7,35.55,102.53,30.9,61.5-6.83,93.8-54.4,98.59-112.94,2.07-25.3,2.73-42.66-7.81-66.31-23.95-53.71-73.37-55.48-124.24-41.54-24.08,6.6-38.4,20.22-50.2,41.72-15.65,28.52-22.08,79.11-4.76,107.86,3.49,5.8,17.72,23.56,22.7,27.71,10.29,8.57,44.41,15.12,57.83,14.86,52.23-1.03,87.63-53.51,84.75-102.6-1.19-20.36-12.29-54.31-30.51-65.37-13.22-8.02-19.37-6.71-34.03-6.5-22.74.32-40.61.88-59.88,14.7-8.63,6.18-19.19,18.81-22.39,29.01-4.22,13.49-4.56,52.19.41,65.34,1.87,4.96,13.18,20.46,17.13,24.39,12.31,12.27,37.23,11.79,53.33,9.81,41.24-5.08,55.69-42.16,52.2-79.75-4.3-46.25-64.43-63.6-94.15-27.94-14.77,17.73-18.41,52.49-3.19,70.92,14.29,17.3,32.65,22.64,53.38,12.39,19.73-9.75,24.55-36.24,23.23-56.39-3.06-46.7-76.85-34.8-66,14.61,3.27,14.91,15.42,23.2,30.59,21.68,19.29-1.93,25.14-24.33,21.41-40.57-2.92-12.73-19.49-15.84-29.66-9.7-10.39,6.27-11.92,27.81.79,32.64,6.89,2.62,11.03-1.61,14.6-6.87,3.82-5.63,5.66-11.21.09-16.72-4.67-4.62-12.34,1.29-9.65,8.17,1.99,5.07,5.2,1.02,4.11-3.61-.33-1.4-2.04-1.99-.82-3.74Z"/>
</svg>