<?xml version="1.0" encoding="UTF-8"?>
<svg id="Capa_1" data-name="Capa 1" xmlns="http://www.w3.org/2000/svg" viewBox="0 0 600 600">
  <defs>
    <style>
      .cls-1 {
        fill: #18201a;
      }
    </style>
  </defs>
  <path class="cls-1" d="M258.76,174.56c-2.81,2.83-4.54,12.26-.31,14.65,10.13,4.47,20.85,9.56,30.33,15.24,7.96,4.77,37.04,28.27,41.27,29.49,11.77,3.39,22.94-4.87,37.92,5.26,11.13,7.52,12.89,22.76,18.83,27.94,3.48,3.04,15.85,4.37,21.59,7.19,17.7,8.69,21.89,29.71,16.11,47.38-1.12,3.42-4.46,7.32-5.1,10.51-1.15,5.68,7.77,48.04,9.71,56.91,3.39,15.5,8.34,39.47,15.01,53.35,7.02,14.62,19.47,27.9,26.42,43.13,5.83,12.77,16.73,40.66-8.22,35.21-.86.79,5.83,8.06,1.72,14.31-2.87,4.37-9.47,4.17-14.22,3.57-18.83-2.4-32.33-24.07-47.57-33.97-15.15-9.83-30.7-7.75-33.35-30.22-1.26-10.69,1.94-21.43,1.11-32.29-.89-11.62-6.92-26.03-13.84-35.33-15.77,30.12-33.55,53.58-63.35,70.96-28.45,16.59-53.78,27.19-87.61,22.44-59.66-8.38-78.83-47.08-67.08-103.98,2.71-13.11,9.23-28.03,10.87-40.7,1.77-13.76,1.02-28.51-.28-42.27-18.37-10.93-31.17-25.14-25.22-47.99,4.26-16.36,12.92-19.68,8.46-39.59-4.71-21.04-15.01-33.8-6.37-57.85,8.36-23.26,23.73-26.28,42.07-37.09,29.86-17.6,29.44-57.27,73.74-67.77,70.74-16.78,71.37,73.04,27.75,105.7-2.49,1.86-8.83,4.25-10.38,5.81ZM255.83,71.38c-48.85.87-49.02,45.94-79.76,66.66-13.12,8.84-31.91,14.32-39.61,29.94-14.26,28.94,13.69,51.42,4.51,80.06-1.78,5.56-5.89,10.67-7.62,16.37-5.16,17.05-.13,27.35,14.16,36.91,1.85-1.14,1.57-2.38,1.81-4.15,4.2-30.08,5.66-60.68,17.76-88.98,17.55-41.06,45.98-44.5,75.16-11.21,5.49-3.92,5.29-14.21,3.08-19.85-2.02-5.16-5.87-4.86-9.08-7.71-3.9-3.45-14.47-12.48-10.83-18.03,3.28-3.23,5.75,3.34,7.8,5.47,11.15,11.57,17.77,13.72,31.11,3.47,28.29-21.73,41.9-89.85-8.5-88.95ZM208.07,246.19c2.48-.26,4.23,1.6,6.01,2.97,7.47,5.73,15.15,16.95,22.75,24.02,16.45,15.31,43.85,35.89,66.59,37.74,28.23,2.3,67.79-18.41,91.65-5.3,7.33,4.03,10.99,11.43,17.45,16.11,6.71-8.06,5.36-23.73-.59-31.77-12.19-16.46-54.83-10.19-73.73-11.41-55.01-3.57-67.91-36.47-100.73-71.96-12.52-13.54-29.2-32.18-48.02-15.61-20.23,17.81-29.07,80.96-30.53,107.38-.87,15.67,2.24,31.2,1.18,46.75-2.44,35.64-22.82,63.19-12.61,101.38,13.04,48.74,91.83,56.09,126.56,28.17,28.17-22.64,54.05-98.78,56.34-134.34.24-3.72,1.04-21.35-1.88-22.03-13.07,1.92-27.54,2.01-40.34-1.68-4.36-1.26-15.73-7.7-18.88-6.3-4,1.77-24.5,35.66-27.84,41.81-4.62,8.53-15.39,36.25-21.92,40.44-5.21,3.34-5.42-.65-4.03-5.13,4.38-14.05,19.75-43.23,27.58-56.46,3.48-5.88,15.62-20.02,15.45-25.38-.22-6.91-15.18-15.49-20.5-20.41-6.11-5.65-13.73-13.01-19.14-19.24-2.58-2.98-14.09-16.08-10.82-19.75ZM253.72,197.09l-4.8,7.89c9.26,11.43,19.47,25.25,29.86,35.84,2.8,2.85,14.7,14.11,18.03,13.15l22.76-15.58c-12.12-8.47-23.56-18.39-36.05-26.29-5.97-3.78-19.32-11.84-25.42-14.16-1.42-.54-2.79-1.32-4.38-.85ZM305.21,261.76c7.3,2.2,14.48,5.32,22.2,5.99,9.18.8,33.25,2.25,42.02,1.27,1.66-.18,3.24-.03,4.01-1.95-5.05-25.71-28.34-29.63-49.87-19.92-2.39,1.08-20.8,11.46-18.36,14.6ZM456.31,529.2c-7.05-30.79-38.56-51.86-47.1-81.81-2.33-8.17-3.2-17.25-4.31-25.67-4.73-35.78-4.03-72.15-15.44-106.89-.95-1.99-2.65-3.16-4.76-3.64-9.96-2.28-45.63,1.21-48.12,13.82-1.25,6.32,4.53,25.37,6.97,32.12,9.26,25.57,33.65,56.84,35.99,82.74,1.06,11.74-3.91,31.73.98,40.99,3.76,7.1,11.27,7,17.45,10.13,5.9,2.98,11.35,5.75,16.76,9.63,13.72,9.82,23.61,28.03,41.57,28.57ZM409.17,337.69c-1.65-.87-5.96-5.15-5.65-.95,1.18,16.18,5.42,33.9,7.21,50.38,2.22,20.48.86,45.52,8.38,64.77,3.49,8.92,38.63,54.62,46.11,58.22,1.46.7,2.45,1.54,4.27,1.11-.22-22.15-17.23-38.05-27.34-55.99-19.17-34.02-20.59-80.5-32.98-117.54ZM337.57,367.32c-3.07-.5-1.86.29-2.49,1.68-3.57,7.81-5.38,20.23-8.26,28.92-3.03,9.17-6.57,19.22-10.26,28.12-5.12,12.34-11.82,23.89-17.34,36.02,25.03-13.95,37.02-40,51.08-63.54.69-1.28.3-2.34-.02-3.61-1.89-7.6-10.94-19.07-12.71-27.58Z"/>
</svg>