<?xml version="1.0" encoding="UTF-8"?>
<svg id="Capa_1" data-name="Capa 1" xmlns="http://www.w3.org/2000/svg" viewBox="0 0 466.35 466.35">
  <defs>
    <style>
      .cls-1 {
        fill: #18201a;
      }
    </style>
  </defs>
  <path class="cls-1" d="M281.17,200.59l-1.07-.81.47-1.25c6.86-18.36,4.99-38.75-5.13-55.93-9.89-16.79-26.37-28.03-45.22-30.84-7.03-1.05-12.81-1.3-17.67-.75h0c-31.91,3.59-58.08,36.39-64.93,66.02-7.59,32.81-3.78,70.43,10.47,103.2,15.32,35.25,40.89,60.55,71.99,71.24,20.07,6.89,40.6,5.19,57.81-4.8,17.18-9.97,28.81-26.88,32.76-47.62,7.34-38.56-6.68-73.53-39.48-98.46ZM276.47,208.18l.41,3.64c1.66,14.75-3.03,27.29-12.88,34.42-5.24,3.79-11.47,5.74-17.76,5.74-4.3,0-8.62-.91-12.65-2.76-11.03-5.06-18.07-16.31-19.31-30.88l-.39-4.56,3.39,3.07c16.23,14.7,41.5,8.43,56.55-6.12l2.63-2.55ZM218.32,199.16c1.14-5.17,5.37-8.86,11.32-9.85h0c10.64-1.78,29.16,1.51,36.27,12.3l.63.96-.61.98c-4.33,6.98-11.99,12.22-20.5,14.01-2.09.44-4.16.66-6.19.66-5.28,0-10.27-1.47-14.45-4.33-5.14-3.52-7.68-9.3-6.48-14.72ZM304.7,315.32c-8.2,14.72-20.61,24.43-35.88,28.07-4.54,1.08-9.25,1.61-14.05,1.61-14.73,0-30.31-5.02-44.38-14.53-28.26-19.1-49.21-56.7-54.67-98.11-4.8-36.35,3.42-69.84,22.53-91.9,16.99-19.61,40.91-26.04,62.43-16.77,22.73,9.79,36.22,34.2,33.57,60.75-.31,3.06-1.23,8.2-3.97,8.22h-.54s-.45-.29-.45-.29c-9.63-6.26-20.19-10.42-28.26-11.13-28.49-2.51-35.12,18.47-36.47,24.95-3.99,19.12,6.2,43.7,30.13,51.71,11.15,3.73,22.35,2.28,31.56-4.1,10.56-7.32,17.16-20,17.65-33.92l.13-3.72,2.83,2.41c27.76,23.58,35.43,65.18,17.85,96.75Z"/>
</svg>