<?xml version="1.0" encoding="UTF-8"?>
<svg id="Capa_1" data-name="Capa 1" xmlns="http://www.w3.org/2000/svg" viewBox="0 0 466.35 466.35">
  <defs>
    <style>
      .cls-1 {
        fill: #18201a;
      }
    </style>
  </defs>
  <path class="cls-1" d="M225.56,120.8c29.05-.95,47.71-1.25,71.01,17.66,28.53,23.16,37.48,71.01,39.79,106.01,2.43,36.94-.38,55.91-16.22,89.05-1.17,2.44-2.27,5.28-4.3,7.08-1.73.37-1.27-4-1.17-5.13,1.28-13.88,6.04-29.27,9.09-42.81,4.75-21.09.43-65.8-4.54-87.4-3.53-15.31-14.11-43.94-25.62-54.45-25.44-23.21-51.15-19.9-83.53-17.83-14.05.9-32.48,10.95-44.66,18.1-7.81,4.58-19.7,20.8-22.41,29.49-5.01,16.05-1.03,57,2.84,74.03,3.81,16.75,11.89,43.8,22.73,56.84,17.09,20.56,32.21,23.78,58.81,22.23,28.34-1.65,70.07-21.03,74.8-52.22,2.9-19.16-2.95-53.22-9.93-71.47-12.69-33.18-27.62-58.59-67.82-55.72-12.18.87-39.78,10.6-47.95,19.76-20.06,22.47-10.52,52.7-2.84,77.98s11.85,42.4,38.42,51.03c22.86,7.42,69.86-6.16,72.4-34.37,1.11-12.35-4.44-46.45-8.88-58.32-9.77-26.16-36.98-39.25-63.97-32.82-44.02,10.48-32.73,62.01-15.37,90.92,7,11.65,31.37,11.61,43.52,10.89,12.05-.72,19.96-5.55,24.53-16.98,4-10,.38-30.06-1.81-40.88-2.18-10.77-4.35-15.67-13.16-22.43-15.54-11.92-34.03-10.72-46.11,5.18-8.98,11.81-3.2,40.53,7.88,49.86,8.7,7.33,25.28,10.46,34.98,3.38,6.34-4.63,5.09-15.42,4.22-22.33-1.55-12.35-5.72-30.83-21.87-28.93-8.09.95-11.55,5.06-12.18,13.03-.74,9.36.58,18.89,9.96,23.19,7.21,3.31,13.19-1.11,12.81-8.86-.2-4.1-3.6-17.68-9.43-15.84-4.85,1.52-.69,9.46,1.48,11.93.82.93,5.67,3.91,1.64,5.09-5.16,1.51-10.92-8.61-11.03-13.04-.1-3.92,3.16-8.94,7.21-9.58,14.51-2.31,22.15,23.33,14.31,33.09-12.47,15.51-31.79.09-33.79-16.13-1.85-14.96.51-26.88,16.73-30.58,26.36-6.01,33.98,30.89,32.64,49.95-1.79,25.5-36.51,24.99-52.15,12.07-13.78-11.38-19.11-41.08-11.56-57,13.86-29.2,52.23-28.28,70.02-3.45,8.78,12.25,13.26,48.62,8.95,62.66-3.22,10.48-12.98,22.09-24.09,24.35-17.42,3.55-49.17,3.24-59.49-13.86-10.15-16.83-19.86-45.61-17.15-65.26,6.68-48.44,77.37-55.16,103.33-17.47,12.89,18.71,19.37,58.69,17.13,81.11-3.54,35.36-55.29,51.84-84.44,41.08-28.3-10.45-35.25-27.76-43.25-55.1-12.27-41.95-20.89-82.77,26.6-104.37,43.79-19.93,81.22-13.71,102.23,31.88,13.09,28.41,21.16,61.95,19.21,93.52-2.23,36.13-45.21,64.95-78.82,66.97-21.23,1.28-49.08-.49-65.03-16.06-22.6-22.07-33.86-59.72-37.96-90.54-4.77-35.88-7.32-61.82,17.96-90.14,6.42-7.19,21.68-14.44,30.72-18.71,16.71-7.89,26.16-8.71,44.55-9.32Z"/>
</svg>