<?xml version="1.0" encoding="UTF-8"?>
<svg id="Capa_1" data-name="Capa 1" xmlns="http://www.w3.org/2000/svg" viewBox="0 0 466.35 466.35">
  <defs>
    <style>
      .cls-1 {
        fill: #18201a;
      }
    </style>
  </defs>
  <path class="cls-1" d="M179.28,95.24c114.65-12.95,195.22,122.31,164.6,224.1-14.54,48.33-50.51,59.68-97.29,48.88-81.55-18.82-137.5-103.89-129.98-186.1,3.26-35.69,22.11-82.29,62.68-86.88ZM179.27,116.47c-4.96.67-11.22,4-15.66,6.43-2.39,1.31-13.15,7.97-14.28,9.51-2.52,3.42-6.48,17.36-7.67,22.07-19.63,78.16,25.74,168.88,105.14,190.58,32.13,8.78,60.09,7.63,73.28-26.58,26.38-68.41-15.4-162.89-82.01-191.58-16.16-6.96-41.32-12.8-58.8-10.43Z"/>
  <path class="cls-1" d="M230.2,169.12c3.3-.76,15.39.92,18.94,1.94,8.98,2.59,25.31,16.5,31.41,23.82,34.26,41.07-11.42,103.81-53.06,70.06-21.97-17.81-21.65-57.92-10.2-81.55,1.88-3.88,8.78-13.33,12.91-14.28ZM238.71,188.6c-2.49.67-7.32,9.77-8.03,12.43-2.43,8.97-2.11,25.29.02,34.36,5.04,21.51,29.01,29.08,39.58,6.94,10.42-21.82-6.63-39.05-23.41-50.31-2.1-1.41-5.62-4.11-8.16-3.42Z"/>
  <path class="cls-1" d="M262.41,212.59c7.24,10.15-2.19,29.21-13.2,22.98-13.91-7.87.06-41.41,13.2-22.98Z"/>
</svg>