<?xml version="1.0" encoding="UTF-8"?>
<svg id="Capa_1" data-name="Capa 1" xmlns="http://www.w3.org/2000/svg" viewBox="0 0 466.35 466.35">
  <defs>
    <style>
      .cls-1 {
        fill: #18201a;
      }
    </style>
  </defs>
  <path class="cls-1" d="M147.1,101.36c-.99-1.58-.08-7.84,1.02-9.6,6.11-9.81,56.91-3.03,68.34-.24,140.99,34.42,115.84,285.99-39.54,278.93-4.86-.22-27.46-1.96-18.72-10.82,3.22-3.26,15-9.35,20.08-13.35,70.08-55.11,72.64-185.91-6.42-232.91-3.75-2.23-24.03-10.85-24.76-12.01ZM178.99,361.02c89.71,1.79,132.37-89.68,117.1-168.56-7.97-41.18-38.21-76.38-78.63-88.57-15.8-4.77-33.98-7.57-50.51-7.67-.8,3.85,1.26,2.11,2.89,3.07,46.32,27.1,68.25,63.42,70.74,117.91,2.53,55.43-9.53,96.42-50.88,133.81-1.33,1.2-12.76,8.22-10.71,10.01Z"/>
</svg>