<?xml version="1.0" encoding="UTF-8"?>
<svg id="Capa_1" data-name="Capa 1" xmlns="http://www.w3.org/2000/svg" viewBox="0 0 600 600">
  <defs>
    <style>
      .cls-1 {
        fill: #18201a;
      }
    </style>
  </defs>
  <path class="cls-1" d="M379.02,259.71c-2.57-18.98-17.83-32.79-25.39-48.96-6.1-13.05-7.58-27.63-13.16-40.81-9.22-21.79-25.32-29.6-27.4-56.55-.5-6.46-.86-37.53,1.8-41.34,3.66-5.25,5.23,6.67,5.42,8.93,1.24,14.95-1.29,27.19,2.95,42.62,9.61,35.05,56.49,44.23,70.74,73.17,7.97,16.17,8.43,31,20.51,46.65,1.98,2.56,17.59,15.51,7.15,14.48-8.32-.82-21.24-22.17-24.47-29.54-5.24-11.96-6.44-24.75-15.15-35.22-7.6-9.14-20.37-15.78-30.58-21.57-1.31,1.72,8.25,31.77,10.2,35.96,7.32,15.74,19.22,27.37,23.73,45.83,2.87,11.75,1.26,23.51,3.37,35.01,2.84,15.52,11.87,15.13,22.03,23.54,11.22,9.28,16.68,23.3,17.46,37.7.1,1.92.89,12.54-3.67,9.68-5.79-16.81-4.36-28.35-19.25-40.71-2.32-1.93-17.53-12.68-19.09-11.48,2.61,11,1.21,24.12,2.42,35.35,2.95,27.48,27.29,39.11,29.94,69.6.13,1.44,1.05,18.46-3.57,14.97-2.09-10.21-3.93-21.21-8.19-30.79-4.75-10.68-13.61-17.66-19.17-27.61-12.83-22.98-4.43-49.81-12.84-73.5-6.91-19.45-22.73-34.95-38.95-46.79.8,10.96,5.13,22.04,5.96,33,1.48,19.34-1.31,34.42,4.78,53.99,6.02,19.34,21.55,38.32,22.81,58.74,1.44,23.4-12.68,45.25-9.26,70.43,2.21,16.29,15.97,32.25,8.07,50.08l-3.65-.53-.94-1.46c2.38-18.94-10.86-34.66-12.16-52.6-1.41-19.52,8.32-35.79,9.55-53.96,1.38-20.43-9.9-38.56-18.18-56.14-1.18-2.51-5.22-14.63-5.8-15.2-2-1.98-2.02.61-2.5,1.68-4.53,10.11-10.96,26.89-12.75,37.62-4.03,24.13,4.21,54.87-12.35,75.2-5.72,7.02-14.36,10.61-8.57-1.38,4.08-8.46,9.3-12.17,10.66-22.92,2.59-20.55-.8-39.9,4.82-61.14,8.83-33.34,18.53-45.22,15.95-83.69-2.49-37.19-19.41-53.9-33.84-84.89-1.13-2.42-5.21-14.64-5.81-15.19-1.85-1.73-2.05.34-2.52,1.65-4.35,12.2-2.31,30.1,1.02,42.43,3.69,13.67,12.52,26.23,13.55,40.42,1.35,18.58-7.56,33.89-6.08,51.65,1.06,12.75,9.26,22.17,8.48,35.98-.33,5.76-4.46,22.8-12.03,20.95-1.53-6.43,2.72-11.83,3.49-17.49,1.98-14.62-7.24-24.22-8.33-38.23-1.48-18.97,8.49-35.8,5.94-55.11-1.49-11.24-10.78-23.81-13.7-35.47-1.84-7.33-2.43-15.26-3-22.79l-23,41.14c-.65,2.33-1.99,5.17-2.06,7.54-.58,18.96,10.92,46.24,11.93,66.99,1.24,25.39-12.8,48.87-7.91,73.87,3.81,19.47,15.15,35.3,16.31,56.85,1.46,27.11-13.35,51.69-8.45,78.59-1.99,2.11-6.53-6.16-6.91-8.06-3.96-19.48,8.39-45.79,8.04-66.7-.33-19.53-10.72-35.56-14.92-53.54-2.09-8.94-3.04-18.45-3-27.59-11.74,11.7-20.77,30.03-23.65,46.5-2.24,12.83-1.03,24.81-5.74,37.44-2.13,5.71-7.01,15.36-13.77,15.6-1.46-1.41,5.69-14.2,6.57-16.81,5.55-16.53,3.11-35.32,9.29-53.08,11.35-32.63,38.94-46.83,35.56-87.66-.52-6.32-7.35-39.8-10.03-43.94-.37-.57-1.52-1.55-1.8-1.19-5.29,25.72-9.12,49.41-26.43,70.12-8.31,9.95-19.88,17.32-26.12,29.05-4.75,8.93-6.72,19.15-7.43,29.16l-3.66-.54c-2.85-8.42-.85-18.48,2.23-26.68,6.37-16.95,20.73-25.57,31.36-39.39,18.58-24.17,17.36-51.14,27.94-78.8,11.85-30.97,33.66-55.99,41.31-89.41,5.63-24.58,2-53.57,3.97-78.78.23-2.96,1.17-12.22,3.56-13.26l3.46.85c4.18,26.01-1.1,54.66,1.51,80.61,1.7,16.87,11.75,41.84,20.04,56.72,15.67,28.15,40.43,41.7,58.4,68.76.92,1.39-.31,3.09,2.97,2.39-.63-6.61.87-14.58,0-20.99Z"/>
  <path class="cls-1" d="M233.91,183.56c-22.3,10.15-42.78,29.25-50.91,52.81-1.53,4.42-5.53,25.55-7.25,26.33-.44.2-3.02.44-3-.6-1.08-22.04,8.67-45.56,23.38-61.77,20.7-22.83,47.48-24.04,58.23-58.1,5.88-18.62.72-42.7,2.3-62.46.6-7.51,4.43-13.8,5.93-2.24,2.5,19.31,4.91,55.86-1.7,73.63-4.04,10.86-12.93,20.43-17.09,30.89-4.13,10.39-3.95,21.92-8.45,32.32-5.71,13.19-19.32,23.61-23.95,37.21-3.63,10.66-2.76,21.35-7.24,32.33-5.6,13.72-17.84,21.68-23.93,36.03-1.92,4.51-1.38,10.3-5.67,13.5-7.21-5.99.83-20.81,4.9-27.46,5.46-8.93,14.99-16.71,18.71-26.86,3.48-9.5,2.6-20.53,5.71-30.27,4.6-14.4,17.78-23.61,23.45-36.52,3.93-8.93,5.05-19.25,6.59-28.78Z"/>
</svg>