<?xml version="1.0" encoding="UTF-8"?>
<svg id="Capa_1" data-name="Capa 1" xmlns="http://www.w3.org/2000/svg" viewBox="0 0 466.35 466.35">
  <defs>
    <style>
      .cls-1 {
        fill: #18201a;
      }
    </style>
  </defs>
  <path class="cls-1" d="M169.64,189.24c16.97-39.5,51.19-66.29,89.58-32.1,6.65,5.93,11.84,12.9,18.41,19.08,5.9,5.56,12.23,16.37,16.55,23.51,15.21,25.13,17.78,63.81,3.22,89.87-22.62,40.48-80.73,47.18-113.18,14.55-29.82-29.99-30.52-77.81-14.58-114.91ZM212.75,226.99c6.17,14.56,26.16,29.05,42.21,27.65,19.55-1.7,25.01-26.33,23.82-42.53-2.46-33.35-44.51-80.47-78.03-51.44-29.64,25.68-39.6,82.08-22.52,117.12,27.47,56.34,108.49,47.58,118.34-15.24,2.8-17.86-.23-36.75-7.47-53.2-1.04-1.22-.29,3.26-.27,3.62,1.56,44.67-32.76,69.79-69.03,37.44-9.98-8.9-22.23-27.27-16.55-41.11,3.48-8.48,14.03-11.7,20.35-4.07,7.85,9.49,3.52,27.53-10.84,21.76ZM211.94,210.65c-.93,2.58,6.88,15.52,8.49,5.7.33-1.99-1.16-6.63-3.02-7.64-1.64-.89-4.89.35-5.46,1.95Z"/>
</svg>