<?xml version="1.0" encoding="UTF-8"?>
<svg id="Capa_1" data-name="Capa 1" xmlns="http://www.w3.org/2000/svg" viewBox="0 0 600 600">
  <defs>
    <style>
      .cls-1 {
        fill: #18201a;
      }
    </style>
  </defs>
  <path class="cls-1" d="M350.34,89.07c-1.17,21.7-9.69,37.32,13.56,49.4,31.43,16.32,60.15,19.19,82.15,52.16,43.52,65.22-3.3,154.18-22.9,218.89-14.59,48.19,1.03,56.45,3.93,98.7.22,3.27,1.64,15.21-3.01,14.68-1.39-.54-2.16-1.66-2.66-3.02-3.6-9.83-5.05-25.19-8.11-36.26-12.64-45.82-29.67-75.08-18-125.94,4.63-20.19,19.7-32.49,24.04-51.51,5.92-25.97-8.23-49.92-12.62-74.94l2.38-1.26c6.85,2.89,17.79,34.92,19.58,42.8,9.08,39.94-5.3,46.27-19.43,77.29-11.18,24.52-7.08,57.51-2.54,83.21,3.17.29,1.95.06,2.37-1.8,18.73-81.91,94.13-207.69-7.15-265.07-29.56-16.75-70.89-17.51-60.88-63.23.51-2.34,5.4-18.08,9.28-14.09Z"/>
  <path class="cls-1" d="M154.85,499.21c-5.13.04-5.5-7.45-5.96-11.41-5.27-44.93,2.98-89.02-1.22-134.29-4.4-47.31-24.3-116.16.7-158.81,28.43-48.5,92.47-32.51,107.62-95.05,1.83-7.56.53-18.67,7.39-22.57,4.8,1.02-.27,25.31-1.47,29.69-17.27,63.35-84.18,47.57-108.1,96.97-19.44,40.14,2.45,116.18,4.7,161.71,1.02,20.75-2.04,39.94-2.5,59.96-.56,24.53,1.51,49.53-1.16,73.8Z"/>
  <path class="cls-1" d="M314.36,307.34c-1.44,20.36-8.79,32.68-26.78,42.17-15.31,8.08-29.22,7.53-44.79.01-11.99-5.79-13.16-12.9-20.98-21-1.07-1.11-1.08-2.59-3.39-1.99,3.82,25.98,6,54.65.85,80.59-8.09,40.68-40.36,72.41-50.25,112.85-2.69,4.49-6.02,1.89-5.68-3.18,1.77-26.49,25.27-57.74,36.1-81.52,25.08-55.07,4.64-115.04,8.13-172.96.22-3.63,1.34-14.88,3.06-17.33,1.17-1.67,1.2-1.19,2.42-.03,3.56,3.41,3.41,29.26,4.33,36.45,2.65,20.91,16.52,59.65,41.17,61.96,24.15,2.26,33.53-4.09,45.98-23.67,1.37-2.16,6.27-15.71,9.82-12.35Z"/>
  <path class="cls-1" d="M283.17,313.32c-2-.61-2.09-3.13-4.16-4.82-16.76-13.61-31.27,15.12-7.98,13.06l3.16-7.01c5.35,3.83,3.18,9.59-1.91,12.46-11.08,6.24-22.97-8.87-16.03-19.64,6.62-10.26,26.28-7.13,26.92,5.94Z"/>
</svg>