<?xml version="1.0" encoding="UTF-8"?>
<svg id="Capa_1" data-name="Capa 1" xmlns="http://www.w3.org/2000/svg" viewBox="0 0 466.35 466.35">
  <defs>
    <style>
      .cls-1 {
        fill: #18201a;
      }
    </style>
  </defs>
  <path class="cls-1" d="M255.14,46.61c-2.08,11.41-9.68,20.63-13.12,31.85-6.9,22.53-5.03,47.67-13.26,70.08,25.44-34.58,48.2-84.51,99.01-81.6,13.93.8,30.51,6.79,42.45,13.93,2.31,1.38,18.68,12.01,15.69,14.89-7.23-.66-12.83-7.47-19.59-10.99-41.86-21.78-83-1.25-106.36,35.59-.26.84.94.76,1.8.61,12.22-2.13,36.7-14.15,50.98-18.6,14.44-4.49,30.19-9.06,44.98-11.4l.59,2.38c-20.14,14.83-36.57,28.12-61.17,35.4-24.48,7.24-54.65,5.03-65.97,32.98,33.33-14.78,70.62-10.87,106.14-13.21,2.38-.16,4.59-1.05,6.9-1.5,1.61-.31,2.35-2.23,2.1.91-20.96,17.71-49.19,24.37-76.18,25.78-14.53.76-31.1-2.55-44.45-1.26-7.82.76-11.75,11.03-16.12,16.85,15.45.24,30.75-1.84,46.24-1.24,11.55.45,23.13,3.12,34.79,2.5,9.1-.49,18.3-4.13,26.94-4.25-18.27,23.57-55.54,26.39-83.22,23.24-8.36-.95-28.06-6.63-34.68-5.62-1.05.16-2.13.61-2.92,1.34l-11.13,15.23,20.85-1.08c26.47,1,44.76,13.34,72.1,11.86,3.77-.2,8.56-1.51,12.55-1.86.96-.08,3.64-1.46,2.45,1.26s-9.55,8.91-12.56,10.24c-36.36,16.09-71.48-.16-107.78-5.76-4.38.41-18.14,23.04-22.41,27.31,13.7-3.25,25.92-4.19,39.86-2.06,10.13,1.55,19.58,5.6,29.48,7.71,16.49,3.51,31.97,2.32,48.67.45,5.99,3.81-4.1,8.37-7.59,10.15-9.23,4.73-25.06,9.58-35.39,10.19-28.06,1.67-53.61-13.45-81.03-16.3-20.42,31.54-36.92,67.58-45.75,104.24-1.98,8.24-5.16,35.36-7.97,40-3.49,5.76-11.3,3.12-10.97-4.87.29-7.14,3.41-19.97,5.08-27.4,9.47-42.24,28.72-79.21,50.99-115.78-4.19-17.63-11.61-35.47-12.96-53.71-1.85-24.97,3.97-49.68,2.43-74.39-.79-12.75-4.85-25.06-6.04-37.73,8.89,8.18,14.52,20.75,17.39,32.37,9.93,40.14-3.33,82.34,7.18,122.33,4.83-7.58,14.86-16.81,16.09-25.88,1.54-11.36-4.97-26.14-5.87-38.29-1.6-21.63-1.26-64.29,3.94-84.78,2.26-8.9,7.69-16.79,8.05-26.14,4.82.12,5.84,8.87,6.03,12.54.38,7.14-1.95,12.7-2.42,19.25-1.15,15.8,2.93,32.11,3.63,47.9.85,19.26-.29,38.53-2.45,57.61l2.38.59,17.9-26.96c-6.43-17.98-6.11-36.42-5.93-55.23.18-18.34-1.21-41.36,0-58.76,1.49-21.33,7.21-5.39,10.49,3.99,8.19,23.37,10.94,51.69,8.73,76.38-.81,9.07-5.21,17.84-5.39,27,6.34-6.75,15.94-15.35,17.1-24.9.95-7.87-1.97-18.07-2.14-26.01-.47-22.34,6.53-76.89,29.71-86.73,1.74-.74,10.15-3.61,11.12-2.66ZM225.15,135.34l6-45.56c-1.71.61-2.56,5.43-2.99,7.19-2.2,8.84-2.78,17.97-4.24,26.94l1.24,11.44ZM327.12,105.38l-32.68,9.88-23.69,11.68,27.88-8.69,28.49-12.88ZM195.15,170.12l2.52-30.58-1.9-28.19c.34,17.94-2.52,36.9-1.8,54.59.06,1.46-.91,4.46,1.19,4.18ZM166.36,204.9c.26-6.79-1.16-14.33-1.28-20.96-.11-5.69.14-11.07.04-16.76-.12-7.2.35-14.46.05-21.65-.06-1.46.91-4.46-1.19-4.18-.94,19.42-1.98,38.61.13,58.02.14,1.24.48,5.63,2.24,5.53ZM307.93,158.14h-26.97s-30.6,4.77-30.6,4.77h28.17s29.4-4.77,29.4-4.77ZM133.97,231.28c1.35-6.82-1.32-14.81-1.29-20.98.02-2.85,1.34-5.48,1.35-8.35,0-2.54.58-24.65-.65-24.65-2.33,12.47-1.78,25.16-1.85,37.84l2.44,16.13ZM279.14,197.72l-61.17-2.4c-.19,1.8,3.05,2.08,4.3,2.28,14.57,2.29,29.53,2.71,44.27,2.5l12.6-2.37ZM236.55,238.48c7.32.83,15.92-.61,23.39,0l-52.13-10.85-12.65,1.24c13.55.43,28.3,8.12,41.38,9.61ZM214.96,280.46c7.41.75,15.86-.55,23.39,0l-13.49-1.51c-15.95-3.63-31.88-9.1-48.26-10.54-.96-.08-4.39-.35-2.41,1.24,13.47,1.54,27.46,9.45,40.77,10.8Z"/>
</svg>