<?xml version="1.0" encoding="UTF-8"?>
<svg id="Capa_1" data-name="Capa 1" xmlns="http://www.w3.org/2000/svg" viewBox="0 0 600 600">
  <defs>
    <style>
      .cls-1 {
        fill: #18201a;
      }
    </style>
  </defs>
  <path class="cls-1" d="M458.54,259.35c-1.31,1.57-5.37,2.44-7.24,4.68-4.37,5.28,1.22,21.35,2.01,28.73,1.65,15.46.78,29.14,6.35,44.21,10.88,29.41,30.34,53.18,35.41,86.78,12.34,81.77-53.98,92.54-118.26,93.06-11.72.09-27.37-3.02-37.9-1.38-4.95.77-13.57,6.17-20.17,7.93-44.54,11.84-91.5-5.11-135.87-9.4-26.46-2.56-47.35,2.32-66.68-21.81-31.29-39.06,3.22-82.68,15.45-120.72,3.44-10.71,5.88-21.71,7.96-32.77,1.12-5.95,5.37-25.99,4.69-30.37-.61-3.86-9.72-9.63-11.71-17.89-6.44-26.75,10.97-34.92,14.15-55.55,1.56-10.12-.54-18.74,2.72-29.58,7.85-26.03,33.44-34.13,47.4-53.73,5.22-7.33,6.95-17.15,11.44-25.08,11.21-19.8,30.45-27.87,52.87-25,5.26.67,18.49,6.69,20.8,6.07,4.72-1.26,7.22-8.6,10.48-12.1,18.25-19.61,48.8-30.99,73.65-16.02,20.55,12.39,20.33,41.48,33.87,58.83,9.52,12.21,25.22,18.45,35.86,28.76,20.97,20.32,23.49,50.31,24.57,77.94.16,3.97.63,11.43-1.86,14.42ZM332.18,83.15c-6.32.86-26.13,6.61-24.35,15.1,2.83,13.5,24.59,20.57,33.82,28.08,18.97,15.44,16.77,40.87,23.26,61.01,6.12,19,12.43,7.91,23.72,5.62,21.12-4.29,40.97,26.06,49.05,42.41,1.76,3.57,6.13,19.81,10.72,18.75,2.41-2.21,3.36-6.05,3.57-9.17.6-9.15-2.5-33.62-4.95-42.8-9.06-34-47.77-41.03-61.37-70.66-12.42-27.06-14.14-53.69-53.47-48.34ZM301.59,102.45l-2.91.88c-10.52,14.54-7.54,31.5-2.72,47.59,4.73,15.8,15.26,41.37,35.73,38.54,4.78-.66,8.69-5.84,13.47-4.85-9.66,12.19-1.68,25.15-1.85,36.8-.08,5.5-20.6,22.94-25.58,28.47-2.94,3.26-19.57,22.81-20.09,24.97-1,4.13,4.79,16.01,5.34,22.11s-.27,11.68-1.37,17.55c19.91-12.7,33.94-34.02,43.78-55.23,7.87-16.97,13.3-35.34,22.02-52.01-18.35-17.39-10.07-56.77-29.99-72.52-4.01-3.17-9.61-4.5-13.8-7.27-8.75-5.8-19.68-14.48-22.04-25.03ZM259.79,215.89c4.61,4.79,16.06-.06,20.66-3.28,5.43-3.8,15.74-19.24,16.68-25.55,1.01-6.78-7.94-22.06-10.28-29.82-2.59-8.59-4.29-17.73-4.92-26.69-5.18,4.54-6.21,12.4-12.75,16.03-7.23,4.02-19.26-.2-23.61,7.29-2.92,5.04.23,17.77-.18,25.11-.89,15.85-7.86,40.86-21.79,49.84l-.66,2.13c28.79,22.97,37.7,64.1,68.81,84.98,4.6-9.34,2.92-27.01-2.73-35.51-1.81-2.73-16.23-11.39-20.39-15.09-18.53-16.49-23.84-30.39-16.34-55.31l5.63-.68c.59,1.94.47,5.1,1.87,6.56ZM332.45,200.83c-9.92.28-19.07-3.44-27.3-8.51-8.11,18.03-22.17,43.22-45.68,33.72-3.89,22.89,15.71,34.55,32.27,44.93,7.21-18.19,25.93-29.2,37.28-43.52,8.84-11.16,5.83-13.33,3.43-26.63ZM412.1,213.89c-30.97-30.26-39.32.3-50.33,25.25-9.46,21.43-25.52,73.78-42.03,87.19-16.62,13.51-73.23,28.73-94.65,29-8.34.11-16.39-2.32-24.63-2.88,1.25,2.89,1.9,3.58.11,6.35-3.1,4.79-54.49,32.95-17.85,29.96,31.5-2.57,70.1-13.28,102.96-17.84,14.26-1.98,44.26-1.78,54.82-8.39,11.43-7.15,33.71-45.11,41.42-58.31,6-10.27,10.81-22.44,16.9-32.26,1.52-2.44,3.64-7.7,7.42-6.59,4.47,1.3.07,9.3-.89,11.72-6.03,15.24-17.87,33.62-26.24,48.2-5.42,9.44-19.17,25.6-18.41,36.07,1.83,25.18,23.12,26.03,41.15,34.81,5.38,2.62,11.28,5.74,16.24,9.05,2.84,1.89,14.06,7.32,8.59,11.17-4.36,3.07-22.23-9.33-27.64-11.79-25.05-11.37-72.3-25.75-99.39-22.52-16.02,1.91-34.09,18.36-40.14,32.75.62,2.81,37.73,11.61,43.84,13.79,22.71,8.13,41.86,21.13,51.32,44.19,3.78,9.2-.78,9.29,10.09,15.2,38.83,21.1,111.15,21.3,121.95-32.69,10.16-50.76-32.89-92.4-40.24-141.69-5.18-34.78-7.06-73.06-34.38-99.75ZM297.39,325.75c-10.76-.31-20.57-10.53-27.4-18.25-15-16.94-36.55-60.95-55.5-68.11-21.03-7.94-32.68,6.45-41.48,23.09-20.74,39.22-20.28,74.58-33.36,114.11-11.42,34.51-44.8,73.44-17.19,109.28,28.46,36.94,107.63,6.93,147.56,4.2,2.28-.16,22.76-1.63,18.28,4.23-3.29,4.3-57.58,10.66-66.77,12.61-.29,3.69-.17,2.33,2.13,2.76,32.36,6.04,87.01,15.19,114.51-6.24,17.19-13.39,12.75-28.91-.08-43.52-22.52-25.66-89.73-36.59-122.9-40.05-4.71-.49-17.53,1.89-19.72-2.8-.41-4.63,3.21-5.28,7.07-5.64,13.46-1.25,30.48,4.32,43.93,1.74l22.82-28.42c-12.26.86-24.85,1.27-37.02,3-14.44,2.06-59,14.38-69.71,6.1-11.61-8.97,15.1-27.93,21.87-32.97,1.57-2.86-7.11-8.09,1.48-13.86,12.84-8.63,38.84,4.49,53.88-1.61l-37.83-44.04,3.61-3.6,45.04,44.61c10.88-1.97,22.25-3.79,32.68-7.55,1.44-.52,17.36-6.12,14.1-9.06ZM357.79,379.1c.64-.61-3.05-10.8-4.99-11.22l-10.42,6.31c-.02,1.9,14.73,5.56,15.42,4.91ZM349.37,506.91h44.95l-38.49-11.07-6.47,11.07Z"/>
</svg>