<?xml version="1.0" encoding="UTF-8"?>
<svg id="Capa_1" data-name="Capa 1" xmlns="http://www.w3.org/2000/svg" viewBox="0 0 600 600">
  <defs>
    <style>
      .cls-1 {
        fill: #18201a;
      }
    </style>
  </defs>
  <path class="cls-1" d="M432.65,247.65c-14.96-2.01-21.82-15.9-32.9-23.22-.96-.63-.92-1.77-2.1-.01-3.52,5.25-5.49,32.41-7.32,40.93-5.87,27.33-17.28,36.44-31.18,57.97-15.37,23.79-1.2,42.13-2.93,67.34-1.95,28.43-18.52,46.73-22.95,71.45-1.24,6.91,1.85,20.7-8.89,17.05-6.36-2.16.87-28.33,2.75-33.67,6.98-19.85,17.25-34.3,18.6-56.92,1.07-17.99-7.87-36.67-3.71-54.05,3.55-14.82,17.42-27.04,25.14-39.89,27.1-45.16-.44-92.52,62.53-114.72,17.61-6.21,48.04-12.7,66.42-10.92,39.45,3.81,49.36,49.5,13.25,65.96v1.54c5.41,3.75,5.02,8.13,6.31,13.64.23.96-.6,2.22,1.53,1.56,1.99-.61,10.2-7.1,12.09-8.89,37.83-35.68,10.94-95.19-40.38-91.77-35.38,2.36-58.84,22.88-96.24,10.21-33.12-11.22-55.01-29.44-93.61-29.19-37.09.24-60.71,19.58-92.87,29.94-39.6,12.75-67.09-12.92-104.36-11.01-42.98,2.2-64.19,52.2-37.16,85.49,3.07,3.78,13.19,13.53,17.39,15.14,1.7.65,1.3-.23,1.71-1.2,2.2-5.33,1.31-11.11,7.09-15.47-30.61-9.77-31.91-51.54-1.33-62.71,24.11-8.8,79.43,2.71,100.48,17.57,33.67,23.76,21.98,58.77,35.67,91.24,7.13,16.9,19.27,27.01,27.55,41.67,12.58,22.28-.54,44.36,1.28,67.95,1.61,20.89,10.79,34.32,17.57,52.7,2.8,7.59,9.21,28.8,4.56,35.31-1.96,1.27-7.52,1.33-8.33-1.12-1.91-5.76-1.27-15.05-3.02-22.15-4.6-18.58-16.44-33.07-19.92-54.55-3.41-21.08,1.54-30.98,2.83-50.05,1.73-25.53-14.5-33.26-26-52.63-14.23-23.95-14.1-48.45-20.14-74.79-11.58,8.47-19.54,21.09-34.48,24.24,2.19,38.2-44.63,52.4-71.46,29.79-3.81-3.21-6.74-8.39-9.93-11.04-8.72-7.26-18.09-9.6-27.3-19.9-30.59-34.18-17.18-92.95,28.03-104.14,44.38-10.99,77.26,23.59,121.42,7.1,38.65-14.43,55.91-31.89,102.27-28.82,36.31,2.41,54.29,19.71,85.2,30.17,45.08,15.26,96.27-33.74,139.23,3.41,30.85,26.68,29.59,71.37-.48,98.05-6.6,5.86-15.55,9.2-20.91,13.7-3.14,2.64-5.4,7.87-9.61,11.37-27.18,22.62-73.38,8.74-71.38-29.66ZM197.86,213.92c-10.61-18.46-34.01-25.11-53.68-29.68-19.03-4.42-50.06-11.47-63.2,7.74-8.28,12.11-1.16,26.14,10.97,31.9,10.66,5.07,15.42-1.33,25.79-2.49,18.01-2.02,32.67,3.73,45.14,16.5.81.15,13.19-5.86,14.79-6.92,7.8-5.15,9.46-15.56,20.2-17.06ZM440.5,234.23c12.57-11.35,23.89-14.6,40.94-12.82,9.96,1.04,14.54,7.29,24.45,3.21,17.42-7.16,21.97-27.9,5.51-39.46-16.34-11.47-48.9-3.18-67.06,2.03-14.97,4.3-35.58,10.67-41.9,26.08.52,1.8,8.05,4.23,10.08,6.26,1.54,1.53,2.57,4.43,4.53,6.49,6.02,6.31,11.97,8.23,19.62,11.88,2.34.24,2.59-2.55,3.84-3.68ZM117.89,232.04c-19.22,2.61-33.38,21.71-15.49,36.97,13.51,11.53,36.21,11.52,48.28-2.09,12.58-14.18,4.77-26.07-10.52-32.52-7.06-2.97-14.65-3.4-22.26-2.36ZM466.11,232.04c-17.46,2.53-30.51,19.71-17.09,35.42,13.22,15.48,47.98,11.62,55.33-7.67,2.74-7.2,1.91-10.72-2.84-16.5-8.52-10.35-22.57-13.11-35.4-11.26Z"/>
  <path class="cls-1" d="M194.42,171.17c2.92-.65,13.96.43,17.59.82,29.67,3.18,51.83,21.05,82.82,22.06,39.91,1.3,68.39-24.59,108.09-23.22,2.15.07,4.03.16,5.24,2.2,3.42,6.86-10.7,13.36-15.23,17.3-27.18,23.65-28.77,52.7-42.8,83.06-9.11,19.7-27.58,40.83-29.54,62.76-1.22,13.7,4.37,49.43-16.25,51.93-32.6,3.96-22.35-36.85-26.01-56.91-4.1-22.43-21.93-41.52-31.03-62.31-12.35-28.22-14.9-55.63-39.99-77.48-3.02-2.63-27.04-17.07-12.89-20.2ZM384.55,183.53c-19.91.82-36.75,12.56-55.77,17.11-20.89,4.99-41.26,4.96-62.14-.42-17.98-4.64-33.93-16.26-53.04-16.69l10.45,9.98c18.34,19.82,22.35,46.47,32.69,70.09,10.54,24.08,31.19,45.51,33.4,72.54.79,9.69-3.06,36.28,7.12,41.2,6.25,3.02,10.12-3.81,11.32-9.16,2.68-12.03-.22-23.9,1.64-36.12,3.72-24.5,21.24-43.31,31.19-65.31,8.25-18.26,12.25-39.19,22-56.67,5.59-10.03,13.35-18.31,21.16-26.55Z"/>
</svg>