<?xml version="1.0" encoding="UTF-8"?>
<svg id="Capa_1" data-name="Capa 1" xmlns="http://www.w3.org/2000/svg" viewBox="0 0 466.35 466.35">
  <defs>
    <style>
      .cls-1 {
        fill: #18201a;
      }
    </style>
  </defs>
  <path class="cls-1" d="M216.9,45.9c43.73-4.21,76.48,16.78,106.8,45.48,60.95,57.71,74.02,150.28,56.24,229.52-12.3,54.81-32.37,96.08-94.86,99.71C123.13,430.02,22.17,259.41,113.83,123.18c18.85-28.01,34.68-41.37,62.67-59.04,15.27-9.64,20.41-16.32,40.4-18.24ZM218.68,65.45c-41.52,4-78.52,43.72-97.69,78.22-66.28,119.25,11.42,251.3,145.41,258.25,64.3,3.33,81.63-26.37,94.17-83.5,16.8-76.57,4.51-162.81-55.52-217.25-25.08-22.74-50.95-39.12-86.37-35.71Z"/>
  <path class="cls-1" d="M255.09,165.83c72.7-8.79,72.3,130.69,13.1,152.59-54.99,20.34-87.47-39.65-76.09-86.76,6.63-27.43,33.45-62.26,62.99-65.83ZM255.96,184.47c-40.69,5.96-55.97,58.27-42.22,92.4,14.99,37.2,58.79,32.94,72.41-2.68,9.64-25.22,11.72-95.86-30.19-89.72Z"/>
  <path class="cls-1" d="M253.3,226.17c5.04-.75,10.43,2.69,9.96,8.17-.16,1.89-1.48,8.44-1.96,10.56-3.56,15.84-26.38,11.14-19.5-7.07,1.75-4.64,6.31-10.89,11.5-11.66Z"/>
</svg>