<?xml version="1.0" encoding="UTF-8"?>
<svg id="Capa_1" data-name="Capa 1" xmlns="http://www.w3.org/2000/svg" viewBox="0 0 466.35 466.35">
  <defs>
    <style>
      .cls-1 {
        fill: #18201a;
      }
    </style>
  </defs>
  <path class="cls-1" d="M308.85,75.06c-.56-1.06-1.41-1.78-2.47-2.07h0c-1.85-.52-6.13-.39-11.52-.18-1.75.07-3.26.13-4.29.13-1.37,0-9.43,2.49-9.51,2.52-23.47,7.36-40.09,30.03-43.14,58.36l-7.98-15.12c-9.79-15.9-27.71-35.37-57.49-37.89-.52-.04-1.08-.1-1.67-.16-5.23-.53-13.14-1.34-14.07,4.87-1.01,6.69,8.63,28.61,11.8,33.8,14.59,23.82,40.09,27.21,67.25,28.55,1.11,11.16.72,22.55-1.23,36.76-.58,4.22-1.53,8.58-2.45,12.79-2.11,9.72-4.3,19.76-2.45,29.66-22.37,5.15-37.12,28.18-41.88,49.04-7.12,31.22,1.3,64.54,22.52,89.14,2.16,2.5,4.73,4.87,7.22,7.17,2.72,2.51,5.54,5.11,7.74,7.82,1.05,1.29,2.01,2.85,3.03,4.5,2.4,3.9,4.88,7.92,8.87,8.81.52.12,1.05.17,1.59.17,1.88,0,3.87-.71,6.05-2.13,10.28-6.76,19.75-21.78,24.48-30.13,7.17-12.66,12.91-26.54,14.96-36.21,4.64-21.78,2.62-53.76-12.34-76.12-8.59-12.84-20.12-20.71-34.27-23.4-1.96-2.51,2.16-22.98,3.94-31.82,1.18-5.88,2.12-10.53,2.28-12.75.44-5.92.25-12.16.06-18.2-.15-4.87-.3-9.89-.12-14.69,2.23-.66,4.45-1.29,6.65-1.91,9.7-2.73,18.87-5.3,27.63-10.8,11.57-7.26,22.44-21.9,27.7-37.31,1.41-4.14,5.81-18.04,3.09-23.2ZM239.29,385.48c-1.35-.91-5.15-6.34-7.23-9.31-1.47-2.09-2.73-3.9-3.48-4.77-1.84-2.15-4-4.15-6.08-6.09-2.07-1.93-4.21-3.92-6-6.02-26.31-30.82-32.38-86.73-1.11-115.42,3.74-3.43,10.99-8.83,15.61-9.62h0c9.06-1.55,26.61,5.56,37.24,26.21,15.92,30.91,11.5,71.95-11.25,104.57-2.72,3.9-14.95,18.97-17.69,20.44ZM200.05,110.62l-.64.08c-1.89.23-2.62,1.19-2.89,1.95-.28.78-1.13,3.15,5.57,10.22,3.27,3.44,7.35,6.31,11.29,9.09,2.99,2.1,6.05,4.26,8.72,6.64-8.93-.55-22.9-2.73-34.27-10.47-12.41-8.45-17.31-23.26-22.04-37.59-.3-.9-.59-1.79-.89-2.68,32.25-1.1,54.08,22.28,64.47,46.03-.63-.41-1.25-.82-1.88-1.23-9.56-6.26-19.44-12.72-27.04-21.55l-.42-.49ZM266.84,120.75c5.08-4.42,10.33-9,14.52-14.44l.5-.65-2.17-3.56-.51-.11c-.08-.02-.16-.03-.25-.03-1.97,0-7.25,4.14-29.44,25.02-1.25,1.18-2.38,2.24-3.32,3.12,2.06-14.46,9.42-27.77,20.5-36.9,9.98-8.22,22.22-12.17,34.61-11.2-4.44,24.52-21.55,50.45-50.43,55.4,4.25-6.43,10.21-11.62,16-16.65Z"/>
  <path class="cls-1" d="M245.8,367.56c.1.02.21.03.32.03,4.73,0,13.57-20.78,13.95-21.68,9.4-22.23,10.73-42.49,3.94-60.2l-.29-.75-4.12-.12-.36.35c-.84.8-.83,2.42.81,13.06.38,2.5.75,4.86.79,5.73.76,14.67-3.52,28.61-7.25,37.72-.7,1.7-2.3,4.64-3.99,7.74-3.69,6.77-6.12,11.37-6.21,13.61-.08,1.96.62,4.11,2.39,4.5Z"/>
</svg>