<?xml version="1.0" encoding="UTF-8"?>
<svg id="Capa_1" data-name="Capa 1" xmlns="http://www.w3.org/2000/svg" viewBox="0 0 600 600">
  <defs>
    <style>
      .cls-1 {
        fill: #18201a;
      }
    </style>
  </defs>
  <path class="cls-1" d="M444.48,363.95c1.35,1.47,26.18-11.8,34.61-.42,12.18,16.44-22.41,36.51-31.01,47.18l29.39-2.14c5.6,1.13,10.6.94,14.32,5.83,12.89,16.91-14.55,26.86-26.27,31.15-37.21,13.6-84.08,29.27-122.09,39.85-28.45,7.92-42.05,1.88-69.01-5.99-46.3-13.52-82.51-35.86-131.34-18.01-4.65,1.7-18.03,9-20.82,9.28-6.21.61-10.53-3.47-4.51-8.22,7.56-5.95,52.11-18.37,62.15-18.2,9.94.17,26.57,5.16,36.67,7.82,37.26,9.84,74.45,28.77,113.23,28.07,44.97-15.84,94.23-27.15,138.64-43.7,5.51-2.05,21.51-8.04,17.49-16.14-4.92-5.37-11.27-5.12-18.03-4.78-49.47,2.49-93.69,28.43-145.81,18.61-19.03-3.59-38.72-12.06-58.3-13.68-6.93-.57-19.17,1.17-24.78-.4-6.98-1.95-.45-7.5,5.75-8.14,36.01-3.76,71.28,18.67,105.55,15.57,13.42-1.22,29.78-8.41,15.04-22.19-14.29-13.36-48.74-15.96-68.12-21.84-56.81-17.25-72.19-45.07-137.66-23.13-7.46,2.5-50.74,21.72-54.56,18-.74-3.99,1.59-4.35,4.35-5.84,19.38-10.45,65.85-26.64,87.43-27.72,48.21-2.41,94.65,38.62,145.12,40.82,18.94.82,39.15-20.55,54.21-29.84,5.27-3.25,9.99-4.86,16.33-3.51,3.15.67,6.48,4.4,8.65,4.47,6.62.21,23.07-17.19,23.41,7.25ZM412.09,361.56c-5.33-2.38-9.66.63-14.41,2.96l-41.96,26.99c12.78.21,28.54-7.28,39.61-13.76,7.18-4.2,13.52-8.08,16.77-16.2ZM368.9,398.74l8.98,8.04c13.12-6.17,55.07-26.97,58.86-40.4,1.36-4.84.02-7.25-5.11-5.09-10.3,4.33-25.81,18.67-37.18,25.21-8.08,4.64-16.96,8.64-25.55,12.25ZM472.97,367.84c-.82-.81-2.84-1.34-4.01-1.43-14.24-1.16-40.5,21.38-53.38,29.22-10.19,6.21-30.29,13.76-35.64,23.14-.65,1.15-3.45,5.5-2.64,6.34,18.36-3.66,44.49-5.19,60.38-15.78,6.26-4.17,28.87-24.58,33.18-30.39,2.1-2.83,5.28-7.98,2.11-11.1Z"/>
  <path class="cls-1" d="M338.55,111.04c1.44-.38,2.39,0,3.47.95,1.73,1.51,4.92,18.47,6.17,22.62,4.21,13.92,10.65,28.24,14.37,42,6.66,24.67.3,38.26-3.09,62.19-1.43,10.09-1.03,21.07-2.7,30.88-3.55,20.91-21.81,37.25-33.25,54.31-3.88,5.79-9.62,23.81-16.37,6.35-4.38-11.32-9.92-36.57-8.88-48.38,1.01-11.47,6.63-23.48,6.92-35.06.44-17.27-3.14-33.76-1.07-51.42,2.63-22.38,16.25-59.25,28.54-78.2,1.12-1.73,4.05-5.75,5.88-6.22ZM312.51,311.18c.64-14.16,6.49-27.71,9.24-41.75,5.68-29.02,4.64-58.89,6.38-88.36.84-14.17,2.47-28.44,3.57-42.58l-13.21,30.55c-12.85,27.01-3.72,55.89-5.93,84.01-.74,9.33-4.99,18.65-5.9,27.69s-.32,22.85,5.84,30.43ZM319.73,314.78c9.87-13.33,26.31-28.06,28.65-45.1,1.4-10.19,1.23-21.41,2.73-32.05,1.61-11.4,5.87-24.19,6.85-35.12,1.87-20.84-13.44-42.59-16.66-62.81l-3.44,15.13c-5.27,35.84-1.6,74.55-7.72,109.81-2.91,16.78-8.79,33.09-10.41,50.15Z"/>
  <path class="cls-1" d="M202.99,159.03c2.6-.64,4.57,1.44,6.38,2.82,17.26,13.16,55.05,55.83,63.77,75.37,12.47,27.95,8.65,52.37,9.34,81.81.09,3.85,3.99,16.08-1.92,17.16-2.12.39-18.9-14.26-22.59-16.65-12.62-8.17-27.51-12.62-37.12-25.26-18.92-24.88-10.84-59.73-13.91-89.23-.96-9.18-8.69-37.12-6.94-42.94.44-1.45,1.6-2.53,2.99-3.08ZM274.12,306.38c1.35-17.02,1.33-32.53-2.99-49.16-8.63-33.22-35.63-56.35-59.36-79.16-.19,10.53,3.03,21.37,3.64,31.73,1.68,28.57-6.03,60.4,16.16,83.39l38.98,23.98c-4.05-8.33-7.1-17.18-10.97-25.6-7.98-17.38-19.44-34.02-26.78-51.18-1.03-2.42-11.19-25.7-3.65-23.94l44.99,89.94Z"/>
  <path class="cls-1" d="M458.56,214.25c1.95-.57,4.24-.46,4.98,1.77,1.4,4.27-8.27,23.21-10.36,28.9-5.94,16.17-9.08,31.04-19.22,45.55-21.04,30.11-51.97,27.58-78.82,48.33-1.65,1.27-12.88,13.63-11.26,3.22.38-2.44,9.81-14.16,11.87-20.59,4.98-15.55,5.71-29.88,13.13-45.64,19.79-42.05,51.33-43.81,89.68-61.53ZM370.1,319.56c23.53-8.72,45.91-15.44,59.74-38,10.21-16.65,13.55-36.35,20.62-54.33-13.63,7.48-29.57,9.65-43.2,17.37-20.91,11.84-34.47,34.82-39.03,58.12-.24,1.24-1.7,5.04.65,4.85,11.14-17.52,25.83-35.37,41.37-49.19,2.59-2.31,15.89-14.56,18.63-10.76.14.93.02,1.83-.2,2.74-.95,3.98-19.35,19.46-23.82,24.2-12.97,13.74-25.25,28.64-34.76,44.99Z"/>
</svg>