<?xml version="1.0" encoding="UTF-8"?>
<svg id="Capa_1" data-name="Capa 1" xmlns="http://www.w3.org/2000/svg" viewBox="0 0 466.35 466.35">
  <defs>
    <style>
      .cls-1 {
        fill: #18201a;
      }
    </style>
  </defs>
  <path class="cls-1" d="M312.37,117.2c-2.84-2.52-6.12-1.15-8.51-.16-.98.41-1.9.79-2.7.93-4.52.78-9,1.3-13.32,1.8-13.49,1.57-26.23,3.05-38.65,11.83-5.79,4.1-10.05,8.94-14.2,14.11,3.34-13.68,9.22-26.64,14.94-39.23,3.66-8.05,7.44-16.38,10.53-24.83,1.29-3.51,2.29-7.19,3.27-10.74.9-3.28,1.83-6.67,2.97-9.86.54-1.52,1.81-4.32,3.15-7.28,4.11-9.06,6.77-15.2,6.38-17.92-.24-1.68-.94-2.8-2.35-3.75l-.75-.51-.86.31c-24.03,8.58-41.08,32.16-42.43,58.67-.28,5.55.39,11.22,1.04,16.7.71,5.96,1.44,12.11.87,17.9-.67,6.88-2.87,14.02-5.19,21.57-1.25,4.06-2.52,8.19-3.55,12.33l-2.74-22.62-.05-.24c-1.46-5.57-2.97-10.99-5.32-15.96-1.48-3.12-16.33-27.79-19.14-30.11-2.22-1.83-4.18-2.34-5.83-1.51-3.26,1.65-3.19,7.76-2.84,13.87.03.45.05.85.06,1.19.37,8.3,2.14,29.4,10.6,45.96,1.76,3.45,4.14,6.89,6.43,10.22,2.83,4.1,5.76,8.34,7.42,12.47,1.58,3.91,2.07,7.82,2.6,11.96.23,1.8.46,3.66.79,5.54l.42,2.4,1.27-.64-3.1,37.99-15.84-38.44-.16-.31c-1.49-2.26-2.85-4.69-4.16-7.04-1.12-2-2.27-4.07-3.53-6.07-1.58-2.52-14.31-21.86-16.99-24.05-1.56-1.28-3.56-1.86-5.93-1.7l-1.62.11-.06,1.62c-.06,1.52-.1,3.53.13,5.6,1.28,11.9,9.05,44.62,14.42,55.85,4.28,8.93,9.97,13.59,15.48,18.09,3.39,2.77,6.9,5.64,10.14,9.55,6.94,8.36,7.05,17.24,7.17,27.52.04,3.3.08,6.71.36,10.22.44,5.58,1.15,11.27,1.83,16.77.06.5.12,1.01.19,1.51l-22-35.78-.24-.3c-3.38-3.51-28.42-22.78-32.17-24.44-2.36-1.04-4.24-1.09-5.57-.16-1.24.87-1.79,2.4-1.65,4.56.23,3.49,10.57,21.16,11,21.91,8.33,14.21,16.17,24.21,23.95,30.58,2.5,2.05,5.87,4.21,9.44,6.49,6.48,4.15,13.82,8.85,16.48,13.39,3.89,6.62,4.94,16.11,5.96,25.28.5,4.54,1.02,9.18,1.89,13.52-1.12-1.47-2.18-3.02-3.27-4.62-1.6-2.34-3.26-4.77-5.15-6.96-9.01-10.43-16.21-15.57-28.52-20.37-15.73-6.14-25.31-8.08-28.47-5.78-1.32.96-1.58,2.06-1.57,2.82.03,2.15,2.24,3.68,4.01,4.91.44.31,1.05.73,1.2.89,1.77,2.02,3.47,3.99,5.12,5.92,10.38,12.09,19.34,22.53,36.05,29.54,3.4,1.43,6.44,2.4,9.11,3.27,9.15,2.95,13.74,4.43,17.04,17.96,2.46,10.11,4.03,20.7,5.54,30.95.96,6.52,1.96,13.25,3.18,19.81l.12.64.5.42c1.38,1.14,2.55,1.51,3.49,1.51.61,0,1.11-.15,1.52-.36,1.68-.84,2.57-3.04,2.45-6.05-.52-12.14-3.62-24.9-6.61-37.25-2.63-10.84-5.36-22.05-6.21-32.52-1.61-19.58,9.87-27.77,23.15-37.25,4.45-3.17,9.05-6.46,13.36-10.33,2.87-2.58,24.26-24.08,24.6-33,.06-1.7-.58-2.75-1.14-3.32l-.51-.54-.74-.02c-3.45-.05-6.14,1.85-8.51,3.56-1.11.8-2.16,1.56-3.25,2.11-1.91.97-3.83,1.92-5.74,2.87-15.4,7.63-31.33,15.52-39.95,32.49-1.64,3.23-2.83,6.68-3.97,10-.58,1.68-1.14,3.32-1.76,4.92-.43-2.94-.9-5.87-1.35-8.75-1.36-8.6-2.77-17.5-3.24-26.14-.6-11.11-.82-15.27,8.03-21.38,4.48-3.09,9.9-5.29,15.14-7.41,4.14-1.68,8.42-3.41,12.33-5.61,10.23-5.74,28.93-20.91,36.17-30.43.16-.21.33-.42.49-.63,1.17-1.47,2.62-3.31,2.31-6.08l-.05-.25c-.24-.93-.8-1.66-1.63-2.11-2-1.08-4.97-.09-7.14.64-.44.15-.83.28-1.12.36-20.96,5.42-44.48,12.71-58.35,30.68l-8.19,12.82v-22.91c.75-3.06.88-5.58.99-7.81.2-3.97.35-6.84,3.64-11.16,6.05-7.95,14.45-9.85,23.35-11.86,3.37-.76,6.85-1.55,10.29-2.68,14.28-4.7,23.5-13.65,31.35-22.62,1.31-1.5,12.74-14.75,10.94-18.52-.43-.91-1.35-1.4-2.46-1.38h-.13c-5.63.64-10.68,2.65-15.56,4.59-2.4.96-4.88,1.94-7.35,2.73-2.45.78-4.84,1.5-7.17,2.21-18.15,5.51-32.54,9.88-44.54,27.89.25-1.95.47-3.9.7-5.82.61-5.2,1.24-10.58,2.18-15.77,4.94-27.4,16.61-29.28,32.77-31.88,8.49-1.36,18.1-2.91,27.97-8.58,2.13-1.22,25.23-16.66,25.46-23.62l.03-.85-.63-.56ZM291.74,127.53l-8.53,6.31c-7.61,5.32-16.32,6.82-25.54,8.4-2.6.45-5.26.9-7.9,1.46,10.81-10.67,25.42-14.09,41.97-16.16ZM248.99,59.08c1.86-2.32,9.8-10.19,14.64-13.92-3.88,8.35-6.61,17.18-9.27,25.77-2.04,6.58-4.14,13.39-6.69,19.75l-8.06,17.07c-1.88-16.14-1.69-34.9,9.38-48.67ZM212.1,354.89c-15.11-5.48-26.14-13-36.22-24.51-.88-1-2.01-2.4-2.99-3.68,13.97,4.6,25.21,10.24,34.01,20.83l5.2,7.36ZM238.4,323.44c6.69-17.18,22.93-26.96,39.23-34.07-1,1.51-2.11,3.06-2.68,3.77-5.9,7.28-14.04,13.2-21.91,18.92-4.96,3.61-10.04,7.3-14.65,11.38ZM213.77,158.72c-12.84-15.74-16.48-35.03-17.71-52.84,10.59,14.78,16.54,32.51,17.71,52.84ZM202.66,228.57c-6.45-5.4-12.22-11.36-15.9-19.57-4.25-9.47-6.65-20.42-8.82-31.2l14.21,24.08,10.51,26.69ZM201.19,293.55c-13.35-8.48-24.08-21.32-32.62-39,15.52,11.74,26.26,24.58,32.62,39ZM231.96,263.35c10.86-16.43,28.28-24.02,45.13-28.82-13.24,14.13-30.35,22.78-45.13,28.82ZM235.27,206c2.05-2.48,5.21-5.69,6.98-7.18,8.57-7.25,19.81-10.71,30.69-14.05,3.27-1.01,6.6-2.03,9.88-3.17-4.47,5.32-10,10.84-16.58,14.45-5.91,3.25-12.49,4.89-18.85,6.48-4.01,1-8.11,2.03-12.12,3.46Z"/>
</svg>