<?xml version="1.0" encoding="UTF-8"?>
<svg id="Capa_1" data-name="Capa 1" xmlns="http://www.w3.org/2000/svg" viewBox="0 0 466.35 466.35">
  <defs>
    <style>
      .cls-1 {
        fill: #18201a;
      }
    </style>
  </defs>
  <path class="cls-1" d="M263.72,230.06h-.2s-.19.08-.19.08c-13.32,5.49-27.21,12-38.6,22.39-3.06,2.79-5.35,5.73-7.56,8.56-1.29,1.65-2.61,3.36-4.08,5.01,7.3-23.13,15.99-39.13,26.56-48.9,24.41-22.57,29.63-29.12,40.6-60.83l.41-1.16c5.53-15.63,5.25-17.64,4.37-18.53l-.24-.24-.34-.05c-2.3-.33-3.94.21-5.99,1.24-18.02,9.08-33.78,26.83-42.18,47.48-4.18,10.29-7.99,20.98-11.66,31.31-5.18,14.56-10.53,29.6-17.06,43.85-.04-.59-.03-1.5.09-2.88.02-.25.04-.46.05-.61.1-1.84.22-3.73.34-5.65,1.46-23.71,3.28-53.21-17.31-69.17l-.31-.24-.39.03c-.86.07-2.03.16-5.11,11.53-1.48,5.46-2.82,11.47-3.09,13.21-1.9,12.14-1.13,20.28,3.05,32.24,1.51,4.32,4.55,10.06,7.49,15.62,3.56,6.74,7.24,13.7,8.13,17.96.87,4.21.05,11.85-.75,19.24-.61,5.61-1.24,11.42-1.09,15.67.12,3.73.95,14.66,2.18,18.31.57,1.68,1.07,2.86,2.82,4.09l.65.45.59-.52c3.86-3.39,3.06-7.6,2.35-11.31-.27-1.41-.52-2.75-.54-4.01-.26-22.26,7.43-26.19,19.08-32.16,5.23-2.67,11.15-5.71,17.39-10.9,7.2-5.99,21.16-23.77,23.51-32.75.87-3.35.78-5.74-.27-7.12-.43-.56-1.24-1.23-2.69-1.24ZM234.62,211.65c2.21-5,3.98-9.9,5.7-14.66,4.45-12.32,8.66-23.96,19.49-34.21,1.75-1.65,9.6-7.86,12.94-9.79-4.37,14.76-9.74,30.11-20.92,43.18-2.75,3.22-13.2,13.29-17.21,15.47ZM254.29,243.59c-.31,1.23-1.72,4.28-7.53,11.26-4.67,5.61-9.88,10.98-11.43,12.22-2.31,1.85-16.55,10.37-21.71,12.77,9.42-19.53,26.96-30.43,40.67-36.26ZM193.2,195.95c8.77,16.18,8.24,34.64,7.72,52.51-.08,2.66-.16,5.39-.2,8.1-.34-.7-.64-1.46-.84-1.97-.16-.41-.31-.79-.45-1.09-8.56-19.2-15.45-38.07-6.23-57.55Z"/>
</svg>