<?xml version="1.0" encoding="UTF-8"?>
<svg id="Capa_1" data-name="Capa 1" xmlns="http://www.w3.org/2000/svg" viewBox="0 0 466.35 466.35">
  <defs>
    <style>
      .cls-1 {
        fill: #18201a;
      }
    </style>
  </defs>
  <path class="cls-1" d="M221.45,101.46c9.18-8.78,19.01-6.96,26.72,2.43,33.68,56.48,76.63,102.02,51.59,172.9-7.55,21.36-35.24,66.67-49.93,84.32-12.14,14.6-24.17,11.02-35.59-2-10.35-11.81-29.07-41.42-37.66-55.69-20.17-33.52-21.76-66.54-10.57-103.74,8.08-26.86,24.62-47.7,39.13-71,4.96-7.98,9.8-21,16.31-27.22ZM232.33,106.52c-5.78,1.22-12.67,17.39-16.06,22.8-25.23,40.25-51.16,70.8-47.68,122.32,2.29,33.81,19.53,50.54,36.78,76.49,7.91,11.9,20.97,47.2,39.21,25.64,27.72-46.39,64.03-84.96,50.45-143.61-6.74-29.09-27.02-55.24-42.92-79.79-3.28-5.06-10.93-21.47-15.32-23.5-1.62-.75-2.76-.71-4.46-.35Z"/>
  <path class="cls-1" d="M234.22,138.86c2.13-.46,4.75,6.21,5.59,8,15.07,31.9,31.11,80,28.51,115.26-1.07,14.43-14.36,53.67-21.15,66.96-9.18,17.97-24.95,15.55-32.13-2.22-5.84-14.43-19.11-54.57-20.17-68.99-2.76-37.56,14.68-66.1,29.54-98.4,1.61-3.49,6.86-19.99,9.81-20.62ZM235.76,160.87c-2.4-.42-1.67.14-2.34,1.35-12.59,22.82-29.74,59.13-30.23,85.16-.33,17.61,7.31,32.56,12.12,48.8,2.49,8.42,4.51,27.26,9.94,33.06,7.06,7.52,13.58-1.47,16.27-7.9,13.28-31.73,22.67-60.79,15.78-95.47-4.51-22.66-15.42-43.08-21.54-65Z"/>
  <path class="cls-1" d="M232.31,209.29c7.98-2.4,10.37,11.04,11.54,16.39,4.04,18.47,5.24,41.63.84,60.01-3.24,13.52-9.45,30.15-18.56,8.05-7.34-17.83-5.77-39.89-2.63-58.6.81-4.85,4.13-24.45,8.8-25.85ZM234.7,293.02c4.77-22.49,5.56-45.86-.51-68.18-2.24,14.76-5.06,29.62-4.77,44.64l5.28,23.54Z"/>
</svg>