<?xml version="1.0" encoding="UTF-8"?>
<svg id="Capa_1" data-name="Capa 1" xmlns="http://www.w3.org/2000/svg" viewBox="0 0 600 600">
  <defs>
    <style>
      .cls-1 {
        fill: #18201a;
      }
    </style>
  </defs>
  <path class="cls-1" d="M328.1,87.55c40.62-.62,74.31,13.29,110.11,30.28,45.07,21.38,66.48,47.77,85.15,93.55,19.1,46.82,22.01,105.82,7.5,154.29-11.48,38.33-45.77,77.34-77.74,100.38-36.92,26.6-65.76,41.9-112.35,45.9-37.79,3.25-72.9-9.35-108.18-20.86-59.38-19.38-133.9-48.43-157.65-111.56-15.85-42.13-25.81-104.46,5.71-141.75,11.41-13.5,28.69-20.61,41.45-32.71,25.12-23.82,47.8-48.56,75.64-69.77,41.56-31.67,77.09-46.93,130.37-47.74ZM322.84,95.14c-64.56,3.05-105.96,30.91-150.55,74.27-14.35,13.96-29.1,30.58-43.77,43.82-13.67,12.35-31.05,19.06-41.94,34.56-22.06,31.38-17.25,73.03-8.58,108.23,10.84,44.03,28.18,61.74,65.53,85.14,41.74,26.14,93.09,42.77,140.65,55.56,47.26,12.71,97.09,6.85,138.59-19.57,33.92-21.59,61.73-44.47,83.56-78.78,38.85-61.04,31.66-141.88,1.84-205.1-22.92-48.59-57.7-63.24-104.23-83.22-25.47-10.94-53.29-16.22-81.1-14.91Z"/>
  <path class="cls-1" d="M320.5,109.16c44.84-2.53,102.13,17.72,137.62,44.81,64.27,49.07,80.61,126.27,54.62,201.77-13.11,38.08-32.63,55.57-61.32,81.76-26.76,24.43-43.68,38.82-80.48,46.82-34.02,7.39-84.56-1.49-118.76-9.34-34.21-7.86-71.62-33.24-100.51-53.07-43.19-29.64-56.84-56.03-54.15-109.42,2.63-52.27,25.2-76.16,58.4-112.12,19.5-21.12,35.82-38.74,61.15-53.3,33.58-19.3,63.61-35.66,103.41-37.91ZM319.34,115.58c-41.34,2.29-70.1,19.43-103.07,42.33-25.16,17.48-47,39.04-67.03,62.03-24.14,27.7-35.63,48.65-39.4,86.15-5.52,54.75,5.4,77.71,49.45,108.22,31.69,21.96,63.15,44.88,101.78,52.39,31.97,6.22,77.92,15.6,109.33,8.28,28.9-6.74,44.77-16.29,66.46-35.74,29.29-26.27,54.95-48.23,67.9-86.86,20.07-59.88,15.02-117.11-24.71-167.18-34.33-43.27-105.9-72.67-160.69-69.63Z"/>
  <path class="cls-1" d="M322.84,129.02c50.81-2.9,95,20.03,131.51,53.26,36.29,33.02,57.81,62.29,50.11,114.38-4.26,28.81-16.63,45.42-30.37,69.49-13,22.79-20.92,42.42-41.67,59.95-58.2,49.15-140.03,41.23-205.63,11.8-15.11-6.78-25.92-15.88-39.12-25.12-25.8-18.05-48.13-28.76-58.76-60.96-13.04-39.51,4.5-98.07,31.68-128.66,14.47-16.29,38.08-36.53,55.21-50.49,28.7-23.38,69.69-41.51,107.02-43.64ZM323.42,136.02c-39.45,2.06-78.82,21.15-108.5,46.25-21.07,17.82-49.1,41.44-62.57,65.32-15.97,28.29-26.76,71.63-15.09,102.9,10.29,27.57,30.75,37.15,53.33,52.95,13.91,9.74,24.73,18.79,40.71,25.86,64.65,28.58,138.62,34.81,195.02-13.99,18.26-15.79,24.99-33.1,36.68-53.25,13.6-23.45,26.28-39.51,30.37-67.74,6.64-45.93-7.54-67.83-37.84-99.2-33.69-34.88-82.37-61.68-132.11-59.09Z"/>
  <path class="cls-1" d="M324.01,150.62c20.09-1.93,48.22,7.12,66.5,15.49,39.71,18.19,90.38,50.97,89.55,100.29-.4,23.47-15.3,74.74-28.16,94.47-10.51,16.12-46.23,47.97-63,57.88-41,24.24-94.3,18.58-136.58,1.2-46.85-19.26-96.05-40.57-99.9-98.66-1.49-22.47,12.95-63.42,24.66-82.84,16.98-28.15,58.31-51.79,87.67-65.92,16.59-7.98,41.18-20.18,59.25-21.92ZM327.51,158.22c-24.83,1.15-69.26,25.41-90.92,38.71-36.25,22.26-51.94,33.25-66.63,74.69-8.32,23.49-13.4,39.48-6.83,64.67,10.17,39,39.48,51.89,73.02,67.14,36.29,16.5,59.92,25.29,101.12,22.08,40.67-3.16,77.08-33.24,103.09-62.76,17.96-20.38,27.3-61.66,28.59-88.21,1.73-35.76-13.76-53.26-40.59-74.44-23.97-18.93-69.8-43.33-100.83-41.89Z"/>
  <path class="cls-1" d="M324.01,178.07l6.86-.2c28.87.89,54.05,11.96,77.88,27.23,21.35,13.68,39.79,28.03,45.89,53.97,4.8,20.42-4.58,32.75-12.08,49.84-7.33,16.71-12.51,32.77-23.36,47.88-18.43,25.68-70.26,51.83-101.76,51.81-29.26-.02-86.68-20.54-108.36-40.6-15.07-13.95-29.85-35.3-28.63-56.68,3.57-62.41,82.68-131.18,143.55-133.25ZM317.59,186.25c-31.49,2.57-77.47,32.73-97.38,56.78-17.24,20.82-39.68,57.52-29.66,85.11,14.2,39.08,63.66,60.13,101.58,67.78,39.43,7.95,73.05-7.67,104.02-30.66,18.83-13.98,28.35-40.03,37.85-60.84,4.34-9.5,9.95-17.8,11.92-28.38,3.68-19.81-12-38.47-26.32-50.24-28.85-23.71-63.26-42.72-102-39.55Z"/>
  <path class="cls-1" d="M321.09,200.85c18.1-.8,53.89,7.09,70.93,13.98,16.69,6.75,33.92,28.23,37.05,45.88,6.63,37.4-15.64,62.29-39.26,87.12-12.01,12.63-19.55,21.81-37.2,27.03-28.49,8.43-49.88,6.67-78.24-.9-25.45-6.79-41.67-16.1-53.82-40.2-18.14-35.98,15.59-88.9,44.08-110.53,14.11-10.71,38.65-21.59,56.46-22.38ZM314.66,208.44c-16.69,1.7-38.75,13.76-51.54,24.37-23.77,19.72-51.86,68.63-35.26,98.89,7.59,13.84,15.48,21.59,29.89,27.93,29.75,13.09,67.91,16.53,98.48,4.27,16.56-6.64,42.64-37.25,52.69-52.42,23.21-35.02,12.39-73.01-26.26-89.04-21.54-8.93-44.25-16.41-68-13.99Z"/>
  <path class="cls-1" d="M319.34,221.87c14.96-1.52,42.05,5.28,55.99,11.41,5.74,2.52,21.81,10.64,25.29,15.01,4.73,5.94,9.27,19.88,8.76,27.43-1.82,27.03-30.45,65.18-55.74,75.07-26.52,10.36-72.98,13.4-94.92-7.88-29.55-28.66-15.59-71.48,12-95.49,12.33-10.73,32.05-23.85,48.62-25.54ZM319.33,229.46c-15.48,1.75-33.5,13.87-44.84,24.07-16.24,14.6-31.17,45.26-20.91,66.48,17.54,36.28,56.92,32.85,90.41,24.64,23.47-5.76,46.61-38.15,52.84-60.45,3.84-13.74,1.34-28-10.85-36.45-14.24-9.87-49.6-20.21-66.65-18.29Z"/>
  <path class="cls-1" d="M322.25,242.89c18.83-2.14,31.13,4.54,47.03,12.21,7.38,3.56,13.83,3.14,16.47,12.73,9.68,35.29-35.02,61.55-63.06,69.53-35.98,10.23-71.99-27.6-50.08-60.6,7.59-11.43,36-32.32,49.64-33.87ZM321.65,248.72c-9.31,1.27-28.84,17.31-36.07,24.08-21.09,19.73-12.38,48.97,14.31,56.96,13.69,4.1,23.47-.08,35.91-5.57,18.4-8.12,47.5-30.37,41.91-53.57-1.49-6.2-6.82-7.88-12.1-10.67-12.57-6.64-29.51-13.19-43.95-11.22Z"/>
  <path class="cls-1" d="M326.34,261c11.6-1.07,23.82,4.27,32.79,11.25,9.91,7.71,8.06,20.57-.85,28.28-9.29,8.04-30.23,19.15-42.61,18.11-14.12-1.19-25.99-15.92-22.32-29.9,2.95-11.26,21.42-26.67,32.99-27.74ZM326.32,267.41c-7.15.97-17.41,10.6-21.71,16.25-11.32,14.89,6.8,30.31,21.85,26.53,7.24-1.82,22.85-12.05,28.05-17.5,5.74-6.02,3.26-11.19-1.48-16.68-6.46-7.49-17.05-9.91-26.72-8.6Z"/>
  <path class="cls-1" d="M331.58,275c5.41-.72,17.55,3.51,17.13,10.07-.04.55-1.9,5.31-2.27,5.96-2.1,3.79-8.12,3.35-11.63,5.3-4,2.21-5.06,5.83-10.96,5.4-6.47-.48-13.56-8.54-10.35-15.03,1.94-3.94,13.75-11.12,18.09-11.69ZM331.56,280.24c-2.72.46-13.35,6.99-13.77,9.62-.46,2.91,5.22,5.77,7.65,5.33,1.13-.2,5.57-4.07,7.81-5.08,2.34-1.06,9.68-2.59,10.76-3.84.45-.52.79-.83.28-1.49-3.21-3.29-8.13-5.31-12.74-4.53Z"/>
</svg>