<?xml version="1.0" encoding="UTF-8"?>
<svg id="Capa_1" data-name="Capa 1" xmlns="http://www.w3.org/2000/svg" viewBox="0 0 600 600">
  <defs>
    <style>
      .cls-1 {
        fill: #18201a;
      }
    </style>
  </defs>
  <path class="cls-1" d="M60.73,327.06c3.66-38.6,27.34-76.5,54.68-101.54,27.02-24.74,60.71-50.78,93.13-67.84,48.02-25.26,94.42-49.63,148.96-57.51,31.92-4.61,65.26-7.48,95.43,6.37,58.98,27.09,95.59,119.48,84.56,181.29-5.64,31.63-26.56,72.62-49.68,95.03-14.74,14.29-36.02,23.64-53.88,33.54-15.99,8.87-29.83,21.19-44.6,31.88-25.4,18.39-66.34,46.59-96.95,52.64-88.62,17.52-173.88-53.86-218.47-124.8-7.6-12.09-14.52-35.02-13.19-49.08ZM67.88,312.62c-4.97,32.5,34.13,90.01,34.67,90.65,45.9,54.59,118.14,102.11,192.72,87.66,27.87-5.4,68.22-33.02,91.46-49.8,13.51-9.76,26.92-21.56,40.95-30.38,21.01-13.2,45.48-21.28,63-39.71,18.88-19.86,37.37-55.38,41.89-82.4,9.63-57.53-26.77-140.01-79.88-166.26-30.66-15.15-58.69-11.52-91.19-7.91-47.2,5.24-82.64,21.54-124.05,42.98-22.3,11.55-45.39,23.62-66.15,37.75-17.87,12.17-35.44,26.33-51.89,40.35-20.86,17.78-47.29,49.35-51.53,77.06Z"/>
  <path class="cls-1" d="M95.96,300.71c3.92-27.93,40.9-57.93,62.05-74.93,72.64-58.38,164.58-112.3,261.8-94.62,25.65,4.67,45.46,16.04,61.98,36.03,28.47,34.44,37.06,90.74,18.18,131.62-23.78,51.5-68.89,62.46-113.53,88.93-44.15,26.18-93.1,70.66-148.33,56.14-38.63-10.15-88.66-46.05-115.65-75.32-16.5-17.9-30.05-42.63-26.51-67.86ZM108.47,333.77c7.83,20.18,42.01,47.44,60,59.81,22.93,15.77,55.5,34.35,83.1,38.79,47.54,7.65,93.6-32.8,131.76-55.67,42.65-25.56,98.62-40.62,116.05-92.83,16.33-48.92-15.9-116-66.21-130.86-88.81-26.23-184.94,20.33-254.57,72.03-22.11,16.42-51.35,38.57-68.17,60.08-2.97,3.8-6.78,9.58-7.49,14.25-2.04,13.53,3.61,29.42,5.53,34.39Z"/>
  <path class="cls-1" d="M136.98,302.08c2.11-9.06,6.76-18.23,12.35-25.62,17.47-23.09,49.66-32.13,74.38-45.35,28.06-15.01,55.85-31.17,85.77-42.43,38.49-14.49,88.34-33.4,128.74-15.5,27.31,12.09,48.9,50.06,42.88,79.75-2.65,13.06-13.48,30.44-23.89,38.71-14.15,11.24-29.01,20.53-45.43,28.12-8.58,3.96-17.56,6.02-26.01,10.33-9.11,4.65-24.25,12.87-32.02,19.04-17,13.5-31.25,28.15-49.63,40.3-11.63,7.69-33.32,20.22-47.44,18.23-25.13-3.53-59.98-26.53-79.97-42.19-11.86-9.29-35.75-33.28-40.12-47.45-1.83-5.96-1.02-9.89.39-15.93ZM140.76,308.12c-.77,8.05,3.4,12.95,8.18,18.57,19.63,23.13,42.11,39.94,68.55,54.82,14.1,7.94,38.9,19.61,54.67,14.23,26.22-8.94,44.75-25.03,65.58-42.31,15.86-13.15,29.47-23.16,47.84-32.8,8.09-4.25,16.33-6.16,24.48-9.74,17.04-7.48,32.19-17.63,46.63-29.26,19.47-15.68,24.28-36.11,13.33-58.46-15.06-30.75-34.34-41.66-68.81-42.56-33.74-.88-63.7,10.65-94.52,22.44-29.02,11.1-56.29,26.49-83.58,41.05-22.5,12.01-57.27,22.67-72.64,43.25-3.52,4.72-9.15,15.03-9.7,20.76Z"/>
  <path class="cls-1" d="M192.3,280.31c16.14-11.52,33.95-11.43,52.26-16.64,30.15-8.58,60.98-20.46,87.38-37.45,22.18-14.28,38.08-25.44,64.02-33.22,36.69-11,55.35,24.74,37.27,54.41-9.44,15.49-32.89,24.41-48.48,32.4-23.44,12.02-47.63,26.34-68.95,41.81-17.82,12.93-33.08,28.29-54.65,35.36-28.47,9.34-53.07-7.17-71.94-26.92-5.77-6.04-11.54-13.26-11.33-22.74.31-14.26,8.45-22.76,14.41-27.01ZM183.34,307.15c-.14,1.08,1.64,7.44,5.03,11.07,14.36,16.33,29.19,25.43,50.65,29.09,28.72,4.9,56.2-21.57,77.89-36.72,21.65-15.13,45.57-29.51,68.95-41.81,17.37-9.14,55.58-22.78,46.66-48.44-5.45-15.66-23.94-17.58-37.82-13.55-26.68,7.73-41.9,19.02-64.23,34.11-26.45,17.87-57.87,29.46-88.47,38.14-17.44,4.94-35.67,5.53-51,16.22-1.45,1.01-6.74,4.61-7.65,11.89Z"/>
</svg>