<?xml version="1.0" encoding="UTF-8"?>
<svg id="Capa_1" data-name="Capa 1" xmlns="http://www.w3.org/2000/svg" viewBox="0 0 466.35 466.35">
  <defs>
    <style>
      .cls-1 {
        fill: #18201a;
      }
    </style>
  </defs>
  <path class="cls-1" d="M373.51,155.49l-.72-.5-.69.54c-1.99,1.54-3.78,3.08-5.51,4.58-3.33,2.87-6.48,5.59-10.67,7.95-9.6,5.41-20.03,9.42-31.07,13.65-11.13,4.27-22.64,8.69-33.13,14.66-40.91,23.31-55.43,54.99-64.62,95.38l-3.14,5.86c0-2.69.06-5.39.12-8.04.11-4.61.23-9.38-.04-14.05-.21-3.64-.92-7.82-1.68-12.24-1.16-6.81-2.37-13.86-1.64-18.87,1.77-12.22,12.26-24.98,22.4-37.32,5.13-6.24,9.98-12.14,13.48-17.73,12.73-20.33,16.62-39.72,21.11-62.17l.23-1.13c.76-3.8,1.68-8.12,2.66-12.69,3.31-15.5,7.06-33.07,7.86-45.24.18-2.7-.37-4.35-1.67-5.04-1.27-.68-2.88-.25-4.91,1.31-1.88,1.44-4.16,4.13-6.57,6.97-2.08,2.45-4.22,4.98-6.09,6.66-7.22,6.52-15.08,12.67-22.67,18.62-24.89,19.5-50.62,39.65-57.17,75.45-4.5,24.59,2.41,36.23,11.97,52.33,2.02,3.39,4.1,6.91,6.25,10.82,13.51,24.57,8.93,68.02,5.9,96.77l-.24,2.31c-.31,2.91-.51,5.87-.65,8.66l-3.22-14.65c-.75-4.17-1.46-8.49-2.16-12.66-4.22-25.48-8.59-51.83-24.13-72.95-12.89-17.52-31.64-27.32-49.77-36.8-5.63-2.94-11.46-5.99-17.03-9.22-.97-.56-3.27-2.09-5.93-3.86-12.56-8.34-14.94-9.61-16.11-9.38l-.37.07-3.03,3.09.23.7c2.23,6.72,4.33,13.79,6.37,20.62,10.59,35.53,21.55,72.28,56.32,91.39,4.22,2.32,9.09,4.33,14.24,6.47,12.52,5.18,25.47,10.54,31.19,20.97,4.43,8.09,9.26,34.2,10.18,45.26.12,1.38.08,4.83.05,8.83-.16,17.12.17,21.27,1.71,22.21l.25.11c.8.26,1.51.4,2.15.4.75,0,1.39-.18,1.93-.54,1.63-1.08,1.81-3.34,2.01-5.74v-.17c.68-8.05.89-16.44,1.12-25.32.52-19.88,1.05-40.44,6.78-58.02,5.85-17.96,22.54-22.17,40.2-26.62,6.07-1.53,12.34-3.11,18-5.3,41.25-15.94,60.25-50.33,77.6-87.18.14-.3,14.34-30.87,14.32-34.99,0-1.51-.17-2.96-1.99-4.21ZM282.29,250.03c16.04-11.92,32.62-24.24,44.34-41.02l.52-.74-.57-.7c-.26-.32-.85-.88-1.85-.88-.42,0-.92.1-1.49.37-.85.4-1.66,1.05-2.2,1.49l-.31.25c-2.98,2.3-6.03,5.38-8.98,8.35-2.58,2.6-5.25,5.3-7.91,7.52-7.69,6.43-16.03,12.5-24.1,18.36-13.48,9.8-27.37,19.91-38.93,32.17l3.72-13.23c16.62-45.71,53.48-62.59,99.93-79.92l17.13-8.95c-17.82,42.76-37.39,82.15-75.98,99.22-8.16,3.61-16.98,5.92-25.51,8.16-5.93,1.56-12.03,3.15-17.95,5.2,11.09-14.05,25.84-25.02,40.14-35.64ZM211.05,226.56c-11.44-14.58-16.27-31.7-14-49.74,4.45-35.36,33.48-58.01,61.55-79.91,6.49-5.07,12.67-9.89,18.47-14.81-1.59,8.41-2.86,17.07-4.09,25.49-3.95,26.92-8.02,54.75-22.89,77.88-3.52,5.48-7.91,10.59-12.16,15.54-3.02,3.52-6.14,7.16-8.94,10.91-2.42,3.25-4.66,6.65-6.83,9.94-1.22,1.85-2.46,3.74-3.74,5.6.18-18.15,4.49-37.03,12.83-56.18.71-1.63,2.69-5.46,5.2-10.3,15.27-29.53,19.29-39.28,17.2-41.71l-.27-.31-.4-.08c-.33-.07-.62-.1-.9-.1-1.73,0-2.44,1.25-2.93,2.11-.12.21-.24.43-.38.64-2.36,3.47-4.88,9.25-7.31,14.85-1.51,3.47-2.94,6.75-4.25,9.3-1.23,2.39-2.45,4.73-3.65,7.05-9.39,18.03-17.51,33.61-20.98,54.75-1.25,7.6-1.76,13.9-1.54,19.09ZM152.63,249.55c-5.16-5-10.49-10.17-15.52-15.3l-.32-.33-4.22-.26,1.26,6.1.21.24c6.14,7.05,12.73,13.93,19.1,20.59,14.13,14.77,28.72,30.02,39.34,47.96-.06-.04-.11-.07-.16-.1-5.86-3.26-12.09-6.01-18.11-8.66-13.09-5.77-25.46-11.22-35.06-21.72-16.63-18.18-24.46-43.18-32.03-67.36-1.25-3.99-2.44-7.8-3.67-11.56l46.77,25.25c23.74,13.71,38.07,36.85,46.09,74.66-1.05-1.47-2.07-2.96-3.07-4.42-2.17-3.16-4.41-6.42-6.85-9.49-10.06-12.63-22.1-24.31-33.75-35.6Z"/>
</svg>