<?xml version="1.0" encoding="UTF-8"?>
<svg id="Capa_1" data-name="Capa 1" xmlns="http://www.w3.org/2000/svg" viewBox="0 0 466.35 466.35">
  <defs>
    <style>
      .cls-1 {
        fill: #18201a;
      }
    </style>
  </defs>
  <path class="cls-1" d="M211.77,64.71c12-.48,13.76,2.9,23.17,6.61,3.41,1.35,7.99,1.82,11.88,3.23,52.38,18.93,96.17,112.1,110.75,162.59,14.62,50.67,21.8,108.37-26.74,143.01-42.59,30.4-103.9,26.42-148.16,1.69-83.31-46.54-107.46-160.94-62.47-242.56,16.51-29.96,54.9-73.11,91.57-74.58ZM216.09,80.53c-31.63,1.89-64.79,41.03-79.1,66.93-45.61,82.5-15.73,202.04,78.87,232.84,52.91,17.23,130.89-.12,135.62-65.81,4.11-57-34.68-143.09-68.49-188.36-15.61-20.91-35.15-35.46-59.8-44.5-3.15-1.15-3.68-1.31-7.1-1.1Z"/>
  <path class="cls-1" d="M226.85,191.29c48.61-6.69,59.33,84.42,16.9,98.91-38.56,13.17-66.05-48.12-46.53-76.75,6.58-9.65,17.4-20.48,29.63-22.16ZM229.04,207.81c-4.85.27-17.69,5.85-20.32,9.95-4.74,7.35-2.45,25.89.49,33.97,5.6,15.43,23.18,35.51,37.94,16.69,10.84-13.82,9.9-44.69-4.66-55.73-3.31-2.51-9.26-5.11-13.45-4.87Z"/>
  <path class="cls-1" d="M229.69,232.26c11.21-2.51,11.77,15.78,1.33,14.2-6.89-1.04-8.21-12.66-1.33-14.2Z"/>
</svg>