<?xml version="1.0" encoding="UTF-8"?>
<svg id="Capa_1" data-name="Capa 1" xmlns="http://www.w3.org/2000/svg" viewBox="0 0 1869.21 1547.04">
  <defs>
    <style>
      .cls-1 {
        fill: #37443a;
      }

      .cls-2 {
        fill: #cb6e5f;
      }
    </style>
  </defs>
  <path class="cls-2" d="M1213.69,996.3c53.25-26.25,82.26-64.39,86.2-113.36,3.12-38.74-9.83-82.86-37.45-127.58-24.62-39.86-60.13-77.95-97.45-104.52-123.78-88.12-234.68-127.33-329.61-116.52-60.5,6.89-117.16,45.08-147.89,99.68-27.5,48.86-30.29,102.54-7.87,151.13,41.4,89.73,139.63,171.14,256.35,212.47,101.74,36.02,202.96,35.55,277.71-1.3ZM1109.06,685.36l1.84,6.55c4.25,15.1.56,30.49-10.67,44.51-15.48,19.33-43.33,32.7-67.43,32.7-1.14,0-2.27-.03-3.39-.09-22.46-1.21-42.61-11.26-56.73-28.28-14.94-18.01-22.01-42.66-18.91-65.92l.78-5.88,5.43,2.37c5.4,2.35,9.89,7.24,15.1,12.9,10.15,11.03,24.04,26.14,53.42,30.75,36.55,5.72,74.87-25,75.26-25.31l5.28-4.29ZM993.59,654.73c2.58-4.1,7.9-7.13,16.27-9.29,23.15-5.96,52.9-.41,58.96,11.01l.34.64.12.71c.66,3.93-.14,9.79-7.7,15.37-9.1,6.71-25.99,10.94-39.35,10.94-5.88,0-11.08-.82-14.63-2.61-10.48-5.28-13.82-12.43-14.87-16.22-1.11-4-.79-7.95.85-10.57ZM999.81,975.23c-100.65-7.44-240.42-81.58-280.06-176.08-21.53-51.32-11.39-103.84,29.32-151.9,36.52-43.12,89.72-69.3,149.81-73.73,57.11-4.2,116.13,12.11,161.96,44.79l29.26,20.87-33.49-13.06c-31.62-12.34-57.79-13.08-87.49-2.49-33.06,11.78-50.46,35.65-48.99,67.22,2.09,45,41.99,94.17,85.38,105.23,51.81,13.2,95.36,6.16,119.46-19.31,22.14-23.39,26.44-61.36,12.11-106.92l-3.28-10.44,9.65,5.15c58.65,31.31,98.87,90.65,102.45,151.15,2.97,50.18-19.71,94.75-63.86,125.52-39.98,27.86-95.63,35.45-144.33,35.45-13.31,0-26.09-.56-37.9-1.44Z"/>
  <path class="cls-1" d="M1001.36,1255.65c-3.28-2.15-7.18-3.28-11.6-3.35-3.74-.04-7.05.62-9.79,2.01-1.94.99-3.65,2.26-5.1,3.8l.09-5.34-8.36-.13-1.02,62.95,8.36.13.37-22.81c1.4,1.57,3.06,2.9,4.96,3.99,2.69,1.54,5.97,2.36,9.73,2.42,4.42.04,8.35-.93,11.7-2.97,3.34-2.04,5.99-4.87,7.86-8.42,1.87-3.53,2.85-7.48,2.92-11.75.07-4.33-.78-8.33-2.54-11.89-1.76-3.58-4.31-6.48-7.58-8.62ZM1003.12,1276.03c-.05,2.83-.68,5.47-1.88,7.86-1.19,2.37-2.9,4.27-5.08,5.65-2.17,1.38-4.84,2.06-7.91,2-3.02-.05-5.61-.81-7.71-2.25-2.1-1.45-3.71-3.4-4.76-5.8-1.07-2.43-1.59-5.1-1.54-7.94.05-2.89.65-5.56,1.8-7.92,1.13-2.33,2.8-4.21,4.95-5.6,2.07-1.33,4.58-2.01,7.47-2.01.1,0,.2,0,.31,0,3.08.05,5.72.81,7.84,2.26,2.14,1.46,3.79,3.4,4.9,5.77,1.12,2.4,1.67,5.08,1.62,7.96Z"/>
  <path class="cls-1" d="M1057.7,1259.94c-2.15-3.36-5.04-5.95-8.59-7.72-3.56-1.77-7.71-2.43-12.33-1.99-4.57.44-8.5,1.88-11.68,4.29-3.18,2.41-5.54,5.51-7.02,9.22-1.47,3.69-2,7.74-1.59,12.05.41,4.25,1.7,8.12,3.84,11.48,2.15,3.39,5.06,6,8.65,7.76,2.88,1.41,6.11,2.12,9.63,2.12.87,0,1.75-.04,2.65-.13h0c4.63-.45,8.57-1.89,11.73-4.3,3.15-2.4,5.5-5.52,6.97-9.25,1.46-3.71,2-7.75,1.59-12-.41-4.31-1.71-8.19-3.84-11.53ZM1052.31,1280.3c-.86,2.47-2.29,4.54-4.25,6.16-1.95,1.61-4.48,2.57-7.54,2.86h0c-3.01.3-5.67-.18-7.91-1.38-2.25-1.21-4.06-2.97-5.38-5.23-1.33-2.29-2.15-4.89-2.42-7.71-.28-2.88.03-5.6.9-8.07.86-2.44,2.31-4.5,4.29-6.12,1.98-1.61,4.5-2.57,7.5-2.86.59-.06,1.18-.09,1.74-.09,2.34,0,4.42.49,6.21,1.46,2.23,1.21,4.02,2.96,5.34,5.2,1.33,2.27,2.14,4.87,2.42,7.75.27,2.82-.04,5.52-.91,8.03Z"/>
  <path class="cls-1" d="M1087.83,1242.57c-2.76.51-5.1,1.43-6.96,2.74-1.84,1.3-3.33,2.75-4.42,4.33-.93,1.34-1.63,2.65-2.1,3.89l-1.38-7.53-8.23,1.5,8.2,44.87,8.23-1.5-3.63-19.85c-.55-3.03-.48-6.02.21-8.89.69-2.85,1.99-5.33,3.89-7.39,1.86-2.02,4.33-3.33,7.34-3.88l1.66-.3-1.5-8.23-1.31.24Z"/>
  <polygon class="cls-1" points="1153.93 1208.84 1143.75 1240.78 1115.81 1221.89 1107.33 1224.79 1126.69 1281.38 1134.6 1278.67 1119.6 1234.82 1147.98 1253.1 1158.88 1221.41 1173.87 1265.23 1181.79 1262.52 1162.42 1205.94 1153.93 1208.84"/>
  <path class="cls-1" d="M1205.74,1200.17l2.42,4.85c-1.98-.77-4.07-1.19-6.25-1.26-3.09-.08-6.36.7-9.72,2.37-3.95,1.97-6.99,4.67-9.02,8.03-2.03,3.35-3.08,7.06-3.12,11.05-.05,3.96.91,7.94,2.84,11.82,1.9,3.82,4.5,6.97,7.7,9.35,3.22,2.39,6.83,3.81,10.72,4.2.65.07,1.31.1,1.97.1,3.27,0,6.58-.83,9.87-2.47,3.36-1.68,5.97-3.81,7.75-6.33,1.26-1.79,2.19-3.7,2.78-5.71l2.4,4.82,7.48-3.73-20.34-40.83-7.48,3.73ZM1218.25,1228.25c.08,2.62-.51,5.07-1.76,7.27-1.24,2.19-3.27,4-6.02,5.37-2.71,1.35-5.39,1.88-7.97,1.58-2.59-.3-4.96-1.27-7.05-2.89-2.11-1.63-3.83-3.75-5.09-6.28-1.29-2.58-1.95-5.23-1.97-7.88-.02-2.62.64-5.09,1.97-7.34,1.32-2.24,3.36-4.06,6.07-5.41,2.22-1.11,4.38-1.66,6.45-1.66.49,0,.98.03,1.47.1,2.52.33,4.82,1.32,6.85,2.94,2.05,1.64,3.75,3.78,5.04,6.37,1.26,2.54,1.95,5.17,2.03,7.83Z"/>
  <path class="cls-1" d="M1237.61,1200.96c-.39-2.9-.07-5.69.95-8.3,1.01-2.56,2.84-4.67,5.44-6.27l1.44-.88-4.38-7.13-1.14.7c-2.39,1.47-4.24,3.17-5.5,5.07-1.25,1.87-2.1,3.77-2.55,5.63-.38,1.59-.56,3.06-.55,4.39l-4.01-6.53-7.13,4.37,23.86,38.87,7.13-4.38-10.55-17.19c-1.61-2.62-2.62-5.43-3.01-8.37Z"/>
  <polygon class="cls-1" points="1246.88 1169.78 1249.88 1154.38 1239.93 1161.22 1240.89 1173.9 1246.88 1169.78"/>
  <rect class="cls-1" x="1257.23" y="1169.93" width="8.36" height="45.61" transform="translate(-453.7 924.08) rotate(-34.49)"/>
  <path class="cls-1" d="M1285.76,1145.63l3.4,4.23c-2.09-.33-4.23-.29-6.38.1-3.04.56-6.06,2.04-8.99,4.39-3.45,2.77-5.83,6.05-7.1,9.76-1.27,3.7-1.5,7.56-.7,11.46.8,3.89,2.58,7.57,5.29,10.94,2.67,3.33,5.88,5.85,9.52,7.49,2.89,1.3,5.89,1.96,8.94,1.96.81,0,1.62-.05,2.43-.14,3.9-.44,7.62-2.07,11.06-4.83,2.93-2.35,5.02-4.99,6.22-7.83.85-2.01,1.35-4.08,1.5-6.17l3.37,4.19,6.52-5.24-28.57-35.55-6.52,5.24ZM1303.8,1177.87c-.74,2.41-2.34,4.6-4.74,6.53-2.36,1.89-4.86,2.99-7.45,3.25-2.6.26-5.12-.18-7.51-1.32-2.41-1.15-4.54-2.85-6.31-5.06-1.81-2.25-3.02-4.7-3.61-7.28-.58-2.55-.46-5.11.36-7.59.81-2.47,2.42-4.68,4.77-6.57,2.4-1.92,4.89-3.01,7.4-3.22.39-.03.77-.05,1.15-.05,2.12,0,4.19.49,6.16,1.46,2.36,1.16,4.47,2.9,6.28,5.15,1.78,2.21,3.01,4.64,3.65,7.21.64,2.54.58,5.05-.17,7.48Z"/>
  <path class="cls-1" d="M1360.1,1101.37c-2.3-.5-4.52-.5-6.6,0-1.31.31-2.53.71-3.65,1.2.29-1.73.27-3.57-.06-5.49-.46-2.71-2.17-5.43-5.08-8.06-1.82-1.66-4.1-2.88-6.76-3.64-2.7-.77-5.64-.68-8.75.28-3.1.95-6.27,3.2-9.43,6.68l-18.09,19.94,44.29,40.19,19.09-21.04c4.57-5.03,6.91-9.92,6.97-14.54.06-4.65-1.63-8.57-5.01-11.64-2.27-2.06-4.59-3.36-6.92-3.87ZM1332.24,1128.71l13.48-14.85c2.92-3.22,5.77-4.93,8.47-5.08,2.72-.13,4.96.6,6.82,2.29,2.05,1.86,2.94,3.96,2.73,6.43-.22,2.53-1.61,5.22-4.14,8l-13.95,15.37-13.41-12.17ZM1313.23,1111.45l12.95-14.27c1.69-1.86,3.36-3.06,4.98-3.58,1.59-.5,3.11-.56,4.5-.17,1.43.4,2.72,1.11,3.82,2.11,1.58,1.43,2.54,2.98,2.85,4.6.32,1.65.17,3.31-.44,4.93-.64,1.68-1.61,3.25-2.91,4.67l-12.47,13.75-13.28-12.05Z"/>
  <path class="cls-1" d="M1398.15,1065.12l-5.27,7.33.23.48c1,2.07,1.46,4.31,1.35,6.65-.1,2.32-1.02,4.69-2.71,7.05-1.61,2.24-3.52,3.88-5.68,4.87-2.17,1-4.45,1.44-6.78,1.26-2.03-.14-4.01-.66-5.91-1.53l21.34-29.69-2.86-2.06c-3.52-2.53-7.29-4.1-11.21-4.7-3.94-.59-7.8-.13-11.47,1.39-3.67,1.51-6.91,4.2-9.62,7.97-2.68,3.72-4.18,7.63-4.46,11.62-.28,3.98.5,7.8,2.32,11.35,1.81,3.53,4.51,6.6,8.03,9.13,3.47,2.5,7.26,4.03,11.27,4.57,1.01.14,2.02.2,3.01.2,2.96,0,5.86-.6,8.64-1.78,3.72-1.59,6.96-4.28,9.63-8,3.14-4.36,4.68-8.76,4.59-13.07-.09-4.28-1.34-8.3-3.72-11.94l-.71-1.1ZM1383.15,1064.07l-16.13,22.44c-2.09-2.38-3.38-5.09-3.85-8.08-.52-3.27.39-6.56,2.69-9.76,2.3-3.2,5.13-5.12,8.42-5.7.88-.15,1.76-.23,2.64-.23,2.11,0,4.19.45,6.23,1.33Z"/>
  <rect class="cls-1" x="1385.64" y="1013.71" width="8.36" height="63.14" transform="translate(-228.79 1681.12) rotate(-58.39)"/>
  <path class="cls-1" d="M1432.45,1005.77l-.86-.98-4.17,8.01.3.44c1.29,1.9,2.06,4.05,2.29,6.39.23,2.31-.34,4.79-1.68,7.37-1.27,2.44-2.93,4.34-4.93,5.63-2,1.3-4.2,2.04-6.54,2.21-2.03.15-4.07-.08-6.07-.67l16.89-32.43-3.12-1.63c-3.84-2-7.8-3.03-11.77-3.05-4-.05-7.74.99-11.15,3-3.42,2.02-6.24,5.14-8.38,9.26-2.12,4.07-3.05,8.15-2.76,12.14.29,3.98,1.6,7.65,3.91,10.9,2.3,3.24,5.41,5.89,9.25,7.89,3.72,1.94,7.6,2.92,11.56,2.92.08,0,.16,0,.25,0,4.05-.04,7.85-1.13,11.31-3.22,3.45-2.1,6.28-5.23,8.39-9.29h0c2.48-4.77,3.38-9.34,2.68-13.59-.7-4.22-2.51-8.02-5.38-11.29ZM1412.36,1005.3c1.4,0,2.81.19,4.23.58l-12.76,24.5c-2.4-2.05-4.07-4.56-4.97-7.45-.98-3.17-.55-6.54,1.27-10.04,1.82-3.5,4.35-5.8,7.52-6.84,1.54-.5,3.11-.76,4.7-.76Z"/>
  <path class="cls-1" d="M1427.66,953.11c-3.39.54-6.34,1.85-8.76,3.9-2.41,2.04-4.22,4.57-5.38,7.53-1.36,3.46-1.77,6.64-1.21,9.46.38,1.91.98,3.73,1.78,5.44l-4.92-1.93-3.06,7.78,42.45,16.67,3.06-7.78-24.33-9.55c-2.29-.9-4.12-2.22-5.45-3.94-1.33-1.72-2.15-3.64-2.44-5.73-.28-2.09,0-4.23.83-6.36,1.24-3.16,3.24-5.25,6.12-6.41,2.86-1.14,6.06-1.03,9.52.33l24.41,9.59,3.06-7.78-24.57-9.65c-3.99-1.57-7.74-2.09-11.13-1.55Z"/>
  <path class="cls-1" d="M1489.33,920.25c-2.39-4.55-6.77-7.71-13.02-9.41l-41.89-11.35-2.19,8.07,5.15,1.4c-1.88.97-3.57,2.26-5.06,3.85-2.1,2.25-3.66,5.23-4.64,8.85-1.15,4.26-1.18,8.31-.08,12.04,1.1,3.73,3.12,6.97,6.01,9.64,2.88,2.66,6.46,4.58,10.64,5.71,4.12,1.12,8.17,1.26,12.02.43,3.87-.84,7.27-2.61,10.1-5.27,2.83-2.66,4.85-6.18,6-10.44.98-3.63,1.11-7,.37-10.02-.52-2.13-1.34-4.1-2.46-5.88l3.39.92c4.09,1.11,6.95,3,8.5,5.63,1.54,2.62,1.7,6.27.46,10.86-.83,3.05-2.06,5.44-3.67,7.09-1.59,1.64-3.4,2.56-5.52,2.82l-.6.07-2.38,8.79,1.23-.06c4.17-.2,7.97-1.74,11.29-4.56,3.31-2.82,5.74-7.01,7.21-12.46,1.78-6.57,1.48-12.19-.9-16.72ZM1465.17,922.92c.76,2.37.75,5.06-.04,7.98-.79,2.92-2.15,5.29-4.04,7.04-1.89,1.75-4.13,2.89-6.67,3.39-2.57.51-5.25.39-7.98-.35-2.78-.75-5.17-2.01-7.11-3.73-1.91-1.71-3.26-3.82-4.01-6.29-.75-2.46-.72-5.19.07-8.12.79-2.92,2.13-5.24,3.99-6.91,1.87-1.67,4.09-2.76,6.59-3.24.99-.19,2.01-.28,3.04-.28,1.61,0,3.28.23,4.98.69,2.73.74,5.11,1.98,7.09,3.69,1.95,1.69,3.33,3.75,4.09,6.13Z"/>
  <path class="cls-1" d="M1487.24,859.17l-45.06-7.03-1.29,8.26,25.82,4.03c2.42.38,4.48,1.27,6.13,2.64,1.65,1.39,2.88,3.09,3.64,5.08.76,1.98.97,4.13.61,6.39-.51,3.3-2.01,5.77-4.58,7.55-2.54,1.76-5.69,2.36-9.37,1.79l-25.91-4.04-1.29,8.26,26.08,4.07c1.45.23,2.85.34,4.19.34,2.57,0,4.91-.42,7.01-1.25,3.2-1.26,5.8-3.2,7.72-5.76,1.91-2.54,3.12-5.39,3.6-8.47.57-3.68.28-6.87-.88-9.49-.78-1.78-1.76-3.42-2.92-4.92l5.22.82,1.29-8.26Z"/>
  <path class="cls-1" d="M1486.99,812.74c-2.4-3.54-5.63-6.24-9.6-8.02l-1.19-.53-.45,9.02.46.28c1.96,1.19,3.56,2.82,4.74,4.85,1.17,2.01,1.69,4.49,1.55,7.4-.14,2.75-.85,5.16-2.13,7.18-1.28,2.02-2.96,3.61-5.02,4.74-1.78.98-3.73,1.62-5.79,1.92l1.82-36.52-3.52-.17c-4.32-.22-8.35.5-11.97,2.13-3.63,1.64-6.62,4.12-8.88,7.38-2.26,3.26-3.52,7.27-3.76,11.91-.23,4.58.63,8.68,2.55,12.18,1.92,3.5,4.65,6.28,8.1,8.28,3.43,1.98,7.37,3.1,11.69,3.32.47.02.93.03,1.39.03,3.76,0,7.3-.77,10.56-2.31,3.67-1.73,6.67-4.3,8.93-7.65,2.26-3.35,3.52-7.37,3.75-11.95.27-5.37-.82-9.9-3.24-13.47ZM1463.02,811.44l-1.38,27.6c-3.04-.86-5.6-2.44-7.62-4.7-2.21-2.47-3.23-5.72-3.03-9.66.2-3.94,1.54-7.09,3.99-9.36,2.23-2.07,4.94-3.37,8.05-3.89Z"/>
  <path class="cls-1" d="M1454.23,781.1c-1.73-2.14-2.65-4.78-2.76-7.83l-.06-1.68-8.36.28.05,1.33c.09,2.8.66,5.25,1.68,7.29,1.01,2.01,2.24,3.7,3.63,5,1.19,1.11,2.38,2,3.54,2.65l-7.65.26.28,8.36,45.58-1.52-.28-8.36-20.17.67c-3.06.11-6.02-.41-8.76-1.52-2.72-1.1-4.98-2.75-6.74-4.93Z"/>
  <path class="cls-1" d="M680.84,350.93l27.29,42.99c8.59,13.54,16.52,16.06,25.05,10.65,7.52-4.77,10.73-13.84,12.52-25.71l-2.05-.46c-.87,7.76-4.42,11.6-7.18,13.35-5.51,3.5-10.54,1.95-15.48-5.82l-27.37-43.11,18.92-12.01-.77-2.32-19.43,12.33-10.5-16.54-2.01,1.27-8.3,28.48,1.27,2.01,8.02-5.09Z"/>
  <path class="cls-1" d="M736.51,339.17l14.32,31c4.48,9.7,5.41,14.18,1.64,17.72l.87,1.89,24.53-11.33-.87-1.89c-5.13.57-7.94-3.04-12.43-12.74l-12.39-26.82c-2.71-6.93-.93-15.11,1.13-19.49,9.87-1.29,15.61-2.31,19.39-4.05,6.2-2.86,6.49-10.03,5.12-12.99-1.31-2.83-5.91-2.17-10.49-.06-6.47,2.99-10.78,7.11-14.15,12.91-2.94,4.96-4.52,10.75-4.36,16.4l-7.53-16.31-1.85-.46-14.18,16.03.87,1.89c4.05-.08,6.7.34,10.37,8.29Z"/>
  <path class="cls-1" d="M798.06,283.75c5.36-1.77,8.19-7.39,6.42-12.75-1.81-5.5-7.16-8.43-12.8-6.57-5.36,1.77-8.19,7.39-6.38,12.89,1.77,5.36,7.39,8.19,12.75,6.42Z"/>
  <path class="cls-1" d="M791.01,302.64c4.04.39,6.62,1.1,9.36,9.42l10.7,32.43c3.35,10.15,3.76,14.71-.38,17.79l.65,1.97,25.66-8.46-.65-1.97c-5.16-.02-7.55-3.92-10.89-14.07l-17.39-52.73-1.78-.66-15.91,14.32.65,1.97Z"/>
  <path class="cls-1" d="M828.72,255.96l17.39,95.97,1.61-.29,4.27-10.58c6.52,5.16,16.71,8.14,27.23,6.23,24.25-4.39,36.35-24.99,32.3-47.34-3.28-18.11-18.94-32.92-39.68-29.17-8.33,1.51-16.23,7.01-22.68,13.01l-9.35-51.56-1.67-.9-17.74,11.97.37,2.04c3.94.94,6.4,2.01,7.96,10.63ZM863.99,278.23c21.76-3.95,32.85,22.26,35.23,35.4,2.41,13.29.62,26.74-14.86,29.55-11.1,2.01-25.94-8.27-28-19.67l-6.78-37.39c4.26-3.94,9.01-6.91,14.41-7.89Z"/>
  <path class="cls-1" d="M928.67,285.42l-.43,26.72c-.29,18.11,6.08,27.86,21.82,28.12,9.35.15,19.69-5.62,28.28-13.65l-.11,6.68c-.06,3.86,1.98,5.97,5.84,6.03l15.14.24.03-2.08c-4.87-1.71-5.84-6.18-5.67-16.87l.9-55.52-1.47-1.21-19.73,8.29-.03,2.08c3.68,1.69,5.89,3.21,5.74,11.97l-.6,37.26c-7.39,7.16-14.73,11.05-21.41,10.94-11.43-.18-13.83-8.09-13.57-23.97l.75-46.16-1.47-1.21-19.73,8.29-.03,2.08c3.68,1.69,5.89,3.21,5.75,11.97Z"/>
  <path class="cls-1" d="M550.89,899.89c2.3,1.94,5.84,8.62,11.11,7.02,2.43-.73,4.35-2.74,3.87-5.28-.26-1.76-3.87-13.8-6.8-25.82-.75-3-1.6-6.01-2.26-8.84-.66-2.84-1.29-5.51-1.84-7.86-1.11-4.7-1.98-8.1-2.25-8.92-.76-2.41-3.32-3.25-5.81-2.74-2.7.55-4.08,2.69-4.94,5.04-.8,2.35-1.04,4.91-1.58,6.29-.89,2.26-4.19,8.03-10.09,10.12l-57.69,13.5c-5.42.82-7.44-3.58-7.92-5.68-1.6-6.76-1.37-11.35-.63-14.46.74-3.11,2.01-4.77,2.83-5.8,1.66-2.08,6.07-7.95,5.41-12.08-.69-4.13-4.03-10.83-15.72-8.98-11.07,1.73-7.66,18.89-7.07,20.58,1.11,5.45,3.23,16.78,4.54,21.97,1.43,6.25-3.75,9.33-4.88,9.93l-37.36,8.74c-4.86-.02-7.42-7.67-8.52-11.95-2.01-8.24-3.24-16.72-3.84-25.17-.29-6.14-.2-12.42,1.35-18.21,1.69-6.37,5.97-11.3,8.85-16.93,1.35-2.61,2.44-5.54,2.9-8.5.49-2.98.43-6.01-.68-8.82-1.05-2.67-2.96-4.91-5.19-6.48-5.47-3.84-18.76-3.02-23.6,1.61-3.38,3.23-4.73,7.02-5.12,11.18-.19,2.08-.16,4.25.03,6.48.22,2.22.56,4.5.87,6.84,1.39,11.96,5.64,38.98,11.07,63.98,1.41,6.22,2.79,12.36,4.1,18.16,1.45,5.73,2.82,11.12,4.03,15.93,1.18,4.82,2.35,8.99,3.3,12.32.94,3.34,1.65,5.85,2.06,7.29,2.48,5.63,9.89,13.27,18.16-1.92,2.98-5.43,2.97-15.1,9.11-16.84,0,0,80.43-22.42,107.45-29.96,5.59-1.52,10.95,2.78,12.73,4.28Z"/>
  <path class="cls-1" d="M424.2,703.69c3.83,1.04,8.86-1.3,12.98-5.07,3-2.67,6.08-6.16,10.11-5.9l70.18,7.32h0c5.74.86,8.76,2.65,10.58,4.19,2.3,2.02,5.08,8.41,8.82,8.67,3.97.3,5.18-1.46,5.45-3.8.04-.62.31-2.87.67-5.93.38-3.06.72-6.98,1.26-10.83.56-3.85,1.13-7.69,1.57-10.73.43-3.04.92-5.21.98-5.82.32-2.29-.4-4.27-4.31-5.03-3.71-.74-7.88,4.61-10.79,5.93-2.41,1.06-6.1,2.09-12.79,1.06l-43.89-7.12c-2.43-.39-4.83-1.01-7.14-1.87-8.22-3.02-20.76-9.91-22.13-23.8-.74-12.18,4.13-16.27,8.36-17.35,2.02-.54,4.11-.48,6.09.03,10,2.58,65.36,16.83,65.36,16.83v.02c6.74,1.74,9.8,4.2,11.57,6.15,2.14,2.37,3.83,8.92,7.53,9.73,3.89.87,5.34-.65,5.96-2.87.2-.57.58-2.77,1.44-5.68.79-2.92,1.8-6.62,2.81-10.32,2.29-7.3,4.48-14.64,4.95-15.74.67-2.19.26-4.23-3.49-5.58-3.54-1.29-8.53,3.28-11.55,4.14-2.46.7-6.32,1.11-12.76-.92l-39.22-12.7c-3.98-1.29-7.82-3-11.4-5.21-7.56-4.63-17.26-13.24-16.49-26.21.93-10.23,5-14.04,8.72-15.15,3.79-1.1,7.28.37,7.28.37,0,0,59.85,25.88,61.7,26.68,1.78.78,8.36,3.72,15.34,4.57,3.49.43,7.07.36,10.19-.74,3.11-1.11,5.73-3.24,7.63-6.9,3.53-7.41,2.88-15.93.79-23.58-1.91-7.54-5.1-14.05-6.69-16.46-.47-.71-1.77-2.31-.64-3.13,1.29-.93,6.29,5.29,8.44,8.61,2.14,3.36.9,9.63,4.18,11.51,3.45,1.99,5.32.98,6.6-.96.33-.5,1.5-2.41,3.07-5.03,1.54-2.63,3.79-5.84,5.87-9.12,2.05-3.3,4.35-6.48,6.11-9.02,1.77-2.54,3.04-4.41,3.37-4.93,1.26-1.98,1.57-4.06-1.64-6.45-1.52-1.13-3.82-.95-6.16-.47-2.27.5-4.57,1.29-6.14,1.27-2.51-.04-6.21-.73-11.51-4.25l-42.1-29.42c-2.72-1.9-5.12-4.24-6.97-7.02-2.13-3.2-4-6.92-4.93-11.01-.94-4.09-.78-8.42.89-12.94,1.33-3.49,2.8-6.11,4.41-7.95,1.62-1.82,3.3-2.94,4.91-3.58,3.22-1.27,6.19-.59,8.14.21.81.33,1.56.81,2.24,1.37,6.88,5.67,53.64,44.2,53.64,44.2,4.65,4.07,6.26,7.41,6.96,9.8.88,3.07-.62,9.75,2.44,12.1,3.13,2.44,5.11,1.64,6.72-.12.41-.46,1.88-2.23,3.87-4.65.99-1.21,2.12-2.59,3.31-4.04,1.25-1.43,2.57-2.93,3.89-4.44,5.15-6.1,10.77-11.95,11.55-12.93,1.57-1.85,2.07-3.98-.81-6.73-2.72-2.63-9.23-.18-12.41-.6-2.64-.36-6.47-1.58-11.61-6.26l-29.84-27.19c-4.06-3.7-7.61-7.91-10.36-12.67-2.12-3.66-4.07-8.09-4.86-12.89-.39-2.4-.49-4.88-.18-7.4.34-2.5,1.13-4.98,2.44-7.45,6.34-12,13.42-11.14,17.25-9.25,1.33.65,2.5,1.55,3.52,2.61,6.48,6.72,51.31,53.37,52.83,54.62,3.95,3.2,8.86,5.24,13.57,5.69,4.73.4,9.13-.47,12.46-3.55,7.58-6.96,7.8-17.96,8.1-28.78.03-1.23.04-2.46.02-3.7v-.24s0-.07,0-.07c-.12-5.52-.76-11.33-3.51-16.38-.57-1.05-1.27-2.09-2.4-2.55-.53-.21-1.13-.24-1.62-.01-.29.14-.51.33-.68.56-.51.72-.45,1.82-.38,2.78.7,9.18,1.32,17.64-2.82,25.22-.4.72-2,2.36-2.86,2.76-1.73.81-3.58.42-5.45-.55-2.08-1.09-4.75-3.45-7.6-6.38l-41.13-48.02c-1.44-1.68-6.28-6.96-13.25-9.65-3.48-1.34-7.51-2.02-11.89-1.21-4.42.8-9.03,3.1-13.73,7.57-2.14,2.03-3.95,4.19-5.45,6.42-1.47,2.27-2.62,4.64-3.53,7-1.81,4.74-2.63,9.53-2.79,14.03-.22,9.12,2.03,16.92,3.38,20.73.22.62-.54,1.17-1.05.76-2.88-2.29-8.67-6.3-15.63-7.42-3.48-.55-7.27-.39-11.17,1.03-3.89,1.43-7.96,4.06-11.65,8.69-3.3,4.09-5.6,8.33-6.93,12.66-1.31,4.35-1.81,8.65-1.78,12.68,0,8.02,2.46,15.23,4.39,19.77.27.62-.46,1.24-1.01.86l-7.56-5.28h0c-.64-.45-5.55-3.85-12.69-.75-3.8,1.68-6.84,4.96-9.25,8.15-2.39,3.21-4.15,6.33-5.11,8.04-2.02,3.37-3.16,14.19,2.54,17.42,7.43,4.24,14.53-.51,16.65-1.29,1.77-.66,4.04-2.04,5.6-1.07,0,0,27.34,16.87,36.54,22.55,1.45.89,6.94,5.07,11.7,11.05,2.38,2.99,4.57,6.41,6,10.07.71,1.83,1.22,3.72,1.48,5.66.31,1.96.35,3.97.04,6-1.7,10.97-8.71,9.52-12.32,8.12l-62.09-31.42c-1.94-.98-8.42-4.04-15.91-3.85-3.74.1-7.75,1.02-11.56,3.44-3.71,2.47-7.17,6.48-9.91,12.58-4.73,11.2-3.5,22.03-.05,30.58,1.68,4.27,3.79,7.98,5.84,10.98,2.05,3,4.13,5.33,5.51,6.81.45.48,0,1.3-.63,1.13-3.56-.93-10.36-2.22-17.17-.36-3.4.93-6.84,2.65-9.81,5.6-2.88,2.97-5.33,7.19-6.89,12.97-.81,2.85-1.12,5.65-1.19,8.34-.07,2.69.14,5.27.55,7.73.43,2.46,1.02,4.78,1.85,6.98.85,2.2,1.85,4.27,2.94,6.18,4.37,7.67,10.05,12.9,13.41,15.51.54.43.18,1.34-.49,1.23l-14.16-2.3h0s-1.12-.11-1.46-.05c-1.19.2-3.88.73-6.68,4.01-2.78,3.27-5.86,9.33-6.97,20.51-1.15,9.74,1.66,14.23,5.44,15.26Z"/>
  <path class="cls-1" d="M422.79,790.01c3.76,7.87,9.21,14.63,15.39,19.97,12.71,10.67,29.18,15.42,46.15,12.88,7.62-1.12,14.96-3.66,21.66-7.25,6.77-3.59,12.89-8.25,17.96-13.7,5.12-5.33,9.19-11.28,11.98-17.55,1.46-3.13,2.7-6.32,3.55-9.56.91-3.24,1.3-6.55,1.64-9.83.35-3.97.13-7.87-.62-11.69-.71-3.81-1.72-7.51-3.31-11.13-.78-1.81-1.67-3.6-2.67-5.36-.93-1.75-1.96-3.47-3.09-5.16-2.26-3.39-4.9-6.66-7.88-9.78-3.75-4.01-8.09-7.9-13.62-9.8-.9-.31-1.86-.56-2.8-.44-.17.02-.33.06-.49.11-.87.18-1.67.75-1.84,1.56-.03.17-.04.34-.02.5.09.87.85,1.63,1.53,2.29,5.55,5.4,9.57,10.25,11.8,14.99.52,1.27.96,2.59,1.32,3.99.75,2.93,1.36,5.92,1.57,8.89h0c0,2.3-.09,4.43-.27,6.42-.21,1.33-.42,2.69-.64,4.09-.91,5.45-3.1,10.81-6.05,15.78-1.62,2.56-3.6,5.22-5.98,8.16-1.05,1.15-2.15,2.27-3.32,3.33-3.94,3.54-8.51,6.49-13.5,8.38-1.05.39-2.05.71-3.02.92-1.6-.49-3.18-1.25-4.71-2.28-4.49-3.07-7.81-7.87-8.33-15.05-.54-5.38-.19-11.04.72-16.67.38-2.31.75-4.54,1.14-6.68,3.24-12.93,6.64-27.1-4.86-36.61-7.42-6.17-15.33-7.2-23.8-5.77-8.59,1.4-18.58,8.59-23.31,16.5-3.54,5.76-5.95,10.73-7.22,16.67-1.33,5.94-1.96,12.88-1.51,22.57.22,9.52,2.7,18.44,6.42,26.32ZM439.17,735.19c4.71-5.17,12.38-7.1,18.01-2.17,1.06.92,1.87,2.04,2.67,3.23,2.06,3.13,3.31,6.47,4.07,9.95.77,3.48.97,7.1,1.23,10.78.44,7.34.05,14.92,1.9,21.7,1.58,6.11,5.31,10.78,9.96,14.97.31.29.17.8-.24.87-2.15.35-5.56.83-9,.76-11.18-.22-19.14-4.4-26.71-11.6-11.38-12.69-14.57-34.2-1.89-48.49Z"/>
  <path class="cls-1" d="M1062.47,316.9c94.93,22.96,181.82,70.17,251.3,136.55,72.64,69.4,120.92,155.43,139.62,248.8.77,3.83,4.13,6.47,7.88,6.47.52,0,1.06-.05,1.59-.16,4.36-.87,7.18-5.11,6.31-9.47-19.35-96.62-69.25-185.59-144.29-257.28-71.52-68.33-160.96-116.93-258.63-140.56-4.33-1.05-8.67,1.61-9.72,5.93-1.04,4.32,1.61,8.67,5.93,9.72Z"/>
  <path class="cls-1" d="M898.33,1267.18c-162.11-31.11-306.21-142.97-376.06-291.93-1.89-4.02-6.68-5.76-10.7-3.87-4.02,1.89-5.76,6.68-3.87,10.7,72,153.54,220.52,268.84,387.6,300.9.51.1,1.02.15,1.53.15,3.78,0,7.16-2.68,7.9-6.53.84-4.36-2.02-8.58-6.39-9.42Z"/>
</svg>