<?xml version="1.0" encoding="UTF-8"?>
<svg id="Capa_1" data-name="Capa 1" xmlns="http://www.w3.org/2000/svg" viewBox="0 0 1869.21 1547.04">
  <defs>
    <style>
      .cls-1 {
        fill: #37443a;
      }

      .cls-2 {
        fill: #cb6e5f;
      }
    </style>
  </defs>
  <g>
    <g>
      <path class="cls-1" d="M372.43,740.21c17.51-.58,35.07.32,52.43,2.7,12.49,1.71,25.17,4.34,36.48,10.1,12.44,6.33,21.23,17.45,32.09,25.94,10.05,7.86,23.22,13.7,35.41,9.93,5.8-1.79,10.84-5.67,14.54-10.48,9.05-11.74,9.6-42.72,1.29-55.01-11.6-17.16-28.85-16.15-47.68-16.15-47.88,0-219.31-.8-243.91-.89-12.43,1.93-32.23,13.6-6.7,41.84,9.17,10.14,28.85,16.31,28.99,31.16,0,0,.75,194.29.75,259.56,0,13.48-13.78,22.72-18.57,25.73-6.17,3.89-24.56,7.57-24.56,20.38,0,5.9,3.46,11.48,9.95,12.03,8.97.76,126.16.89,134.95,0,6.48-.66,9.95-6.13,9.95-12.03,0-12.81-18.39-16.49-24.56-20.38-5.07-3.2-17.25-13.67-18.94-28.12v-137.86c.99-12.73,11.63-15.02,16.44-15.02,31.15,0,39.75,10.02,43.61,14.66,3.87,4.64,15.15,17.63,24.74,17.63s25.97-5.1,25.97-32.62-38.39-24.67-42.32-24.45h-49.54c-14.2,0-18.21-13.33-18.91-16.21v-89.28c2.37-11.01,18.96-12.85,28.09-13.15Z"/>
      <path class="cls-1" d="M1634.9,1006.38c-.75-1.14-1.9-2.02-3.24-2.27-.79-.15-1.52-.09-2.19.11-2.09.64-3.63,2.76-4.93,4.64-12.45,18.02-24.66,34.54-45.68,42.1-2,.72-7.98,1.26-10.41.69-4.85-1.14-7.89-4.63-9.94-9.18-2.28-5.06-3.53-13.28-4.15-22.78l.33-147.11c.03-10.31-2.32-66.59-57.28-66.59-49.99,0-78.56,48.03-86.98,64.73-.68,1.35-2.71.94-2.81-.57-1.06-17.19-8.47-64.16-57.9-64.16-43.94,0-70.8,35.96-82.21,55.65-.77,1.33-2.8.77-2.8-.77v-21.46s0,0,0,0c.04-1.83-.15-15.71-13.93-25.18-14.77-10.16-36.47-7.62-44.55-7.62s-28.62,10.62-28.62,25.85c0,19.91,16.73,28.44,20.62,31.73,3.24,2.74,8.41,5.64,8.41,9.92,0,0,0,74.76,0,99.9,0,7.93-6.28,63.85-47.37,77-28,8.96-33.3-7.58-34.2-16.48,0,0-.12-161.91-.12-161.91.04-10.14-2.21-66.65-57.28-66.65-50.01,0-79.1,47.88-87.68,64.48-.69,1.34-2.71.91-2.79-.6-.88-17.13-7.79-63.88-57.22-63.88s-76.56,44.4-85.45,61.55c-.73,1.4-2.83.87-2.83-.7v-33.37s0,0,0,0c0,0-.15-2.62-.39-3.38-1.65-5.34-8.13-23.99-54.8-23.99-40.68,0-35.56,27.29-17.69,45.16,6.33,6.33,14.59,12.53,14.96,21.94v164.18h0c-.68,13.48-4.59,20.93-8.21,25.54-4.78,6.07-21.22,13.29-21.22,22.1,0,9.27,5.07,11.78,11.58,12.03,6.78.26,86.93.26,93.72,0,6.51-.25,11.58-2.76,11.58-12.03s-16.44-16.03-21.22-22.1c-3.92-4.98-8.18-13.29-8.31-28.99v-103.47c0-5.73.52-11.45,1.61-17.08,3.84-19.82,14.4-51.6,43.02-60.72,25.29-8.06,36.12,1.07,40.75,9.8,2.23,4.21,3.24,8.94,3.24,13.7,0,24.04,0,157.03,0,157.03h-.06c0,16.18-4.34,24.65-8.32,29.71-4.78,6.07-21.22,13.29-21.22,22.1,0,9.27,5.07,11.78,11.58,12.03,6.78.26,86.93.26,93.71,0,6.51-.25,11.58-2.76,11.58-12.03s-16.44-16.03-21.22-22.1c-3.92-4.98-8.18-13.29-8.31-28.99l.02-95.92c0-9.74,1.05-19.46,3.3-28.93,4.73-19.83,16.02-47.92,42.64-56.4,42.53-13.55,42.95,21.54,42.95,21.54,0,0-.05,151.73-.05,156.42,0,9.07-1.35,67.02,45.37,67.02s81.51-44.82,87.97-56.87c.96-1.79,2.74-6.29,6.12-5,3.86,1.47-3.11,18.86-7.81,27.13s-21.22,13.29-21.22,22.1c0,9.27,5.07,11.78,11.58,12.03,6.78.26,86.93.26,93.71,0,6.51-.25,11.58-2.76,11.58-12.03s-16.44-16.03-21.22-22.1c-3.81-4.83-7.93-12.8-8.29-27.6v-119.5c0-7.72,1.25-15.42,3.95-22.66,6.23-16.68,17.41-34.11,37.4-40.48,31.09-9.91,40.33,6.17,43.05,15.54.57,1.96.81,4,.81,6.04,0,20.73-.02,161.73-.02,161.73-.46,14.38-4.53,22.17-8.28,26.93-4.78,6.07-21.22,13.29-21.22,22.1,0,9.27,5.07,11.78,11.58,12.03,6.77.26,86.85.26,93.62,0,6.51-.25,11.58-2.76,11.58-12.03s-16.44-16.03-21.22-22.1c-3.98-5.06-8.32-13.53-8.32-29.7v-93.94c-.02-12.77,1.67-25.51,5.38-37.72,5.71-18.83,17.32-41.43,40.71-48.88,28.25-9,37.92,3.44,41.23,12.82,1.14,3.22,1.64,6.63,1.66,10.05.11,21.72.9,172.25,1.55,176.81,3.36,23.48,22.28,45.2,47.13,44.69,28.48-.59,48.19-20.29,66.17-39.77,2.04-2.21,4.04-4.48,5.96-6.8.13-.15.25-.31.37-.46.04-.04.07-.09.11-.13,8.53-10.37,16.07-22.14,18.03-35.41.4-2.74.55-5.66-1.06-8.09Z"/>
      <path class="cls-1" d="M590.69,942.23c12.63-.33,25.82.6,38.99,3.29,5.4,1.1,10.62,2.16,15.66,3,30.2,7.86,65.07,14.85,85.64-13.45,13.27-18.26,13.92-36.78,9.43-56.19-4.57-19.74-21.43-41.46-38.52-52.07-25-15.52-42.15-20.31-82.97-20.31-80,0-145.09,65.08-145.09,145.09,0,17.93,3.4,35.65,9.8,52.21,6.38,16.74,15.83,32.31,27.96,45.71,23.76,26.26,56.86,43.25,92.09,47.01,42.5,4.53,83.49-12.29,114.55-40.9,10.05-9.26,19.36-20.08,23.13-33.21.62-2.14,1.08-4.41.58-6.58-.09-.38-.22-.75-.38-1.12-.62-1.99-2.2-3.76-4.25-4-.43-.05-.85-.04-1.26.03-2.16.36-3.96,2.25-5.5,3.94-12.75,14.02-24.76,23.31-36.87,29.02-3.24,1.32-6.65,2.46-10.26,3.4-7.57,1.97-15.26,3.2-22.98,3.74h0c-5.97,0-11.47-.21-16.64-.64-3.43-.44-6.93-1-10.53-1.69-13.96-2.66-27.49-7.98-39.62-15.51-6.22-4.18-12.57-9.21-19.43-15.21-2.67-2.62-5.23-5.36-7.61-8.25-7.98-9.67-14.15-20.83-17.56-32.89-.71-2.52-1.25-4.92-1.53-7.21,1.52-3.58,3.65-7.05,6.4-10.36,8.2-9.84,19.96-16.84,36.76-16.85ZM543.79,942.82c-.74.66-1.9.21-1.97-.77-.33-5.05-.67-13.06.25-21.02,2.98-25.8,14.08-43.1,31.05-59.67,29.83-23.59,74.79-30.24,106.44-.98,11.43,10.56,16.47,28.21,5.59,41.72-2.03,2.52-4.55,4.59-7.22,6.4-28.24,19.16-65.96,8.15-97.65,14.01-14.27,2.64-25.7,10.72-36.5,20.32Z"/>
    </g>
    <path class="cls-2" d="M798.97,240.91c99.3-11.31,202.61,43.2,281.24,99.18,96.02,68.36,183.76,227.95,40.64,298.49-150.63,74.25-388.5-32.82-456.55-180.32-45.13-97.82,34.43-205.94,134.67-217.35ZM987.78,318.74c-77.76-55.45-194.57-51.61-258.46,23.83-113.31,133.78,89.29,262.17,209.35,271.04,48.94,3.62,110.53.55,151.6-28.08,90.75-63.25,53.57-181.63-32.24-227.44,28.31,90.03-29.36,133.52-115.76,111.5-64.63-16.47-114.82-123.15-31.09-153,27.09-9.66,50.12-8.18,76.6,2.15ZM993.38,349.67c-3.99-7.51-26.74-12.26-45.56-7.42-2.42.62-9.14,2.46-11.5,6.21-1.67,2.65-1.08,11.49,10.35,17.25,11.2,5.64,49.04-2.26,46.71-16.04ZM1028.65,378.9s-33.61,27.37-66.59,22.2c-38.38-6.02-46.84-31.94-58.84-37.17-4.65,34.95,18.92,73.12,60.39,75.36,31.46,1.7,74.33-27.36,65.04-60.39Z"/>
  </g>
  <g>
    <path class="cls-1" d="M1193.02,1279.21s0-46.55-.01-60.59c0-2.19-1.78-3.96-3.98-3.96h-6.57c-.54,0-1.1.15-1.51-.24-.28-.26-.53-.56-.63-.92-.11-.39-.02-.82.18-1.17.34-.62.97-1.11,1.51-1.58,1.03-.91,2.07-1.82,3.1-2.73,1.5-1.32,3-2.64,4.51-3.97,1.74-1.53,3.48-3.06,5.22-4.6,1.75-1.54,3.5-3.08,5.26-4.63,1.53-1.35,3.07-2.7,4.6-4.05,1.09-.96,2.18-1.92,3.27-2.87.37-.32.72-.67,1.11-.94.37-.26.69-.57,1.12-.73s.9-.17,1.32,0c.86.36.7,2.03.7,2.94v22.48h29.17,0c-.44,1.77-2.03,3.01-3.86,3.01h-21.34c-2.2,0-3.98,1.78-3.98,3.98v60.76c0,11.67,4.33,16.75,12.61,16.75,1.79,0,3.58-.31,5.28-.87,2.32-.76,4.47-1.98,6.39-3.47,1-.78,1.95-1.63,2.84-2.54.49-.5.97-1.02,1.43-1.55.35-.4.77-1.12,1.36-1.17.26-.02.52.06.76.18.12.06.23.13.32.23.09.1.15.23.19.36.23.71-.04,1.44-.51,1.98-.55.63-1.11,1.25-1.67,1.87-1.09,1.19-2.2,2.36-3.34,3.49-2.11,2.1-4.33,4.1-6.7,5.91-2.14,1.63-4.42,3.09-6.84,4.26-2.26,1.09-4.66,1.92-7.13,2.38-1.51.28-3.05.42-4.59.42-12.8,0-19.57-8.09-19.57-28.42Z"/>
    <path class="cls-1" d="M1249.46,1303.05c.43-.14.88-.25,1.29-.44.42-.2.83-.43,1.22-.69,2.31-1.56,3.45-4.14,4.06-6.78,1-4.32.98-8.88.98-13.29v-42.6c0-1.1-.03-2.19-.09-3.28-.15-2.87-.46-7.03-2.92-9.64-.98-1.04-2.24-1.76-3.52-2.37-.72-.34-1.67-.61-1.77-1.54-.02-.2,0-.41.05-.61.17-.72.66-.92,1.25-1.18.38-.17.77-.34,1.15-.51,1.25-.55,2.51-1.1,3.76-1.65,1.66-.73,3.31-1.45,4.97-2.18,1.77-.78,3.53-1.55,5.3-2.33,1.58-.7,3.17-1.39,4.75-2.09,1.11-.49,2.22-.97,3.33-1.46.76-.32,1.56-.72,2.34-.19.11.07.2.16.28.26.28.4.25,1.15.31,1.62.03.2,0,.42,0,.63v18.84c.61.15.52.13,1.12.28,2.91-5.61,7.33-10.56,12.62-14.19,6.96-4.89,14.12-7.34,23.15-7.34,6.4,0,12.04,1.69,12.04,5.65s-4.14,12.23-12.8,12.23c-4.75,0-11.01-1.53-21.01-4.58-2.24-.68-4.71-.06-6.29,1.67-4.11,4.49-8.38,11.48-8.84,19.09v37.45c0,4.4-.01,8.96.98,13.28.61,2.63,1.74,5.22,4.05,6.78.44.3.91.55,1.39.77.65.3,1.58.38,2.11.85.42.37.54,1.01.37,1.54-.08.26-.24.52-.49.62-.16.07-.35.06-.52.06-1.38-.05-2.76,0-4.14,0h-29.09c-.7,0-1.67.15-2.19-.42-.22-.24-.35-.57-.39-.9-.02-.17-.01-.36.04-.52.09-.28.33-.51.59-.64.17-.09.35-.16.54-.22Z"/>
    <path class="cls-1" d="M1334.34,1303.05c.46-.14.93-.27,1.38-.49.5-.24.97-.52,1.42-.85,2.2-1.62,3.25-4.22,3.82-6.81.93-4.25.93-8.72.93-13.06v-43.29c0-3.61-.06-7.87-2.07-11.03-.63-.99-1.47-1.81-2.45-2.47-.84-.56-3.5-1.31-3.76-2.19-.13-.44.02-.92.19-1.35.34-.85,1.95-1.26,2.74-1.61,1.37-.6,2.75-1.21,4.12-1.81,3.53-1.55,7.05-3.1,10.58-4.65,1.89-.83,3.78-1.66,5.67-2.49.89-.39,1.83-1.05,2.85-.97.36.03.73.17.94.47.12.18.18.39.23.6.24,1.07.16,2.18.16,3.27v67.52c0,4.34,0,8.81.93,13.06.57,2.6,1.63,5.19,3.83,6.81.93.68,1.96,1.04,2.99,1.51.23.11.47.23.63.42.21.24.28.59.22.9s-.22.6-.44.84c-.1.11-.22.21-.35.28-.5.26-1.31.09-1.86.09h-29.92c-1.04,0-2.2.11-3.21-.12-.36-.08-.7-.25-.93-.53s-.33-.68-.21-1.02c.14-.38.52-.62.89-.78.22-.09.45-.17.68-.24ZM1337.56,1190.76c0-7.34,5.65-12.98,12.8-12.98,7.53,0,12.8,5.65,12.8,12.98s-5.65,12.8-12.8,12.8-12.8-5.65-12.8-12.8Z"/>
    <path class="cls-1" d="M1398.58,1295.88c-1.24-1.16-3.21-.93-4.12.51l-.85,1.35c-1.07,1.69-2.14,3.39-3.2,5.08-.74,1.18-1.73,3.68-3.51,3.12-.09-.03-.18-.07-.26-.13-.16-.15-.18-.39-.19-.6-.05-1.25.04-2.54.04-3.8v-119.3c0-4.2-.08-9.65-3.48-12.7-.64-.57-1.36-1.03-2.11-1.43-.71-.38-2.53-.85-2.79-1.61-.05-.14-.06-.28-.06-.43,0-1.61,2.49-2.22,3.75-2.77,1.67-.73,3.34-1.47,5.01-2.2,3.91-1.72,7.81-3.43,11.72-5.15,1.27-.56,2.54-1.12,3.81-1.67.58-.26,1.66-1.1,2.28-.93.32.09.57.36.72.66.64,1.28.35,3,.35,4.41v60.1c1.14.65,1.42.81,2.56,1.47,8.83-5.3,18.91-9.52,28.68-9.52,26.72,0,42.91,22.02,42.91,45.36,0,28.79-19.76,51.75-51,51.75-12.16,0-23.11-4.85-30.26-11.56ZM1436.17,1303.49c19.95,0,25.22-16.37,25.22-33.5s-7.9-52.13-35.94-52.13c-6.49,0-12.64,2.29-18.48,5.79-.8.48-1.28,1.37-1.28,2.3v46.67c0,14.68,16.19,30.86,30.49,30.86Z"/>
    <path class="cls-1" d="M1498.84,1272.44v-33.88c0-3.65-.06-7.98-2.15-11.15-.67-1.01-1.55-1.82-2.57-2.48-.53-.34-1.09-.62-1.66-.9-.68-.35-2.08-.51-2.4-1.23-.21-.47.04-1.03.44-1.36,1.16-.94,2.9-1.49,4.28-2.1,1.64-.72,3.27-1.44,4.91-2.16,3.69-1.62,7.39-3.25,11.08-4.87.85,0,2.3-1.01,3.1-1.36.92-.41,2.05-1.05,3.09-1.03.39,0,.81.2.97.56.1.2.1.44.11.66.17,6.13,0,12.32,0,18.46v40.38c0,20.14,3.2,30.11,17.69,30.11,8.04,0,16.76-4.58,25.51-12.93.9-.86,1.4-2.08,1.4-3.33v-45.28c0-5.07-.3-11.06-5.16-13.89-.98-.57-3.72-1.31-3.37-2.77.31-1.27,3.77-2.25,4.89-2.74,2.23-.98,4.45-1.96,6.68-2.94,4.25-1.87,8.51-3.74,12.76-5.61.61-.27,1.55-1.01,2.2-1.02.45,0,.83.36.99.77.37.96.19,2.4.19,3.45v68.03c0,.32,0,.63,0,.95,0,1.73.04,3.47.12,5.2.07,1.44.18,2.88.36,4.31.15,1.18.35,2.35.66,3.5.25.95.58,1.89,1.02,2.77.39.77.86,1.49,1.45,2.12.56.61,1.22,1.12,1.94,1.54.38.22.77.41,1.17.58.57.24,1.21.34,1.58.88.21.3.32.67.35,1.03.01.16,0,.32-.04.48s-.14.3-.29.37c-.13.07-.28.08-.42.09-.35.02-.67.09-1.02.09h-17.8c-4.58,0-8.29-3.71-8.29-8.29v-5.96c0-.66-.79-1-1.27-.55-10.47,9.73-22.91,16.67-34.3,16.67-19.95,0-28.23-12.23-28.23-35.19Z"/>
  </g>
</svg>