<?xml version="1.0" encoding="UTF-8"?>
<svg id="Capa_1" data-name="Capa 1" xmlns="http://www.w3.org/2000/svg" viewBox="0 0 1869.21 1547.04">
  <defs>
    <style>
      .cls-1 {
        fill: #fff5eb;
      }
    </style>
  </defs>
  <path class="cls-1" d="M1438.19,1252.63c365.71-180.27,141.51-588.06-103.85-762.75-200.92-143.05-464.91-282.33-718.67-253.43-256.15,29.17-459.45,305.46-344.13,555.41,173.89,376.91,781.75,650.5,1166.65,460.77ZM1036.4,743.39c-105.97-5.72-166.21-103.27-154.33-192.58,30.68,13.35,52.31,79.58,150.37,94.97,84.27,13.23,170.15-56.72,170.15-56.72,23.74,84.42-85.8,158.67-166.2,154.33ZM1112.47,514.38c5.93,35.22-90.74,55.41-119.37,40.98-29.22-14.72-30.71-37.31-26.45-44.08,6.02-9.56,23.21-14.27,29.39-15.86,48.11-12.38,106.24-.23,116.43,18.95ZM437.68,496.23c163.28-192.79,461.75-202.6,660.47-60.9-67.66-26.39-126.52-30.15-195.75-5.48-213.96,76.25-85.71,348.88,79.45,390.96,220.79,56.25,368.16-54.86,295.81-284.93,219.29,117.07,314.28,419.58,82.39,581.2-104.97,73.16-262.35,80.99-387.4,71.75-306.8-22.67-824.49-350.74-534.96-692.59Z"/>
</svg>