<?xml version="1.0" encoding="UTF-8"?>
<svg id="Capa_1" data-name="Capa 1" xmlns="http://www.w3.org/2000/svg" viewBox="0 0 466.35 466.35">
  <defs>
    <style>
      .cls-1 {
        fill: #18201a;
      }
    </style>
  </defs>
  <path class="cls-1" d="M178.67,292.99c7.19,21.22,21.08,35.63,37.15,38.54,14.45,2.62,29.31-4.36,41.83-19.67,19.76-24.15,30.41-59.98,33.78-85.45,2.09-15.81,3.08-45.72-3.19-58.64-.66-1.36-1.32-2.8-2-4.26-2.37-5.15-4.83-10.47-8.06-14.45-7.98-9.83-19.94-15.33-31.98-14.72-34.41,1.74-56.95,56.96-61.11,68.02-13.16,34.9-15.25,64.55-6.41,90.65ZM238.32,146.27c7.27-2.9,14.6-2.68,21.78.68,10.02,4.68,16.24,13.21,18,24.67,2.63,17.18-5.4,39.3-18.69,51.46-7.01,6.41-13.85,8.8-18.79,6.56-3.32-1.51-7.21-5.7-6.95-17.11l.04-1.58,1.51.46c5.49,1.66,11.65-3.26,14.67-8.72,2.22-4.03,3.26-9.48-.47-12.71-1.65-1.43-3.76-1.97-6.26-1.62-5.04.71-10.53,4.92-12.92,8.59-6.69,10.25-6.77,26.08-.19,35.29,3.28,4.59,9.56,9.45,20.83,6.59,9.63-2.45,18.69-10.76,27.7-25.41l2.49-4.05-.27,4.74c-.52,9.13-1.95,18.92-4.38,29.94-5.23,23.66-15.35,46.51-27.07,61.14-10.78,13.46-20.49,17.2-27.95,17.2-2.29,0-4.38-.35-6.21-.89-17.19-5.01-28.54-29.35-30.87-50.8-2.71-24.92,5.03-51.33,12-69.08,4.21-10.73,19.68-46.42,42-55.34ZM235.56,204.84l.09-1.27c.15-2,4.25-6.44,6.46-7.4,1.2-.52,1.98-.22,2.41.13l.71.57-.35.83c-.75,1.77-3.01,7.15-7.95,7.15h-.09l-1.28-.02Z"/>
</svg>