<svg xmlns="http://www.w3.org/2000/svg" xml:space="preserve" id="Capa_1" width="800" height="800" fill="#000" viewBox="0 0 316.112 316.112"><path d="M294.987 161.515c-6.793-1.615-13.675-3.056-20.074-5.938-3.575-1.606-6.871-3.396-10.608-4.638-9.208-3.066-18.778-5.145-28.252-7.189-13.984-3.013-27.891-5.341-42.106-6.755a8423 8423 0 0 1-17.849-1.791c-2.351-.236-4.708-.478-7.056-.724-.776-.082-1.542-.163-2.319-.25-.395-.042-1.202-.278-.399-.037q.755.751 1.503 1.499c-1.833-8.609-3.334-17.533-3.214-26.365.059-4.328.835-8.622 1.56-12.874.582-3.423.771-7.149 2.457-10.258 2.119-3.91 6.781-4.472 10.751-5.083 3.61-.56 7.238-.984 10.866-1.391 18.918-2.145 37.917-3.55 56.83-5.709 3.26-.373 6.52-.769 9.763-1.291 1.706-.273 3.56-.504 5.124-1.307.992-.509 1.591-1.772 1.633-2.837.099-2.328-1.9-3.396-3.833-4.011-4.854-1.536-10.455-1.784-15.49-2.467-10.31-1.392-20.641-2.649-30.987-3.698-6.72-.678-13.506.152-20.247.399-9.926.359-19.864.549-29.774 1.128-3.323.194-6.176.956-9.386 1.858-2.606.732-5.268 1.441-7.966 1.77-3.642.44-7.314-.541-10.781-1.549-1.958-.57-6.14-2.929-8.068-1.761.656-.399.16-.087-.169-.016-.419.088-.842.154-1.267.212-2.405.357-5.651.604-8.36.835-9.053.764-18.121 1.349-27.176 1.984-7.656.536-15.336.981-22.971 1.822-4.895.538-9.706 1.764-14.496 2.871-8.467 1.951-16.864 4.187-25.26 6.428-4.798 1.279-13.082 1.774-14.455 7.719-.774 3.354 1.189 4.483 4.05 4.821 7.008.822 14.598-.563 21.554-1.327 9.294-1.017 18.567-2.248 27.856-3.321 3.202-.373 6.407-.743 9.627-.947 6.3-.397 12.738.554 18.995 1.173 4.021.397 8.058.617 12.079.992 2.708.254 5.354 1.2 7.322 3.108 3.896 3.775 3.94 10.535 4.347 15.551.711 8.675.902 17.405 1.308 26.098.461 9.901.834 19.84 1.815 29.71.77 7.704 1.743 15.383 2.507 23.093.854 8.635 1.457 17.329 2.638 25.928.585 4.269 1.312 8.521 1.646 12.818.349 4.478-.061 9.009-.184 13.486-.242 8.678-.215 17.365.254 26.042.447 8.33 1.73 16.5 2.767 24.761.882 7.024.8 14.527-3.483 20.521-3.226 4.508-1.758 9.333 3.625 10.972 5.089 1.548 11.635-.273 13.63-5.55 1.056-2.781 1.082-5.758.791-8.687-.408-4.116-.898-8.074-.725-12.227.354-8.72 2.417-17.454 3.755-26.053 1.318-8.483 1.791-16.877 2.092-25.449.257-7.396 1.765-14.636 2.161-22.017.527-9.736.958-19.475 1.404-29.218q.313-6.866.622-13.732c.103-2.236-.472-6.583 2.045-7.722q-.828.104-1.656.211c1.811.408 3.821.33 5.664.439 4.214.257 8.429.488 12.644.719 11.102.61 22.193 1.218 33.292 1.891 5.155.31 10.32.813 15.48.854 7.265.06 14.53-.691 21.78-1.07 6.797-.346 13.328-.252 19.937 1.527 7.905 2.132 15.244 5.528 22.908 8.305 5.68 2.054 11.953 1.014 15.187-4.394 2.883-4.816-3.391-10.601-7.658-11.892-2.662-.803-3.791 3.348-1.145 4.147 1.963.587 3.807 2.451 4.876 4.132 1.119 1.758-1.407 3.683-2.882 4.271-3.08 1.244-6.65-.085-9.5-1.296a212 212 0 0 0-11.435-4.51c-6.619-2.372-13.343-4.379-20.403-4.719-7.098-.336-14.236.399-21.318.834-11.496.703-22.877-.33-34.347-.998-10.688-.618-21.381-1.196-32.069-1.794-3.055-.174-6.117-.333-9.178-.554q-.466-.035-.935-.076c-.2-.016-.585-.097.273.042-.473-.074-.703-.134-1.175-.005-2.549.698-4.3 3.943-4.442 6.415-.391 6.734-.617 13.48-.929 20.215-.441 9.596-.866 19.191-1.392 28.771-.425 7.807-1.936 15.449-2.183 23.292-.287 8.909-1.103 17.561-2.528 26.358-1.336 8.269-3.12 16.63-3.315 25.029-.087 3.722.499 7.333.866 11.023.305 3.081.283 7.145-2.748 8.871-2.2 1.249-6.203 1.146-8.192-.467-1.601-1.291 1.919-5.423 2.52-6.578 3.322-6.373 3.139-13.779 2.27-20.708-1.05-8.331-2.265-16.542-2.722-24.94-.467-8.667-.407-17.366-.166-26.048.113-4.152.41-8.294.155-12.446-.262-4.331-1.047-8.635-1.662-12.925-1.272-8.902-1.848-17.932-2.729-26.881-1.182-11.985-2.714-23.896-3.412-35.915-.62-10.633-1.039-21.276-1.544-31.918-.163-3.423-.307-6.854-.584-10.269-.447-5.47-.845-11.286-3.801-16.071-2.811-4.548-7.816-6.226-12.879-6.693-8.698-.805-17.465-1.74-26.195-2.107-6.99-.289-14.074.974-20.987 1.819-9.407 1.145-18.808 2.359-28.241 3.237-3.607.33-7.229.632-10.854.671-.871.011-2.585-.044-2.971-.097a5.7 5.7 0 0 1-1.01-.233c.553.184-.066-.139.446.281.842.692.343.522.842-.467.457-.898 1.898-1.194 2.754-1.452 1.764-.538 3.569-.963 5.349-1.436 4.365-1.165 8.727-2.333 13.105-3.472 8.402-2.194 16.84-4.247 25.35-5.971 4.047-.825 8.822-1.05 13.326-1.399 7.155-.553 14.314-1.031 21.476-1.53 6.756-.476 13.512-.942 20.265-1.533 2.165-.188 4.33-.386 6.488-.661 1.191-.15 2.714-.189 3.788-.832-.554.067-1.1.144-1.654.215 6.299 1.939 12.767 4.529 19.476 3.557 2.688-.387 5.315-1.053 7.927-1.775 1.108-.305 2.21-.627 3.312-.95.391-.113 2.016-.538 1.74-.512 8.721-.966 17.651-.848 26.418-1.144 5.122-.171 10.246-.344 15.364-.585 2.688-.124 5.453-.554 8.142-.344 9.203.719 18.389 1.956 27.539 3.124 5.327.676 10.656 1.391 15.964 2.22a94 94 0 0 1 3.727.638c.667.128 1.312.312 1.958.517 1.003.318-.231.059.089-.635.257-.543.693-.627.641-.606-.341.134-.709.221-1.06.312-6.059 1.51-12.515 1.854-18.7 2.494-18.846 1.966-37.764 3.338-56.556 5.756-3.051.394-6.11.8-9.123 1.404-5.481 1.092-9.318 4.557-11.009 9.849-1.108 3.467-1.37 7.365-1.963 10.95-.704 4.294-1.237 8.608-1.192 12.969.088 8.504 1.605 17.157 3.371 25.454.151.73.808 1.3 1.496 1.499 1.732.509 3.841.437 5.627.621 4.021.412 8.041.815 12.068 1.223 6.887.695 13.769 1.404 20.661 2.054 6.62.627 13.197 2.011 19.722 3.273 10.221 1.984 20.416 4.186 30.489 6.833 4.834 1.272 9.9 2.503 14.441 4.661 3.616 1.713 7.093 3.504 10.893 4.806 4.809 1.644 9.821 2.683 14.761 3.859 2.709.648 3.849-3.499 1.155-4.144M165.154 25.218a21.16 21.16 0 0 1-20.904 20.906c-11.536.181-20.728-9.651-20.904-20.906-.183-11.535 9.649-20.727 20.904-20.905 11.536-.182 20.725 9.643 20.904 20.905.041 2.77 4.345 2.775 4.298 0-.184-11.955-8.496-22.259-20.252-24.716-11.587-2.417-23.693 4.112-28.202 15.008-4.646 11.22-.527 23.901 9.341 30.733 9.914 6.858 23.641 4.879 31.975-3.447 4.636-4.637 7.035-11.084 7.134-17.578.051-2.774-4.253-2.769-4.294 0"/></svg>