<?xml version="1.0" encoding="UTF-8"?>
<svg id="Capa_1" data-name="Capa 1" xmlns="http://www.w3.org/2000/svg" viewBox="0 0 466.35 466.35">
  <defs>
    <style>
      .cls-1 {
        fill: #18201a;
      }
    </style>
  </defs>
  <path class="cls-1" d="M240.02,115.69c1.44-.38,2.39,0,3.47.95,1.73,1.51,4.92,18.47,6.17,22.62,4.21,13.92,10.65,28.24,14.37,42,6.66,24.67.3,38.26-3.09,62.19-1.43,10.09-1.03,21.07-2.7,30.88-3.55,20.91-21.81,37.25-33.25,54.31-3.88,5.79-9.62,23.81-16.37,6.35-4.38-11.32-9.92-36.57-8.88-48.38,1.01-11.47,6.63-23.48,6.92-35.06.44-17.27-3.14-33.76-1.07-51.42,2.63-22.38,16.25-59.25,28.54-78.2,1.12-1.73,4.05-5.75,5.88-6.22ZM213.97,315.83c.64-14.16,6.49-27.71,9.24-41.75,5.68-29.02,4.64-58.89,6.38-88.36.84-14.17,2.47-28.44,3.57-42.58l-13.21,30.55c-12.85,27.01-3.72,55.89-5.93,84.01-.74,9.33-4.99,18.65-5.9,27.69s-.32,22.85,5.84,30.43ZM221.19,319.43c9.87-13.33,26.31-28.06,28.65-45.1,1.4-10.19,1.23-21.41,2.73-32.05,1.61-11.4,5.87-24.19,6.85-35.12,1.87-20.84-13.44-42.59-16.66-62.81l-3.44,15.13c-5.27,35.84-1.6,74.55-7.72,109.81-2.91,16.78-8.79,33.09-10.41,50.15Z"/>
  <path class="cls-1" d="M104.46,163.68c2.6-.64,4.57,1.44,6.38,2.82,17.26,13.16,55.05,55.83,63.77,75.37,12.47,27.95,8.65,52.37,9.34,81.81.09,3.85,3.99,16.08-1.92,17.16-2.12.39-18.9-14.26-22.59-16.65-12.62-8.17-27.51-12.62-37.12-25.26-18.92-24.88-10.84-59.73-13.91-89.23-.96-9.18-8.69-37.12-6.94-42.94.44-1.45,1.6-2.53,2.99-3.08ZM175.58,311.03c1.35-17.02,1.33-32.53-2.99-49.16-8.63-33.22-35.63-56.35-59.36-79.16-.19,10.53,3.03,21.37,3.64,31.73,1.68,28.57-6.03,60.4,16.16,83.39l38.98,23.98c-4.05-8.33-7.1-17.18-10.97-25.6-7.98-17.38-19.44-34.02-26.78-51.18-1.03-2.42-11.19-25.7-3.65-23.94l44.99,89.94Z"/>
  <path class="cls-1" d="M360.03,218.9c1.95-.57,4.24-.46,4.98,1.77,1.4,4.27-8.27,23.21-10.36,28.9-5.94,16.17-9.08,31.04-19.22,45.55-21.04,30.11-51.97,27.58-78.82,48.33-1.65,1.27-12.88,13.63-11.26,3.22.38-2.44,9.81-14.16,11.87-20.59,4.98-15.55,5.71-29.88,13.13-45.64,19.79-42.05,51.33-43.81,89.68-61.53ZM271.57,324.21c23.53-8.72,45.91-15.44,59.74-38,10.21-16.65,13.55-36.35,20.62-54.33-13.63,7.48-29.57,9.65-43.2,17.37-20.91,11.84-34.47,34.82-39.03,58.12-.24,1.24-1.7,5.04.65,4.85,11.14-17.52,25.83-35.37,41.37-49.19,2.59-2.31,15.89-14.56,18.63-10.76.14.93.02,1.83-.2,2.74-.95,3.98-19.35,19.46-23.82,24.2-12.97,13.74-25.25,28.64-34.76,44.99Z"/>
</svg>