<?xml version="1.0" encoding="UTF-8"?>
<svg id="Capa_1" data-name="Capa 1" xmlns="http://www.w3.org/2000/svg" viewBox="0 0 466.35 466.35">
  <defs>
    <style>
      .cls-1 {
        fill: #18201a;
      }
    </style>
  </defs>
  <path class="cls-1" d="M181.36,90.53c7.32-2.08,31.8,7.18,39.06,11.26,101.72,57.22,88.26,231.12-23.64,270.38-5.68,1.99-24.44,9.52-18.37-3.65,1.78-3.86,16.42-14.77,20.75-19.38,57.39-61.08,59.51-184.61-6.1-240.06-3.01-2.54-25.19-14.71-11.7-18.55ZM204.47,357.79c41.8-18.8,66.14-62.71,73.25-106.65,8.95-55.36-20.81-116.61-69.89-143.45l19.12,25.02c30.11,54.11,34.46,115.38,11.97,173.26-7.71,19.84-19.99,36.4-34.45,51.82Z"/>
</svg>