<?xml version="1.0" encoding="UTF-8"?>
<svg id="Capa_1" data-name="Capa 1" xmlns="http://www.w3.org/2000/svg" viewBox="0 0 2289.91 466.35">
  <defs>
    <style>
      .cls-1 {
        fill: #18201a;
      }
    </style>
  </defs>
  <path class="cls-1" d="M1127.34,50.11c70.74-4.92,128.29,36.48,160.5,96.93,65.37,122.67-35.31,307.69-186.85,262.68-186.04-55.26-150.29-347.32,26.35-359.61ZM1138.65,61.43c-173.12,9.56-203.75,270.45-42.91,329.33,144.54,52.92,240.5-119.16,178.14-237.82-23.27-44.28-82.81-94.41-135.22-91.51Z"/>
  <path class="cls-1" d="M1520.42,62.14c12.34-.03,34.58.61,46.35,2.84,3.58.68,6.05,3,5.48,6.85-.72,4.83-25.43,20.37-31.24,25.44-48.56,42.49-65.04,107.15-55.29,169.83,5.79,37.2,36.99,88.95,70.57,107.06,4.22,2.28,18.08,6.89,19.44,8.02,2.99,2.5,2.57,11.01-.97,13.61-8.68,6.36-54.25,9.11-66.14,8.28-44.21-3.08-78.47-31.39-103.84-65.73-45.29-61.29-40.14-154.71,3.26-215.79,30.38-42.76,59.08-60.27,112.4-60.41ZM1548.24,73.03c-37.2-4.35-72.5.26-101.77,24.99-112.6,95.14-53.57,314.38,99.21,291.31,1.65-.25,6.04-.65,5.78-3.06-25.29-12.05-43.75-34.18-57.36-58.11-24.45-42.99-29.78-85.58-21.3-134.38,8.83-50.77,36.99-88.17,75.44-120.74Z"/>
  <path class="cls-1" d="M378.01,388.48c2.32-2.76,10.81-4.76,14.58-7.19,48.37-31.19,77.66-79.95,81.82-137.79,3.83-53.25-17.02-121.35-65.71-149.01-7.04-4-26.85-10.83-31.19-15.63-9.6-10.62,10.7-14.11,17.17-15.17,57.76-9.46,123.74,15.83,154.32,66.54,79.76,132.25-5.06,298-166.71,271.61l-6.16-5.26c-.71-2.58.17-6.04,1.88-8.09ZM401.76,391.24c38.31,4.49,79.15-5.65,108.98-30.7,66.81-56.13,70.88-147.76,28.59-220.63-19.05-32.82-53.92-54.22-90.67-62.75-10.94-2.54-28.56-5.78-38.81-1.57,11.73,11.76,25.2,20.51,36.36,33.08,59.58,67.14,52.56,187.3-8.08,251.92-10.84,11.55-25.43,19.24-36.36,30.64Z"/>
  <path class="cls-1" d="M1905.68,386.81c1.2,1.91.09,9.46-1.23,11.59-7.37,11.84-68.7,3.66-82.51.29-170.21-41.55-139.84-345.26,47.74-336.74,5.87.27,33.15,2.37,22.59,13.06-3.89,3.94-18.1,11.29-24.24,16.12-84.61,66.53-87.7,224.44,7.75,281.18,4.53,2.69,29.01,13.1,29.89,14.5ZM1867.17,73.33c-108.3-2.16-159.8,108.27-141.37,203.49,9.62,49.72,46.13,92.21,94.93,106.93,19.08,5.75,41.03,9.14,60.98,9.26.97-4.64-1.52-2.55-3.49-3.71-55.92-32.71-82.39-76.57-85.4-142.34-3.06-66.91,11.51-116.4,61.42-161.55,1.6-1.45,15.4-9.93,12.93-12.08Z"/>
  <path class="cls-1" d="M857.8,361.13c-19.07,18.61-62.46,40.49-89.01,42.61-7.12.57-53.12.42-55.59-3.48-6.2-9.78,12.88-15.4,18.66-18.91,98.18-59.61,97.13-226.9,6.85-293.19-5.04-3.7-21.07-11.59-23.23-13.92-3.07-3.31-2.52-9.48,1.84-10.98,4.34-1.5,45.84-.8,52.83-.06,137.83,14.45,181.84,206.05,87.66,297.94ZM742.08,390.76h29.88c21.25,0,56.33-20.44,71.9-34.69,84.42-77.27,62.54-221.86-39.3-272.38-4.72-2.34-35.67-12.62-39.06-12.62h-25.03c5.82,8.9,16.23,13.45,23.46,20.95,62.8,65.2,72.17,173.4,25.67,250.17-13,21.47-27.03,34.37-47.51,48.58Z"/>
  <path class="cls-1" d="M2201.06,62.17c5.7-.59,14.25.1,10.89,7.61-1.77,3.96-20.65,15.06-25.85,19.46-76.45,64.71-78.02,220.89.74,286.57,4.95,4.13,43.82,26.45,17.05,28.35-70.29,4.99-130.67-88.6-135.01-151.01-5.55-79.78,44.75-181.92,132.17-190.98ZM2172.33,82.75c-9.47,2.68-20.6,11.31-28.22,17.79-81.81,69.63-84.77,197.96,0,266.32,9.6,7.74,18.5,14.34,30.63,17.82l-19.9-22.09c-43.13-56.89-47.57-128.32-28.16-195.52,9.04-31.28,23.56-60.38,45.65-84.32Z"/>
  <path class="cls-1" d="M81.89,60.97c8.84-2.52,38.39,8.67,47.15,13.6,122.81,69.08,106.55,279.02-28.55,326.42-6.85,2.4-29.51,11.5-22.18-4.41,2.15-4.66,19.83-17.83,25.05-23.39,69.29-73.74,71.84-222.87-7.36-289.82-3.63-3.07-30.41-17.76-14.13-22.39ZM109.8,383.62c50.46-22.7,79.85-75.7,88.43-128.75,10.81-66.83-25.12-140.77-84.37-173.18l23.09,30.2c36.35,65.33,41.61,139.3,14.45,209.17-9.31,23.96-24.14,43.95-41.59,62.55Z"/>
</svg>