<?xml version="1.0" encoding="UTF-8"?>
<svg id="Capa_1" data-name="Capa 1" xmlns="http://www.w3.org/2000/svg" viewBox="0 0 466.35 466.35">
  <defs>
    <style>
      .cls-1 {
        fill: #18201a;
      }
    </style>
  </defs>
  <path class="cls-1" d="M377.66,180.24c1.35,1.47,26.18-11.8,34.61-.42,12.18,16.44-22.41,36.51-31.01,47.18l29.39-2.14c5.6,1.13,10.6.94,14.32,5.83,12.89,16.91-14.55,26.86-26.27,31.15-37.21,13.6-84.08,29.27-122.09,39.85-28.45,7.92-42.05,1.88-69.01-5.99-46.3-13.52-82.51-35.86-131.34-18.01-4.65,1.7-18.03,9-20.82,9.28-6.21.61-10.53-3.47-4.51-8.22,7.56-5.95,52.11-18.37,62.15-18.2,9.94.17,26.57,5.16,36.67,7.82,37.26,9.84,74.45,28.77,113.23,28.07,44.97-15.84,94.23-27.15,138.64-43.7,5.51-2.05,21.51-8.04,17.49-16.14-4.92-5.37-11.27-5.12-18.03-4.78-49.47,2.49-93.69,28.43-145.81,18.61-19.03-3.59-38.72-12.06-58.3-13.68-6.93-.57-19.17,1.17-24.78-.4-6.98-1.95-.45-7.5,5.75-8.14,36.01-3.76,71.28,18.67,105.55,15.57,13.42-1.22,29.78-8.41,15.04-22.19-14.29-13.36-48.74-15.96-68.12-21.84-56.81-17.25-72.19-45.07-137.66-23.13-7.46,2.5-50.74,21.72-54.56,18-.74-3.99,1.59-4.35,4.35-5.84,19.38-10.45,65.85-26.64,87.43-27.72,48.21-2.41,94.65,38.62,145.12,40.82,18.94.82,39.15-20.55,54.21-29.84,5.27-3.25,9.99-4.86,16.33-3.51,3.15.67,6.48,4.4,8.65,4.47,6.62.21,23.07-17.19,23.41,7.25ZM345.26,177.85c-5.33-2.38-9.66.63-14.41,2.96l-41.96,26.99c12.78.21,28.54-7.28,39.61-13.76,7.18-4.2,13.52-8.08,16.77-16.2ZM302.08,215.03l8.98,8.04c13.12-6.17,55.07-26.97,58.86-40.4,1.36-4.84.02-7.25-5.11-5.09-10.3,4.33-25.81,18.67-37.18,25.21-8.08,4.64-16.96,8.64-25.55,12.25ZM406.15,184.13c-.82-.81-2.84-1.34-4.01-1.43-14.24-1.16-40.5,21.38-53.38,29.22-10.19,6.21-30.29,13.76-35.64,23.14-.65,1.15-3.45,5.5-2.64,6.34,18.36-3.66,44.49-5.19,60.38-15.78,6.26-4.17,28.87-24.58,33.18-30.39,2.1-2.83,5.28-7.98,2.11-11.1Z"/>
</svg>