<?xml version="1.0" encoding="UTF-8"?>
<svg id="Capa_1" data-name="Capa 1" xmlns="http://www.w3.org/2000/svg" viewBox="0 0 600 600">
  <defs>
    <style>
      .cls-1 {
        fill: #18201a;
      }
    </style>
  </defs>
  <path class="cls-1" d="M417.45,271.45c-8.5-10.6-20.07-18.17-31.25-25.49-10.73-7.02-21.83-14.28-30.52-24.31-9.58-11.06-16.96-23.75-21.34-36.73,20.19-35.18,16.48-77.99-9.22-106.78,9.9-13.86,7.13-30.61-.09-41.15-7.93-11.58-20.68-16.33-34.11-12.7-9.12,2.46-19.97,12.44-20.27,21.6-.06,1.74.62,3.14,1.28,4.48.6,1.24,1.18,2.42,1.13,3.8-20.18.14-38.16,8.54-50.69,23.7-13.91,16.83-19.36,39.58-14.97,62.41,2.61,13.55,16.98,57.97,23.51,69.11,5.69,9.72,13.27,17.48,21.32,21.87,9.55,5.19,19.48,5.43,28.78.71,0,1.96-2.29,6.37-3.74,8.26-3.31,4.32-13.98,7.19-23.39,9.73-4.97,1.34-9.66,2.6-12.87,3.97-30.15,12.84-39.1,47.91-47.01,78.84-2.7,10.58-5.26,20.57-8.51,29.44-3.32,9.05-7.35,17.59-11.25,25.85-8.22,17.4-15.98,33.84-17.58,54.66-4.54,59.22,18.3,101.66,67.86,126.12,11.73,5.79,21.42,8.1,30.07,8.09,14.46,0,26.02-6.44,39.33-13.85,6.2-3.45,12.6-7.02,19.89-10.28,10.11-4.52,21.48-7.68,32.49-10.73,11.68-3.24,23.75-6.6,34.6-11.62,2.3,1.22,5.22,15.11,6.98,23.5,1.18,5.62,2.2,10.47,3,12.31.13.3.25.6.37.89.89,2.21,1.81,4.48,5.45,3.9,2.01-.47,2.3-4.74.94-13.83l-.06-.43c-.75-5.17-2.09-10.31-3.38-15.27-1.37-5.26-2.78-10.69-3.49-16.13,10.45-3.67,24.95-11.52,32.88-19.66,12.6-12.94,15.49-31.06,17.38-48.51,5.15-47.67,6.87-147.85-23.5-185.73ZM283.67,42.5c2.61-3.56,6.93-5.82,12.17-6.37.83-.09,1.66-.13,2.5-.13,5.82,0,11.73,2.05,15.59,5.5,8.58,7.69,7.94,17.38,6,29.21-3.14-1.36-6.13-3.12-9.02-4.82-2.51-1.48-5.1-3-7.82-4.29-1.4-.66-3.25-1.32-5.4-2.08-6.08-2.15-14.4-5.1-15.91-9.99-.65-2.1-.03-4.4,1.89-7.02ZM292.05,554.45c-9.45,5.95-18.37,11.58-31.24,12.86-9.47.94-17.68-1.15-26.37-3.37-1.52-.39-3.07-.78-4.63-1.17-.01-.23-.03-.44-.05-.63-.02-.28-.06-.62-.09-.64.06-.03.29-.08,1.18.04l1.37.17c8.37,1.06,17.86,2.28,24.96-3.38l.42-.34-.29-.46c-3.16-4.98-6.32-4.08-9.99-3.05-1.61.45-3.43.97-5.48,1.04-5.17.19-16.02-.81-21.21-1.57-3.02-.44-7.24-1.33-9.12-3.91-.83-1.14-1.15-2.51-.96-4.17,3.45-.06,6.93.34,10.3.69,4.5.46,9.16.94,13.87.55,6.67-.56,11.87-2.76,17.38-5.1,1.76-.75,3.58-1.52,5.47-2.24.88-.34,2.12-.58,3.43-.84,4.11-.82,9.74-1.94,9.4-7.29-.07-1.03-2.27-4.96-3.37-4.96-1.49,0-3.62.09-5.87.18-5.24.22-11.75.48-14.34-.15-.28-.16-.98-.94-1.28-1.42,2.14-.78,4.15-1.66,6.1-2.51,3.65-1.6,7.1-3.1,11.25-3.97,6.27-1.31,12.79-1.36,19.1-1.42,9.14-.08,18.59-.16,27.09-4.14,12.8-6,26.4-16.39,39.55-26.44,11.07-8.46,22.52-17.21,33.34-23.18,5.3-3.92,5.85-12.19,6.26-18.23v-.18c1.62-24.1-2.7-66.69-7.58-89.83l-.24-1.16c-.71-3.51-1.59-7.87-4.29-9.49-1.2-.72-2.64-.83-4.29-.33l-.46.14.03.48c.73,11.26,2.1,22.75,3.42,33.85,2.93,24.67,5.97,50.18,2.33,75.21l-72.18,50.92c-6.54,2.76-15.02,2.89-23.23,3.01-5.33.08-10.83.16-15.71.98-8.56,1.43-17.47,4.99-25.76,10.31-1.09-.28-4.62-4.41-6.55-6.67-1.43-1.68-2.67-3.12-3.45-3.83-5.78-5.23-11.5-8.01-17.57-10.95-2.92-1.41-5.93-2.88-8.99-4.65-10.53-6.11-10.47-7.58-9.98-19.11l.06-1.42c1.14-27.71,16.24-57.41,39.42-77.49,1.01-.87,2.93-2.13,4.97-3.47,4.6-3.02,7.66-5.11,8.2-6.62,1.32-3.67-1.47-5.28-4.17-6.84-1.27-.73-2.59-1.49-3.61-2.49-18.59-18.03-9.26-37.49.95-52.43,1.18-1.73,3.74-4.7,6.45-7.85,4.62-5.37,9.41-10.92,9.99-13.22.47-1.84-.06-2.94-.58-3.55-.83-.96-2.25-1.37-4-1.18-6.26.71-24.79,27.94-27.37,33.51-9.25,19.97-6.09,37.05,9.4,50.79l-.09,2.2c-15.58,7.59-27.47,24.9-33.19,34.59-13.54,22.91-17.88,47.41-13.29,74.92l.08.46.46.04c2.63.24,4.13,1.7,5.86,3.39,1.07,1.04,2.18,2.12,3.64,2.97,3.77,2.18,8,3.99,12.09,5.74,7.54,3.22,15.33,6.55,21.05,12.47,2.75,2.84,3.3,4.33,3.28,5.08,0,.16-.04.31-.1.43-2.14-.77-5.5-2.56-9.05-4.46-5.5-2.93-11.18-5.96-13.77-5.98-1.81,0-3.25.95-3.98,2.65-.89,2.09-.44,4.64,1.1,6.22,3.99,4.08,22.36,9.08,33.34,12.06,2.32.63,4.27,1.16,5.63,1.56.57.17,1.01.18,1.31.19.04,0,.09,0,.13,0,.02.24-.02.71-.06,1.11-2.41.23-4.85.5-7.2.77-4.72.54-9.61,1.09-14.42,1.26-2.21.09-4.42-.2-6.55-.47-4.34-.55-8.82-1.12-13.84,1.12-1.02.46-1.68,1.15-2.25,1.75-.9.94-1.43,1.51-2.92,1.01-11.01-3.69-27.77-35.48-31.18-47.31-12.76-44.27-1.89-68.73,11.87-99.69,4.58-10.31,9.32-20.97,13.64-33.35,2.98-8.53,5.27-17.78,7.7-27.58,7.65-30.87,15.56-62.78,45.94-75.2,3.75-1.53,8.03-2.67,12.16-3.77,12.67-3.37,25.77-6.86,28.69-22.16.03-.15,2.57-15.54-2-16.61l-.25-.06-.22.14c-12.92,8.63-22.96,13.91-34.66,3.11-13.45-12.42-16.72-22.51-21.68-37.79-.57-1.76-1.16-3.59-1.8-5.49-1.72-5.17-3.51-9.99-5.24-14.65-8.32-22.38-14.9-40.05-1.33-66.34,9.13-17.69,24.36-28.6,42.88-30.74,20.24-2.32,40.93,6.36,55.34,23.27,19.09,22.39,23.12,54.41,10.65,83.85l-10.09-24.16c-6.97-11.92-19.31-13.83-32.37-15.86-6.65-1.03-13.54-2.1-19.68-4.6-10.42-4.25-16.05-10.18-22-16.46-3.06-3.22-6.22-6.56-10.2-9.88-.75-.63-1.67-.98-2.48-1.28-1.58-.59-2.33-.94-2.18-2.3l.12-1.03-.95.41c-1.26.55-2.08,1.42-2.44,2.59-1.04,3.38,2.1,8.29,3.98,11.23l.1.16c7.97,12.48,26.3,24.84,42.63,28.76,5.86,1.41,10.84,1.89,15.24,2.32,11.92,1.16,19.11,1.87,27.14,19.33,4.16,9.03,6.97,17.51,9.7,25.7,6.34,19.08,11.82,35.56,31.32,52.38,6.45,5.56,14.12,10.03,21.54,14.36,7.52,4.38,15.29,8.91,21.57,14.49,24,21.34,34.95,75.71,31.68,157.24-1.18,29.4-4.21,49.69-8.99,60.29-10.81,23.95-51.56,37.07-84.3,47.62-12.24,3.94-23.8,7.67-32.32,11.48-5.92,2.65-11.12,5.93-16.15,9.09Z"/>
  <path class="cls-1" d="M344.75,396.11c-11.06,2.63-26.24,1.39-35.21-7.3-.87-.84-2.16-2.91-3.52-5.09-2.63-4.21-5.61-8.99-8.19-9.55-.63-.14-1.22-.03-1.74.31l-.21.14-.05.25c-1.13,6.13.62,12.36,5.08,18.03,6.13,7.79,16.58,13.38,26.02,13.9.41.02.91.04,1.48.04,4.64,0,14.08-.84,17.59-4.16.96-.91,1.45-1.95,1.45-3.1v-.18s-2.27-3.37-2.27-3.37l-.4.1Z"/>
</svg>