<?xml version="1.0" encoding="UTF-8"?>
<svg id="Capa_1" data-name="Capa 1" xmlns="http://www.w3.org/2000/svg" viewBox="0 0 600 600">
  <defs>
    <style>
      .cls-1 {
        fill: #18201a;
      }
    </style>
  </defs>
  <path class="cls-1" d="M406.64,496.44c-1.57-4.41-3.2-8.97-4.67-13.45,21.4-52.26,49.34-129.18,45.59-194.48-1.86-32.33-14.6-55.13-41.31-73.85,10.34-27.69-5.04-47.04-19.92-65.76-5.5-6.92-11.19-14.09-15.45-21.54-4.63-8.11-8.22-16.48-11.7-24.58-7.42-17.3-14.43-33.63-30.64-47.32-19.89-16.78-44.53-20.26-69.39-9.78-31.71,13.37-56.45,46.89-58.82,79.72-.6,8.35.31,17.59,1.27,27.37,1.73,17.52,3.51,35.63-3.79,48.95-2.48,4.53-5.74,8.7-9.19,13.13-3.76,4.83-7.66,9.82-10.41,15.28-11.24,22.28-7.94,43.75,10.08,65.62-2.91,5.21-6.08,10.42-9.15,15.46-6.24,10.24-12.68,20.82-17.34,32.1-14.18,34.33-12.8,72.25,3.99,109.66,8.03,17.89,20.28,32.05,32.15,45.73-1.1,4.73-2.41,9.63-3.69,14.38-2.95,11-6.01,22.37-6.93,33.46-.04.5-.97,12.16,2.54,13.57.24.1.49.15.75.15,1.08,0,2.29-.85,3.69-2.58,1.62-2,2.91-11.48,4.31-22.72.44-3.52.82-6.56,1.12-8.22,2.19-12.18,4.35-21.41,5.41-23.22,8.52,8.29,20.22,14.29,29.94,15.35,8.27.91,21.96-1.62,27.46-2.75,6.63-1.36,12.5-3.2,19.93-6.26-.47.92-.96,1.85-1.45,2.78-5.29,10.03-10.76,20.4-1.31,30.61,5.93,6.41,31.37,17.03,39.45,16.46,4.84-.34,12.6-4.81,14.41-9.36,5.05-12.69-8.76-21.61-16.37-26.45l-.34-1.2c11.88-14.13,17.51-28.22,16.74-41.88,3.38,1.49,6.47,3.61,9.46,5.66,2.77,1.9,5.64,3.86,8.77,5.37,15.95,7.68,28.62,7.69,42.3.04,4.28,3.02,10.96,31.45,13.41,44.25.06.3.15,1.14.26,2.21,1.06,10.1,2.65,20.58,6.39,21.69,1.21.36,2.48-.26,3.76-1.84,4-4.91-1.76-30.82-2.01-31.92-2.27-10.13-5.85-20.14-9.31-29.82ZM389.55,481.83c-17.6,14.49-44.56-5.25-59.04-15.85-8.89-6.51-17.52-14.6-25.86-22.42-9.79-9.18-19.92-18.68-30.5-25.62-6.03-3.96-12.78-6.67-19.31-9.29-6.8-2.73-13.84-5.55-20.33-9.84-5.83-3.85-11.04-8.68-16.07-13.34-5.01-4.65-10.19-9.45-15.96-13.28-.96-.85-1.32-2.94-.73-4.3.34-.79.92-1.19,1.7-1.19.07,0,.14,0,.21,0,.77.12,3.75,2.06,6.62,3.95,8.97,5.87,16.62,10.54,19.41,8.46,1.14-.85,1.29-2.6.46-5.33-.6-1.99-7.98-6.59-20.52-13.86-1.96-1.14-3.55-2.06-4.41-2.6-.91-.56-1.38-1.05-1.44-1.48-.1-.64.68-1.54,1.67-2.69l1.57-.46c.96.36,1.93.69,2.89,1.02,1.87.65,3.8,1.31,5.63,2.14,1.06.48,2.55,1.39,4.13,2.35,4.4,2.69,9.88,6.03,12.88,4.48,1.21-.62,1.89-1.95,2.02-3.93l.02-.37-25.93-15.05c-.11-1.46.85-3.21,2.17-3.86,5.05-2.46,13.83,2.88,20.88,7.17,5.95,3.62,10.64,6.48,12.94,4.79,1.5-1.62,2.01-5.37.96-7.16-.68-1.16-5.23-3.32-14.74-7.63-6.08-2.76-14.41-6.54-14.98-7.59-.15-.28-.1-.44-.04-.55.54-.96,3.76-1.52,4.95-1.58,11.15-.58,40.61,18.98,48.14,26.8,4.53,4.69,8.59,11.51,12.53,18.09,3.25,5.44,6.61,11.07,10.21,15.47,15.44,18.86,31.48,23.2,48.47,27.8,10.07,2.72,20.47,5.54,31.24,11.56,1.08.6,2.47,1.72,3.93,2.9,3.63,2.92,7.73,6.22,11.02,5.28,2.66-.77,2.13-2.98,1.81-4.3-2.03-8.38-17.69-17.53-25.56-19.44,2.69-5.24,4.15-10.99,5.31-16,4.33-18.77,12.76-60.15,13.63-82.43.41-10.48-.94-12.03-2.16-12.21-3.11-.45-6.09,10.57-6.66,12.79-3.29,12.85-5.16,26.77-6.96,40.23-1.46,10.9-2.97,22.17-5.23,32.77l-.27,1.3c-1.18,5.62-3.63,17.31-6.11,20.47-1.51,1.93-13.25-1.31-20.26-3.25-3.63-1-6.83-1.88-8.66-2.16.41-1.59,1.47-2.76,2.66-4.09.92-1.02,1.87-2.07,2.6-3.42,1.04-1.89,1.7-3.92,2.35-5.88.67-2.03,1.36-4.12,2.46-6.09,1.81-3.23,4.97-6.36,8.03-9.38,4.26-4.21,8.66-8.56,9.98-13.58,2.52-9.54.16-17.4-6.65-22.15-7.91-5.52-20.41-5.42-28.45.22-6.81,4.77-9.26,12.4-6.94,21.51l-17.3,16.12-18.66-23.17c.91-.06,1.78-.11,2.62-.15,5.86-.31,10.1-.53,15.64-4.79,8.05-6.18,12.28-16.43,11.03-26.73-1.02-8.45-.84-8.99.15-11.99.5-1.51,1.18-3.58,2.01-7.43,3.13-14.46,2.15-29.44-2.74-42.19-5.4-14.07-15.15-24.56-28.21-30.36-20.68-9.18-42.56-6.35-58.53,7.56-16.85,14.67-23.37,37.8-17.1,60.5-.79.04-1.14-.36-1.72-1.02-.21-.23-.42-.48-.68-.73-10.35-10.07-19.71-29.53-17.47-44.69,1.68-11.33,8.6-20.62,15.29-29.61,6.09-8.18,12.39-16.63,14.75-26.62,2.58-10.9,1.19-23.36-.17-35.4-.99-8.82-2.01-17.94-1.43-26.27,2.45-35.19,29.27-69.01,62.38-78.66,24.91-7.26,47.7,1.01,64.18,23.29,7.6,10.28,12.73,22.25,17.7,33.84,3.61,8.42,7.34,17.13,11.99,25.13,4.31,7.41,9.21,13.49,13.94,19.36,9.05,11.22,17.6,21.83,20.2,39.76.32,2.2.32,4.46.33,6.65,0,3.01,0,6.12.82,9.18-18.53-8.96-50.48-29.39-58.66-52.21-2.41-6.73-1.83-9.07-.95-12.6.43-1.74.92-3.71,1.2-6.57,1.25-13.21-6.11-32.14-17.83-37.7-4.79-2.27-12.33-3.18-21.01,5.4-1.61,1.6-2.87,3.74-4.09,5.81-2.07,3.52-4.03,6.85-7.46,7.32-11.43,1.54-25.86-2.48-31.54-4.28-3.32-1.05-7.56-3.16-11.66-5.2-5.21-2.59-10.13-5.04-13.61-5.66-2.06-.37-3.37-.04-3.88.97-1.02,1.99,1.87,5.73,3.42,7.23,12.44,11.99,56.01,21.48,69.68,9.12,1.29-1.17,2.57-2.96,3.93-4.86,2.81-3.93,5.99-8.37,9.94-8.19,7.57.36,16.15,18.76,16.26,26.4.06,3.92-.67,6.69-1.38,9.36-1.19,4.5-2.31,8.75.62,17.47,7.1,21.12,28.28,34.75,48.77,47.94,17.49,11.26,35.58,22.9,45.34,39.24,25.53,42.73-2.54,146.96-20.95,196.11l-.09.25c-2.86,7.63-11.55,30.83-16.82,35.17ZM231.44,505.72l2.63,3.08c-23.46-6.48-53.84-33.94-66.97-80.4-8.41-29.77-11.56-68.07,28.75-126.56,1.32.47,5.49,2.53,5.93,2.95.71.96,7.79,16.97,7.92,18.31-.1.61-2.48,8.41-2.73,8.96-.13.24-.63.5-1.08.74-.65.34-1.39.73-1.81,1.37-6.54,9.84-9.45,22.49-12.27,34.73-.76,3.29-1.48,6.41-2.26,9.44-7.35,28.52-3.07,48.75,3.38,58.18,4.5,6.58,11.06,10.43,19.51,11.44,2.39.29,5.85.37,9.85.47,13.2.33,33.15.84,36.91,9.51.24.56.25.8.28.84-.22.06-.9-.13-1.23-.22-.33-.09-.64-.17-.9-.2l-2.31-.2c-1.8-.15-3.63-.31-5.38-.5-1.6-.18-5.66-1.13-9.24-1.96-5.63-1.32-7.23-1.66-7.71-1.54-1.62.39-2.23,1.41-2.45,2.19-1.15,3.99,4.78,11.81,6.47,13.55,8.51,8.75,17.85,10.88,27.74,13.12,4.38,1,8.91,2.03,13.4,3.68,2.89,1.06,8.73,3.87,9.14,5.53.02.08.02.15,0,.22-4.07-.13-8.23-.06-12.25.01-11.95.21-24.31.43-35.67-4.69l-.47-.21-2.3,3.54v.18c0,.92.46,1.85,1.38,2.77,3.79,3.79,14.74,6.81,17.86,6.81h26.81c-1.57,1.27-4.5,2.55-6.87,3.36-13.03,4.45-27.26,3.72-41.17-2.13l-.47-.2-2.42,3.82ZM284.36,304.87c.66,4.96,3.56,6.97,6.36,8.91,3.13,2.17,6.09,4.22,5.52,10.6-.68,7.52-4.21,13.73-9.7,17.03-5.2,3.13-11.64,3.34-18.14.6-5.96-2.51-5.87-6.44-5.76-11.43.06-2.85.13-6.09-1.13-9.22l-.17-.41-.44.04c-5.6.47-5.43,4.99-5.29,8.63.05,1.19.09,2.32-.03,3.32-.03.25-.04.49-.05.73,0,.26-.02.67-.06.74,0,0-.19.07-.87-.2-2.41-.95-5.2-3.06-8.15-5.29-3.55-2.68-7.57-5.71-11.69-7.28-2.17-.82-5.49-1.31-8.69-1.78-3.35-.49-6.81-1-7.87-1.81-4.39-3.31-10.22-23.6-10.67-29.45-1.58-20.71,8.03-40.33,24.48-49.97,14.8-8.68,32.2-7.73,47.74,2.58,21.57,14.32,21.42,40.34,17.9,66.42l-13.4-3.65.12.89ZM331.24,342.47c4.48-.5,8.01.3,10.25,2.32,2.05,1.85,3.02,4.71,2.9,8.49-.19,5.62-4.49,10.17-8.64,14.57-2.26,2.39-4.6,4.86-6.21,7.46-.89,1.43-2.31,4.73-3.97,8.55-2.14,4.96-6.08,14.07-7.54,14.77-5.67-2.78-10.1-7.39-14.38-11.85-1.53-1.59-3.1-3.23-4.72-4.78.79-.97,3.92-3.66,6.71-6.07,5.12-4.41,10.93-9.4,12.1-11.68,1.55-3.02,1.91-6.92,2.26-10.7.27-2.98.56-6.05,1.43-8.57h2.51c.37,2.56,1.31,4.26,2.68,4.81.91.37,1.92.17,2.77-.54,1.21-1.01,2.37-3.37,1.85-6.79ZM287.01,518.38c1.76-2.72,3.59-5.53,4.72-8.69,2.97-8.3,2.62-21.15-3.12-27.45-3.09-3.39-11.48-4.95-19.6-6.46-4.61-.85-8.96-1.66-11.78-2.73-3.86-1.47-7.6-4-11.22-6.44l-.66-.44c1.96-.72,5.04-.66,8.28-.61,5.15.09,10.47.19,13.31-2.61,1.28-1.26,1.93-3.03,1.92-5.26-.03-9.09-23.12-18.29-30.18-19.05-4.21-.45-8.2.04-12.06.51-7.04.86-13.68,1.67-20.94-3.14-16.06-10.65-12.17-37.28-7.78-56.5,1.27-.47,6.65,4.26,16.03,14.03,1.64,1.71,2.82,2.94,3.41,3.46,14.49,12.8,21.12,15.39,32.1,19.67,4.05,1.58,8.64,3.37,14.47,5.98,13.6,6.09,26.87,19.26,38.58,30.87,2.94,2.91,5.71,5.67,8.41,8.23,2.23,2.12,4.45,3.69,6.41,5.07,5.04,3.56,8.68,6.13,9.07,14.84.65,14.63-7.35,25.07-15.82,36.11-1.46,1.9-2.92,3.81-4.34,5.74l-.1.14v.17c-.23,2.44,3.42,5.09,8.05,8.43,5.08,3.68,10.83,7.84,11.08,11.84.23,3.64-1.71,6.17-5.32,6.94-5.92,1.28-29.71-9.08-34-13.91-6.4-7.21-2.94-12.54,1.08-18.72Z"/>
  <path class="cls-1" d="M326.48,197.47c-4.28-1.19-8.6,7.16-12.06,13.88-1.03,2.01-1.93,3.74-2.59,4.72-4.6,6.79-8.54,10.94-10.83,11.36-10.26,1.9-22.93-10.11-28.27-18.83l-.31-.51-.51.32c-4.7,2.9-8.43,3.71-11.38,2.47-5.51-2.33-7.55-11.47-9.51-20.31-1.08-4.86-2.1-9.45-3.68-12.78-2.36-4.96-4.87-8.52-7.29-11.97-3.87-5.49-7.52-10.68-10.07-20.89-.55-2.22-.98-5.44-1.44-8.85-.75-5.63-1.53-11.46-3.03-14.18-.6-1.09-3.43-2.38-4.02-2.42h-.39s-.31.41-.31.41v23.59c0,10.8,5.98,18.87,11.76,26.67,3.14,4.23,6.1,8.23,8.08,12.56,1.57,3.43,2.43,7.86,3.33,12.55,1.98,10.24,4.23,21.85,15.18,23.69,1.46.25,2.86.19,4.21.15,1.91-.07,3.71-.13,5.78.55,1.91.64,3.93,2.71,5.88,4.72,1.3,1.34,2.52,2.6,3.72,3.44,7.73,5.49,14.46,8.19,20.41,8.19,1.54,0,3.03-.18,4.47-.54,7.49-1.88,13.89-8.59,20.14-21.12l.15-.3c2.18-4.36,6.7-13.42,2.81-16.48l-.21-.11Z"/>
  <path class="cls-1" d="M254.48,279.55c-4.82-1.49-10.76.6-14.44,5.05-4.21,5.09-3.54,15.46-.31,21.58,1.81,3.44,4.26,5.3,6.94,5.3.18,0,.35,0,.53-.02,1.57-.14,2.57-.65,3.05-1.55.94-1.77-.52-4.43-2.07-7.25-1.14-2.08-2.32-4.22-2.3-5.69.05-3.53,2.51-7.08,5.99-8.62,3.06-1.35,6.23-.89,8.69,1.29l1.14,1-.14-1.51c-.46-4.85-3.03-8.34-7.06-9.58Z"/>
</svg>