<?xml version="1.0" encoding="UTF-8"?>
<svg id="Capa_1" data-name="Capa 1" xmlns="http://www.w3.org/2000/svg" viewBox="0 0 466.35 466.35">
  <defs>
    <style>
      .cls-1 {
        fill: #18201a;
      }
    </style>
  </defs>
  <path class="cls-1" d="M166.2,359.67l6.98-13.99c25.21-28.51,24.23-53.66,29.15-88.39,10.9-76.96,66.32-87.33,126.98-117.74,2.35-1.14,6-.86,6.04,2.4.02,1.77-12.47,27.25-14.42,32.42-16.73,44.3-21.24,89.28-63.18,119.13-20.46,14.56-51.82,19.35-67.53,38.02-12.08,14.36-21.72,35.93-17.74,54.86.67,3.18,6.4,12.31,1.38,13.98-5.89,1.95-8.1-8.78-9.46-13.1-4.27-13.52-6.49-28.23-5.25-42.41,2.17-24.78,17.14-42.63,4.07-67.93-11.62-22.5-28.88-38.84-31.67-66.68-6.05-60.45,40.97-74.22,56.55-121.86,2.11-6.46,2.76-14.91,4.74-20.44.75-2.11,1.85-2.34,3.93-2.05l6.29,24.89c14.15,34.64,24.04,57.32,11.32,94.63-10.58,31.04-35.81,56.02-38.58,89.75-.79,9.64.84,20.19-.17,29.82-.9,8.61-5.09,18.12-6.7,26.89-1.68,9.13-2.34,18.55-2.74,27.82ZM163.79,260.74c-.41-8.72,0-17.64,0-26.38,0-15.5,11.25-35.26,16.15-49.82,8.14-24.19,10.68-49.49,12.7-74.85l-1.24-11.44c-15.56,36.19-55.98,61.48-52.78,104.91,1.62,21.96,13.68,41.07,24.59,59.36,4.76,3.08.61-1.23.58-1.78ZM172.18,230.75c-.71,7.03.52,15.03,0,22.19l6.99-15.19c18.99-32.33,44.32-68.84,29.31-108.05l-9.91-26.66c1.42,29.99-3.3,61.05-13.18,89.37-4.37,12.51-11.86,24.81-13.23,38.35ZM320.94,155.81c-.73-.71-8.66,5.24-9.98,6.2-41.16,30.16-59.02,71.78-82.63,115.27l-21.34,32.02c12.89-7.58,27.52-9.81,40.68-17.48,49.32-28.75,50.65-89.54,73.27-136.01ZM290.95,166.61c-3.13-2.43-41.99,22.58-47.18,26.57-37.44,28.75-30.75,64.59-39.18,106.53,26.8-34.29,39.79-76.85,67.2-110.9,1.74-2.16,20.32-21.3,19.16-22.21Z"/>
</svg>