<?xml version="1.0" encoding="UTF-8"?>
<svg id="Capa_1" data-name="Capa 1" xmlns="http://www.w3.org/2000/svg" viewBox="0 0 466.35 466.35">
  <defs>
    <style>
      .cls-1 {
        fill: #18201a;
      }
    </style>
  </defs>
  <path class="cls-1" d="M282.3,58.45c18.18-1.56,52.5,10.6,66.54,22.55,55.46,47.22,30.12,127.44,5.62,184-21.49,49.62-53.4,102.46-103.35,127.37-63.38,31.61-146.9,17.22-163.58-60.17-19.88-92.21,54.94-210.65,134.38-253.86,16.66-9.07,33.19-13.17,51.27-18.03,2.81-.76,6.26-1.61,9.12-1.86ZM276.37,77.88c-20.95,2.18-48.2,18.04-64.44,31.06-57.15,45.85-110.45,128.28-106.12,204.13,4.76,83.55,92.15,94.23,151.08,54.67,43.23-29.02,73.48-86.98,90.67-134.99,15.09-42.14,26.87-89.27-3.04-128-13.66-17.68-46.31-29.15-68.15-26.88Z"/>
  <path class="cls-1" d="M261.15,187.73c34.11-4.68,44.68,30.12,34.42,57.24-11.31,29.88-68.89,90.83-98.79,51.5-25.07-32.98,9.62-90.8,43.92-102.15,2.38-.79,4.99-.58,7.15-1.3,4.55-1.52,7.8-4.54,13.3-5.29ZM258.65,206.32c-3.12.24-11.36,2.29-14.39,3.4-12.66,4.68-33.03,38.03-35.78,51.28-3.61,17.41,2.56,35.25,23.51,27.74,21.1-7.57,60.39-50.52,47.57-74.22-3.71-6.85-13.75-8.75-20.92-8.2Z"/>
  <path class="cls-1" d="M247.59,235.87c12.64-2.86,9.05,13.57,2.82,15.5-11.85,3.68-12.14-13.39-2.82-15.5Z"/>
</svg>