<?xml version="1.0" encoding="UTF-8"?>
<svg id="Capa_1" data-name="Capa 1" xmlns="http://www.w3.org/2000/svg" viewBox="0 0 600 600">
  <defs>
    <style>
      .cls-1 {
        fill: #18201a;
      }
    </style>
  </defs>
  <path class="cls-1" d="M270.33,425.52c-1.6-1.69-6.6-4.91-9.03-6-1.3-.58-3.29-.98-5.03-1.33-1.03-.21-2-.4-2.81-.62-1.39-.38-3.07-.74-4.86-1.12-2.62-.56-5.33-1.13-7.06-1.8-3.79-1.45-6.05-6.26-7.43-9.74-1.59-4.04-2.82-8.7-4.01-13.2-.97-3.67-1.97-7.46-3.16-10.9l-.41-1.2c-9.25-26.74-12.71-36.75-41.25-46.14-.97-.32-2.05-.47-3.09-.62-2.98-.42-6.35-.9-6.16-5.79.13-3.29,3.18-4.43,6.14-5.53,1.54-.57,3.13-1.16,4.33-2.05,4.4-3.23,5.54-8.38,6.64-13.35.27-1.21.54-2.45.86-3.66-.11-.42-.35-1.56-.21-2.73.03-.46-.33-7.17-.42-7.79-1.09-7.66-8.44-26.01-15.22-30-4.97-2.92-9.74-4.39-14.26-4.39-2.04,0-4.02.3-5.95.89-8.35,2.58-15.78,10.72-22.09,24.19-1.93,4.12-3.48,8.77-4.97,13.28-1.77,5.34-3.61,10.86-6.1,15.58-2.64,4.98-6.6,9.01-10.44,12.9-5.25,5.34-10.21,10.37-12.05,17.63-.49,1.91-.21,6.97-.21,7.02v.08s-.01.08-.01.08c-.49,2.46,1.81,4.9,3.67,6.87,1.37,1.45,2.35,2.5,2.27,3.49l-.05.19c-.51,1.18-1.12,2.33-1.72,3.44-.64,1.19-1.31,2.42-1.81,3.67-3.56,8.78-14.37,35.48-8.66,48.73,1.98,4.59,6.22,9.6,10.8,12.77l.4.27-.18.45c-.81,1.97-1.65,3.94-2.49,5.9-5.77,13.5-11.73,27.46-5.85,42.45,4.72,12.02,18.77,20.24,30.2,22.15,2.13.36,4.92.42,7.61.49,2.61.06,5.07.12,6.85.43.38.07.85.42,1.87,1.23.83.65,1.85,1.46,2.55,1.77,26.71,11.93,61.39-3.04,86.72-13.98l2.88-1.24c1.85-.8,3.76-1.59,5.69-2.39,13.69-5.68,29.21-12.11,36.49-26.01,1.57-3,1.59-3.98,1.63-5.6.02-.77.04-1.64.2-2.88.15-1.11.43-1.83.69-2.47.44-1.1.72-1.82.02-4.04-.78-2.44-9.71-17.47-11.51-19.37ZM274.42,454.41c-4.36,10.6-19.8,18.46-31.03,23.45-12.34,5.48-24.26,10.35-33.57,13.69-12.37,4.44-24.74,8.39-39.23,8.39-2.68,0-5.42-.13-8.26-.43-8.2-.84-14.21-3.73-18.38-8.83-.92-1.13-1.58-2.35-2.23-3.53-1.57-2.89-2.7-4.97-6.49-4.25-.67.13-.87.45-.97.68-.4.94-.09,3.26,3.65,8.97l.76,1.16-1.33-.18c-1.39-.25-2.84-.43-4.38-.62-2.88-.36-5.87-.73-8.48-1.57-12.68-4.08-20.92-16.04-21.56-25.25-1.11-15.85,11.45-35.22,19.03-45.36,8.57-11.45,7.4-29.18,6.84-34.34-.48-4.39-2.3-13.23-3.94-13.78-.88-.3-1.61-.22-2.23.24-2.22,1.65-2.53,7.77-2.46,9.99,3.49,15.73.29,30.49-8.57,39.39l-.34.34-.41-.26c-2.38-1.5-10.12-6.98-9.92-14.79.27-10.35,5.7-26.24,8.86-34,1.93-4.72,4.44-10.47,5.44-11.06,2.19-1.28,7.41-.52,8-.43l.18.03.13.12c1.09.98,6.11.8,8.03.45,17.39-3.1,21.16-15.65,25.16-28.95,1.45-4.82,2.94-9.8,5.12-14.52.83-1.79,1.93-3.52,3-5.18,1.39-2.17,2.82-4.41,3.6-6.75.66-1.98,1.02-4.24,1.37-6.43.31-1.91.63-3.88,1.14-5.66.28-.98,4.1-12.54,4.66-13.26.27-.35.67-.22.84-.17.22.07.64.21.89.03.52-.36.9-.98,1.31-1.64.37-.6.76-1.22,1.28-1.7l.57-.52.36.69c2.95,5.56,4.7,11.72,5.08,17.83.56,9.07-.76,14.76-3.92,16.91-.34.23-1.11.41-2.91.8-1.43.31-3.21.69-3.98,1.05-5.47,2.59-7.42,10.58-5.51,15.98,1.9,5.38,10.85,8.68,18.75,11.59,3.51,1.3,6.83,2.52,9.14,3.81,14.6,8.18,19.02,24.68,23.3,40.64,2.98,11.12,5.79,21.62,11.83,28.92,3.95,4.78,9.69,5.9,15.77,7.09,4.98.97,10.12,1.98,14.37,5.13.6.45.91,1.01,1.15,1.46.16.29.29.54.47.71.27.25.35.59.23.91-.45,1.17-4.36,1.27-4.53,1.27l-1.52.03c-7.95.18-16.97.38-24.91-.71-14.25-1.95-19.5-3.34-25.75-17.49-1.84-4.16-3.4-8.49-4.92-12.68-2.28-6.32-4.64-12.85-7.99-18.89-2.13-3.84-4.24-5.46-5.23-5.08-.95.37-1.43,2.79-.36,7.36.85,3.63,2.38,7.59,3.86,11.43,1.2,3.11,2.44,6.33,3.31,9.34l.05.19-.07.18c-1.43,3.95-2.82,7.92-4.21,11.89-1.25,3.59-2.51,7.18-3.8,10.75-.19.52-.55,1.27-.97,2.14-1.28,2.66-3.43,7.11-2.46,9.32.26.6.75,1,1.49,1.23,5.09,1.55,11.34-.09,13.79-.88,1.19-.38,2.5-1.04,3.77-1.67,1.35-.68,2.74-1.38,4.08-1.79,7.13-2.23,11.53-.97,16.61.49,2.65.76,5.39,1.55,8.79,1.9,3.94.42,8.98.27,13.41.13l2.39-.07c.87-.02,2.78.45,3.32.59,6.14-.95,16.94-.01,20.96,5.05,1.91,2.41,2.14,5.41.69,8.94ZM199.36,419.36c-.09-.66-.2-1.42.33-1.9.55-.5,1.42-.3,1.71-.23l.3.07,5.6,13.26-.26.28c-.41.45-10.33,6.21-13.46,6.21-.16,0-.3-.01-.42-.05l-.67-.17,6.91-16.6c.08-.15.01-.61-.03-.88Z"/>
  <path class="cls-1" d="M471.29,345.97c-.25-.21-1.03-1-2.65-2.62-3.48-3.49-9.97-9.99-13.45-12.82-.76-.62-1.61-1.11-2.43-1.58-1.65-.95-3.36-1.93-4.37-3.96l-.13-.26.13-.26c.37-.75.83-1.57,1.31-2.43,1.38-2.46,2.95-5.25,2.95-7.69,0-1.15-.46-3.41-.67-4.49l-.1-.48c-.52-2.75-10.23-10.27-12.24-10.8-.81-.21-1.57-.54-2.31-.85-1.12-.48-2.19-.94-3.37-.97h-.25s-.17-.19-.17-.19c-.72-.78.19-1.98,1.25-3.37.46-.6,1.02-1.34,1.11-1.66,1.75-6.76-5.76-21.69-11.28-26.87-3.65-3.42-13.72-7.06-18.29-7.18-.79-.02-1.16,0-1.31.01l-.02.02-.2.02c-8.7.96-15.33,4.59-19.71,10.79-6.24,8.83-7.72,22.81-4.07,38.37,1.35,5.75,4.31,13.01,10.77,14.97,1.25.38,2.19.39,3.18.4.67,0,1.37.01,2.17.13.64.1,1.18.36,1.66.6.6.29,1.08.53,1.6.42.39-.07.79.02,1.1.26.3.24.48.59.5.97l.03.52c.07,1.16.15,2.47-.43,3.43-.82,1.36-5.3,2.9-11.55,4.91-2.53.82-4.92,1.59-5.88,2.07-10.75,5.39-20.03,27.74-25.02,39.74l-.53,1.27c-.65,1.57-1.37,3.2-2.1,4.85-1.35,3.07-2.75,6.25-3.79,9.17-.51,1.43-1.06,3.61-1.64,5.92-1.16,4.63-2.48,9.87-4.13,11.86-1.05,1.26-5.19,2.79-6.31,2.88h-.16c-14.82,1.31-31.62,2.78-34.75,19.98-.22,1.19-.38,2.12-.5,2.88-.54,3.19-.6,3.52-2.47,8.25-3.55,8.94-3.47,17.07.22,24.15,7.64,14.66,28.77,21.57,40.69,24.39,8.03,1.9,19.89,4.23,26.95,4.86,1.8.16,3.99-.05,6.11-.26,1.54-.15,3.02-.29,4.31-.29.74,0,1.42.05,2.01.17,2.06.41,4.6,1.66,7.05,2.87,1.77.87,3.59,1.77,5.15,2.3,6.92,2.39,18.76,5.09,25.81,5.3,11.19.32,20.11-1.36,26.52-5,.74-.42,1.96-1.58,3.15-2.7,1.69-1.6,2.77-2.6,3.49-2.81,1.33-.4,3.13-.34,5.04-.27,1.41.05,2.87.1,4.05-.06,3.35-.45,11.57-4.08,14.2-6.02,3.9-2.87,10.1-11.35,11.89-15.59,6.59-15.66-.4-31.68-7.47-45.46l-.23-.45.41-.3c3.75-2.77,9.06-10.43,10.14-14.65,3.13-12.19-5.15-40.52-10.83-51.23-1.63-3.08-8.28-13.6-10.14-15.17ZM486.31,407.74c.25.34.5.7.57,1.11.33,1.98-1.27,4.15-2.95,6.44-1.35,1.83-2.74,3.72-2.82,5.22v.23s-.17.16-.17.16c-.25.25-.58.36-.93.29-1.21-.22-3.05-3.14-5.48-8.66-1.4-3.18-2.8-7.04-3.58-9.84-1.04-3.73-1.68-7.85-2.29-11.84-1.11-7.18-2.26-14.6-5.79-20.03-.17-.25-.1-.51-.04-.77.18-.72.48-1.93-1.75-2.58-1.5-.44-2.58-.35-3.19.27-1.99,2.02.25,9.24,1.45,13.11.39,1.27.7,2.27.83,2.91.5,2.47.87,5.04,1.24,7.52.54,3.69,1.1,7.51,2.06,11.07,1.81,6.69,5.57,14.34,9.54,22.44,6.64,13.53,13.5,27.52,11.9,38.47-1.57,10.73-13.42,24.04-25.01,24.29l-.89.02.32-.83c1.14-2.99,3.13-9.74,2.54-11.77-.18-.61-.71-1.15-1.49-1.51-1.09-.5-2.5-.56-3.43-.14-.43.41-1.51,4-2.22,6.38-.65,2.15-1.26,4.19-1.7,5.11-2.28,4.7-6.49,8.48-11.53,10.38-4.78,1.8-10.22,2.58-16.01,2.58-23.33,0-52.46-12.8-68.3-24-.69-.49-2.02-1.65-3.54-2.99-2.57-2.25-7.36-6.45-8.46-6.49-.01,0-.03,0-.05,0-1.16,0-2.84,1.39-3.03,2.51-.74,4.52,5.66,8.68,11.31,12.35,3.28,2.13,6.38,4.15,7.86,6.1l1,1.32-1.62-.38c-2.78-.65-5.66-1.04-8.46-1.43-3.63-.5-7.39-1.02-11-2.09-12.28-3.64-28.54-11.73-33.96-22.56-3.45-6.9-1.72-9.01,1.73-13.23.47-.57.97-1.19,1.51-1.87.5-.64.73-1.12.94-1.58.56-1.18,1.04-1.98,3.75-3.38,6.97-3.61,17.44-2.21,27.56-.85,5.04.68,9.8,1.32,13.74,1.25,2.79-.05,6.08-1.01,9.27-1.94,3.61-1.06,7.03-2.06,9.89-1.88,3.51.21,7.45,2.02,11.62,3.93,5.02,2.3,10.21,4.68,14.33,3.9.48-.09.9-.42,1.27-.97,1.32-2,1.53-6.41,1.08-8.46l-10.55-37.51.02-.12c.29-2.14,2.19-5.21,4.4-8.76,3.27-5.26,6.97-11.23,5.01-13.99-.37-.52-.8-.79-1.3-.84-.85-.08-1.96.48-3.06,1.53-1.58,1.52-5.63,8.38-7.36,11.31l-.39.66c-1.94,3.28-4.15,8.04-6.48,13.08-5.44,11.74-11.6,25.04-18.37,28.99-6.23,3.64-11.95,3.49-18.78,2.91-.2-.03-16.9-2.42-24.46-1.99-1.09.07-2.18.31-3.33.57-1.88.42-3.83.85-5.8.47l-.79-.15,4-7.58c1.68-1.97,8.21-3.27,13.71-4.19l.24-.04c1.57-.26,3.32-.41,5.17-.58,6.13-.53,13.09-1.14,16.03-6.14,1.82-3.09,3.28-7.75,4.69-12.25.98-3.13,1.91-6.09,2.95-8.57l.41-.97c6.29-14.98,12.79-30.48,22.01-43.3.13-.18.16-.59.19-.95.04-.49.08-1,.34-1.42,1.48-2.38,7.39-4.33,13.1-6.22,3.57-1.18,6.94-2.29,8.66-3.34,5.45-3.32,4.95-9.55,4.47-15.57-.09-1.07-.17-2.13-.22-3.15-.87-1.01-5.23-1.57-8.45-1.99-2.85-.37-5.54-.72-6.83-1.35-6.53-3.2-8.2-28.21-5.63-34.31l.23-.55.55.23c1.83.75,3.47,2.09,5.17,4.21,1.67,2.09,2.81,4.03,3.9,5.9,1.7,2.89,3.3,5.63,6.66,8.29,4.07,3.23,7.16,3.53,11.07,3.92,1.83.18,3.91.39,6.32.92l.99.22-.67.76c-4.51,5.15-4.5,11.31.03,17.33,4.66,6.18,9.38,7.27,14.85,8.52,3.26.75,6.63,1.52,10.23,3.46,12.45,6.71,17.24,14.5,23.86,25.29.56.91,1.13,1.83,1.72,2.78,8.94,14.43,11.4,30.07,13.31,46.17.04.32.28.66.51.99ZM375.47,429.84l.84-1.09c3.34-4.34,5.76-9.37,8.11-14.24,1.1-2.29,2.25-4.66,3.47-6.94l.75-1.39,6.91,29.12-.98-.28c-2.13-.6-4.18-1.51-6.17-2.39-3.81-1.69-7.41-3.3-11.56-2.91l-1.37.13Z"/>
  <path class="cls-1" d="M556.08,318.2c-.57-2.39-2.53-6.6-4.43-10.67-2.04-4.37-3.8-8.15-3.9-9.73-.06-1,.41-2.74.95-4.76.45-1.68.92-3.43,1.02-4.61,1.5-17.36-10.06-61.75-19.95-76.62-5.26-7.91-14.28-14.87-23.53-18.17l-.62-.22.7-1.51c1.28-2.73,2.59-5.55,2.78-8.6.33-5.47-3.53-12.25-6.64-17.71-.47-.82-.92-1.61-1.33-2.35l-.19-.34c-5.24-9.47-16.13-29.17-26.24-32.46-9.65-3.14-26.89-4.06-34.83,6.26-5.65,7.34-9.6,25.22-6.24,39.15,1.72,7.12,5.14,12.08,9.91,14.33,1.83.87,3.81,1.21,5.55,1.52,4.1.72,7.97,1.39,6.74,8.78l-.08.48-.48.02c-1.08.05-2.18.02-3.24-.01-1.42-.04-2.89-.09-4.3.08-5.33.6-13.17,5.79-16.61,10.03-7.07,8.7-16.79,30.99-15.21,42.77.17,1.3,1.13,2.37,2.56,2.86,1.41.49,2.89.25,3.77-.6.97-.94,1.35-5.89,1.6-9.17.13-1.75.25-3.26.42-4.26,2.5-14.32,14.63-35.69,30.03-36.87,1.21-.09,2.47.12,3.69.33,3.22.55,5.07.7,5.72-2.54.45-2.25-2.72-14.07-4.25-15.81-1.2-1.37-3.65-1.86-6.24-2.38-2.58-.52-5.25-1.05-7.3-2.5-7.62-5.4-6.89-20.3-6.48-24.74.22-2.45,2.16-13.34,3.31-15.44.4-.72.97-1.17,1.7-1.34,1.52-.35,3.26.67,4.16,1.31,7.15,5.07,13.36,13.19,17.48,22.87.89,2.1,1.69,4.54,2.53,7.12,2.59,7.95,5.53,16.96,12.57,19.67,2.13.82,4.87,1.77,7.77,2.77,8.15,2.82,18.3,6.33,23.08,9.8,8.92,6.48,14.64,14.04,18.52,24.52,4.55,12.27,14.81,48.39,12.03,60.82-1.03,4.61-2.9,4.99-5.07,5.42-.86.17-1.75.35-2.74.81-8.09,3.77-17.08,10.81-25.78,17.61-6.25,4.89-12.71,9.94-18.68,13.64-.63.39-1.67.9-2.87,1.49-3.52,1.73-10.03,4.93-9.63,7.45,2.92,3.73,8.73,1.38,13.48-1.09,5.74-2.99,11.32-7.45,16.72-11.76,4.27-3.41,8.68-6.93,13.06-9.61,2.29-1.4,10.76-6.75,11.31-7.27.06-.06,7.46-4.75,9.32-4.75.14,0,.25.03.32.08l.12.1.25.58c5.33,12.58,10.37,24.46,6.02,38.4-1.8,5.76-5.25,10.03-8.58,14.15-1.52,1.88-3.09,3.82-4.49,5.88-2.53,2.5-17.85,7.43-21.44,8.14-1.61.32-4.61.48-7.79.65-4.44.24-10.52.57-11.68,1.46-1.04.79-1,1.89-.89,2.47.27,1.4,1.46,2.65,2.89,3.04,8.19,2.23,31.08-2.4,38.74-6.97,16.63-9.92,25.61-32.28,20.89-52.02Z"/>
  <path class="cls-1" d="M80.6,368.38c-23.09-5.64-33.51-22.24-30.14-47.99.84-6.38,4.67-13.65,7.7-17.93l.53-.75.47.78c4.76,7.87,13.34,16.56,22.94,23.23,4.62,3.21,12.31,8.55,17.86,4.72-.02-3.15-2.92-4.47-5.99-5.87-1.16-.53-2.36-1.07-3.36-1.72-9.72-6.33-27.81-22.72-27.64-33.7,1.24-7.25,2-14.83,2.74-22.16,1.36-13.49,2.77-27.43,7.11-40.06,3.75-10.91,15.42-17.73,25.72-23.75,3.31-1.94,6.44-3.77,9.23-5.66.46-.32,1.04-.69,1.65-1.09,1.75-1.15,3.92-2.57,4.92-3.51,5.19-4.87,7.19-14.55,9.12-23.92,1.14-5.53,2.21-10.75,3.91-14.58,2.24-5.09,7.22-6.45,12.56-7.5,4.01-.79,9.6-1.59,13.37-2.04.15-.02.28-.05.39-.07.62-.14,1.15-.18,1.81.69,2.71,3.53.48,13.72-1,20.46-.3,1.36-.56,2.54-.72,3.43-.25,1.37-.37,2.8-.48,4.19-.36,4.52-.74,9.19-5.8,12.18-1.5.89-4.05,1.6-6.52,2.28-2.64.73-5.62,1.57-6.45,2.46-.36.54-2.2,6.25-2.35,7.16-.67,4.22-.07,5.76,3.26,8.24,3.41,2.54,7.07,2.96,10.95,3.4,4.15.47,8.44.96,12.85,4.01,5.06,3.49,14.04,20,15.82,25.96.81,2.7.97,5.29,1.12,7.79.09,1.54.19,3.13.44,4.7.43,2.69.9,4.46,1.9,4.99.84.44,2.26.17,4.59-.88,1.88-9.95-1.11-21.72-8.89-35-3.39-5.79-11.3-11.32-18.44-16.05-3.04-2.01-5.5-3.04-7.51-3.14-2.79-.14-8.23-.69-8.28-.69l-.17-.02-1.76-1.32.02-.32c.16-3.37,2.61-3.75,4.99-4.11,1.02-.16,2.08-.32,3.1-.69,1.52-.56,2.01-.96,2.68-1.5.31-.25.64-.52,1.1-.83,12.44-8.44,15.89-34.04,12.15-47.18-2.01-7.07-7.26-12.66-14.78-15.72-3.89-1.59-8.07-2.37-12.17-2.37-5.11,0-10.11,1.22-14.32,3.63-8.5,4.86-15.96,16.17-16.62,25.21-.07.88.09,1.73.26,2.62.19.98.38,1.99.3,3.16-.08,1.09-.38,2.05-.68,2.98-.35,1.1-.72,2.24-.72,3.64-.03,7.63,2.86,9.37,8.63,12.82l.25.15s.14.03.21.03c.24.03.64.07.87.45.25.39.12.88-.03,1.3-1.44,3.99-9.1,8.22-15.26,11.63-1.95,1.08-3.63,2.01-4.81,2.77-23.16,14.95-27.38,21.51-32.26,50.18-2.69,15.8-5.05,31.18-4.4,45.66v.22s-.13.17-.13.17c-12.45,15.89-16.98,36.98-11.55,53.73,2.97,9.15,10.29,21.13,28.31,26.28,7.07,2.02,13.55,3.48,21.1.95l.44-3.44c-2.63-1.24-5.67-1.55-8.62-1.86-1.86-.19-3.79-.39-5.57-.83Z"/>
  <path class="cls-1" d="M199.73,269.66c1.23.67,2.82.64,4.17-.06,1.4-.73,8.09-7.68,9.89-9.74,8.57-9.8,14.49-23.36,19.82-36.42,1.79-4.38,3.33-9.03,4.82-13.53,3.65-11.01,7.42-22.39,15.23-31.19,6.01-6.77,13.9-9.04,22.25-11.44,1.19-.34,2.4-.69,3.6-1.05,1.54-.46,2.95-.73,4.3-.99,3.76-.71,6.73-1.28,9.66-5.75.55-.85.97-1.98,1.41-3.19.61-1.67,1.24-3.39,2.33-4.53.8-.84,2.01-1.39,3.3-1.98.96-.44,1.94-.89,2.73-1.46,1.08-.78,2.1-1.89,3.08-2.96.83-.9,1.69-1.84,2.6-2.6l.15-.12.19-.02c.76-.06,1.28-.06,1.54.37.24.4,0,.77-.17,1.01-.1.15-.22.33-.26.51-2.42,9.42-3.25,14.55,6.18,19.09,4.67,2.25,9.54,3.85,14.25,5.4,7.58,2.49,15.42,5.06,22.62,10.41,8.97,6.66,12.84,23.24,16.58,39.28,2.76,11.83,5.37,23,9.83,30.38,1.72,2.86,4.76,6.18,7.67,6.18h.03c1.5-.01,2.82-.96,3.94-2.82-.04-1.06-1.08-2.09-1.93-2.92-.45-.44-.84-.82-1.05-1.19-5.62-9.49-8.77-21.67-11.82-33.45-4.1-15.83-8.34-32.2-18.58-41.27-.7-.62-2.14-1.59-3.54-2.54-2.31-1.57-3.75-2.56-4.21-3.19-.68-.93-.95-2.3-1.21-3.62-.18-.93-.37-1.89-.69-2.64-2.75-6.38-7.57-11.51-12.23-16.47-2.3-2.45-4.47-4.76-6.42-7.22-4.42-5.57-3.95-7.98-3.3-11.32.32-1.67.69-3.56.49-6.27-1.03-13.66-5.62-21.34-15.35-25.67-3.87-1.72-8.33-2.55-12.83-2.55-7.33,0-14.73,2.2-19.75,6.32-6.11,5.02-9.38,17.83-9.4,25.15,0,3.56,1.85,18.29,3,21.41,1.83,4.98,10.58,9.63,10.67,9.68l3.25,2.15-1.42.29c-1.3.26-2.64.52-4.01.79-9.38,1.8-20,3.85-26.96,10.04-12.97,11.54-19.23,28.86-25.29,45.6-5.02,13.88-10.21,28.23-19.2,39.42-.64.79-1.87,2.08-3.3,3.57-2.98,3.1-8.53,8.88-8.37,10.54.1,1.13.71,2.05,1.71,2.59ZM285.61,144.25c-.13-.14-.55-.62-1.03-1.18-.69-.79-1.62-1.87-1.82-2.06-4.55-4.56-5.78-7.34-6.26-14.13-.2-2.91,2.44-14.76,3.65-17.79.02-.06,2.47-6.03,5.23-6.98.64-.22,1.27-.17,1.82.16h0c.28.16.39.46.52.8.08.21.22.59.34.66,9.13,5.61,14.09,14.68,18.78,24.28,0,0,1.47,2.27,2.62,4.23.15.19.22.44.2.7-.06.69-.74,1.95-5.53,5.58l-.18.13c-.76.58-9.5,6.89-11.24,7.14-.24.03-.56.05-.93.05-1.89,0-5.13-.46-6.18-1.59Z"/>
  <path class="cls-1" d="M318.39,329.77c2.95.54,6,1.04,8.87,1.07,1.51-.01,3.09-.36,4.62-.7,1.31-.29,2.67-.59,3.99-.67,1.36-.09,2.78-.17,4.22-.25,10.11-.57,21.57-1.21,29.83-6.36.4-.27,4.11-3.71,4.41-4.07.7-1.21.67-2.83-.12-4.18-.71-1.23-1.86-1.96-3.08-1.96h0c-.81,0-2.77,1.37-4.2,2.36-1.02.71-1.99,1.38-2.73,1.75-11.83,5.89-20.56,2.44-31.6-3.08-2.51-1.26-5.06-2.82-7.53-4.33-4.97-3.05-10.11-6.2-15.57-7.29l-.2-.08-.29-.18c-1.13-.68-1.16-.98-.81-2.4l.28-1.17.45-.02c4.82-.22,9.53-2.18,14.09-4.07,2.34-.97,4.76-1.98,7.18-2.74,3.61-1.14,7.75-2.39,11.09-2.97,1.24-.22,3.07-.33,5.01-.45,2.68-.16,5.72-.35,6.81-.84,1.43-.66,1.77-1.77,1.81-2.59.07-1.68-1.07-3.63-2.66-4.53-3.42-1.94-16.89,1.58-25.11,4.43-5.17,1.79-13.03,4.98-18.05,7.74-.9.5-1.52,1.15-2.24,1.91l-.55.55-3.14,2.1h-.19c-2.97-.06-5.45-1.56-7.86-3-1.33-.8-2.71-1.63-4.15-2.2-7.77-3.08-30.32-7.74-38.93-8.04-.78-.06-3.32.46-3.82.77-1.03,2.13-1.18,3.78-.45,5.05,1.75,3.04,8.32,3.5,13.61,3.87,2,.14,3.89.27,5.31.53,17.88,3.26,26.5,7.83,38.42,14.15,3.85,2.04,8.21,4.36,13.28,6.81,1.75.85,3.63,1.49,5.46,2.11,1.72.58,3.49,1.19,5.1,1.95l.29.14c1.19.55,3.41,1.56,2.89,3.35l-.18.61-.6-.21c-2.42-.85-5.17-.75-7.83-.65-1.41.05-2.88.1-4.29.02-14.26-.88-25.69-.55-38.93-.18l-4.24.12c-18.51.51-51.82-1-66.93-16.74-5.37-5.59-1.85-10.64,1.25-15.1.59-.85,1.19-1.7,1.71-2.55.15-.24.13-.56.11-.94-.02-.42-.05-.89.18-1.33,1.88-3.62,15.13-10.96,19.26-12.02,3.1-.8,6.41-.6,9.61-.41,2.15.13,4.17.25,6.08.08,3.79-.34,13.56-4.15,16.65-6.85,8.27-7.22,5.37-17.31,2.57-27.07-.24-.85-.49-1.7-.72-2.53l-.37-1.32,1.22.62c3.76,1.92,8.44,1.47,11.63.97,1.59-.25,6.18-1.74,6.76-2.35.51-.53.77-1.6.67-2.73-.1-1.11-.52-2.06-1.11-2.49-2.42-1.78-4.59-.99-7.11-.08-1.52.55-3.08,1.12-4.83,1.17-1.5.05-6.56-.81-7.77-1.65h0c-4.64-3.22-2.88-11.27-1.82-16.09l.12-.55c.25-1.16.75-2.67,1.27-4.27,1.29-3.93,3.05-9.32,1.67-11.58-.53-.87-1.37-1.9-2.31-1.8-1.05.1-2.26,1.58-3.06,3.78-1.88,5.12-3.25,10.86-4.57,16.41-1.35,5.66-2.74,11.5-4.7,16.87-2.08,5.7-14.69,30.89-18.88,33.81-.75.52-2.75,1.08-5.06,1.72-1.87.52-3.8,1.06-4.81,1.52-10.87,5-19.46,14.38-21.89,23.89-1.7,6.66-.4,12.96,3.88,18.72,5.61,7.55,18.83,12.28,28.93,14.92,13.23,3.45,26.42,4.77,33.69,4.85,6.45.05,13.06-.53,19.45-1.1,6.14-.55,12.44-1.12,18.76-1.12,1.92,0,3.85.05,5.77.17,2.28.15,4.69.58,7.02,1.01ZM242.59,264.42l.06-.14,10.87-18.39,4.73-12.56.12,2.96c.1,2.51.88,5.44,1.71,8.54,1.29,4.82,2.62,9.8,1.46,13.78-.66,2.29-8.14,5.23-8.21,5.26h0c-.84.31-1.91.57-2.62.74-.25.06-.45.11-.58.15l-.41.12c-2.57.79-4.29,1.17-5.4,1.17-.7,0-1.16-.15-1.46-.44-.18-.17-.45-.56-.26-1.2Z"/>
  <path class="cls-1" d="M365.37,260.54c-2.68-3.88-9.88-22.6-11.41-27.4-1.01-3.18-1.75-6.86-2.47-10.42-.91-4.52-1.85-9.19-3.36-12.95-.2-.51-2.74-4.91-3.05-5.29-.65-.57-1.77-.88-2.82-.75-.83.11-1.49.47-1.86,1.02-.99,1.48-.67,5.51-.37,9.4.38,4.77.76,9.69-.79,12.33l-.11.18-.2.08c-1.29.48-2.41,1-3.49,1.49-3.24,1.49-6.04,2.77-10.81,1.85-.88-.17-1.79-.63-2.68-1.07-1.33-.67-2.7-1.35-3.77-.98-.65.23-1.2.85-1.68,1.89-.34.73-.3,1.49.11,2.31,1.11,2.26,4.73,4.3,6.83,4.78,4.57,1.03,8.5.5,12.66-.07,1.52-.21,3.09-.42,4.73-.56l.28-.02.2.19c.49.48-.17,4.19-.81,7.22-.29,1.39-.8,2.95-1.34,4.59-1.74,5.34-3.72,11.39.78,14.31,5.74,3.73,28.46,11.56,35.2,11.64,1.04-.02,2.44-.23,2.99-.64,1.41-3.38-.81-4.74-4.62-6.55-1.32-.63-2.56-1.22-3.52-1.99-.23-.18-4.36-4.21-4.63-4.59ZM343.47,257.95l.19-.58c.57-1.75,1.11-3.53,1.64-5.32,1.05-3.5,2.14-7.12,3.5-10.52.24-.6.68-.64.86-.63.89.05,1.56,1.85,1.97,3.36.91,3.34,2.11,6.66,3.27,9.87.86,2.37,1.74,4.82,2.51,7.26l.34,1.1-14.29-4.54Z"/>
  <path class="cls-1" d="M465.1,323.27c2.03,1.03,3.42.73,5.53.27.4-.09.82-.18,1.26-.26,7.46-1.45,13.08-4.11,18.21-8.62.67-.59,1.17-1.33,1.67-2.05.48-.7.98-1.43,1.62-1.99,1.95-1.69,4.21-3.52,6.61-5.46,7.99-6.47,17.04-13.81,21.23-20.95,1.5-2.56,2.19-6.13,1.83-9.55-.6-5.69-8.27-23.89-11.54-31.45-.15-.35-.33-.8-.54-1.3-.96-2.36-2.74-6.74-4.15-7.42-.86-.42-1.2-.17-1.31-.09-1.01.73-1.13,3.87-.81,6.49.87,7.05,3.47,13.06,5.98,18.87l.65,1.51c.22.52.47,1.08.74,1.68,2.3,5.2,5.77,13.06,3.46,17.76-4.18,8.52-23.61,24.05-30.09,28.82-6.61,4.87-12.13,7.41-18.44,8.52-1.54.27-2.8,2.16-3.22,3.82.15.34,1.02,1.2,1.3,1.41Z"/>
  <path class="cls-1" d="M97.72,234.5c-.45-.07-1.24-.09-1.61.52l-10.63,43.62c-1.36,9.62,4.44,16.87,11.57,24.69h0l.67.74c3.4,3.76,11.34,12.55,16.07,9.89.76-.87,1.09-1.69,1.01-2.5-.17-1.78-2.35-3.43-4.27-4.88-.92-.7-1.79-1.35-2.46-2.02-2.39-2.39-14.38-14.71-15.61-22.11-.75-4.52,1.47-11.79,3.43-18.2.91-2.97,1.76-5.77,2.22-7.98,1.31-6.28,1.89-10.63,1.47-16.98-.05-.7.16-1.4.34-2.01.13-.45.27-.91.22-1.15-.11-.6-1.18-1.45-2.41-1.65Z"/>
  <path class="cls-1" d="M443.76,248.27c1.3-4.71,3.71-13.47,1.26-15.78-.75-.71-2.02-.77-3.76-.18-.92.72-3.16,8.53-3.75,11.41-1.15,5.57-1.92,10.2-.45,14.82,1.08,3.41,2.95,6.96,4.92,10.73,2.96,5.64,6.02,11.48,6.53,17.2.09,1.05-.02,2.22-.13,3.35-.13,1.3-.24,2.52-.03,3.34.42,1.64,1.36,2.5,2.58,2.49,1.24-.06,2.73-1.24,3.05-3.3,1.59-10.26-3.84-21.84-7.8-30.29-.6-1.28-1.22-2.11-1.76-2.85-1.25-1.68-2.15-2.9-1.57-7.19.1-.76.46-2.07.92-3.74Z"/>
  <path class="cls-1" d="M484.48,273.47c2.67.72,11.51,1.24,14.04.68,1.81-.4,4.87-2.85,5.87-5.13.39-.9.42-1.67.09-2.29-2.18-2.16-3.74-1.75-5.88-1.17-1.19.32-2.54.67-4.16.61l-6.65-.66c-1.96.08-3.57-1.06-5.11-2.11-1.38-.94-2.64-1.79-4.03-1.79-.63,0-1.3.17-2.01.6-.93.54-1.3,1.26-1.16,2.24.45,3.34,6.53,8.35,9.01,9.02Z"/>
  <path class="cls-1" d="M129.42,265.73c.02-.29.1-1.17-1.56-1.98-1-.49-1.49-.24-2.23.15-.38.2-.8.42-1.33.54-1.38.31-1.75.58-1.88.69-.08.06-.18.14-.34.17-4.35.96-7.5-.06-10.56-1.05-1.79-.58-3.65-1.18-5.74-1.38-.33-.03-.64-.05-.93-.05-1.32,0-2.15.32-2.38.93-.44,1.18,1.05,3.45,3.31,5.07,5,3.58,10.73,4.56,16.56,2.85,2.31-.68,6.88-3.65,7.08-5.94Z"/>
  <path class="cls-1" d="M162.31,239.27c-1.19-4.27-1.76-6.32-6.25-5.78.18,1.27.39,2.5.59,3.69.83,4.95,1.62,9.64.19,15.19l4.68.48c1.52-5.03,2.27-8.27.79-13.58Z"/>
</svg>